SplineFontDB: 3.0
FontName: XITS-BoldItalic
FullName: XITS Bold Italic
FamilyName: XITS
Weight: Bold
Copyright: Copyright (c) 2001-2011 by the STI Pub Companies, consisting of the American Chemical Society, the American Institute of Physics, the American Mathematical Society, the American Physical Society, Elsevier, Inc., and The Institute of Electrical and Electronic Engineers, Inc.  Portions copyright (c) 1998-2003 by MicroPress, Inc.  Portions copyright (c) 1990 by Elsevier, Inc.  Portions copyright (c) 2009-2011 by Khaled Hosny.  All rights reserved.
Version: $version
DefaultBaseFilename: xits-bolditalic
ItalicAngle: -16.33
UnderlinePosition: -50
UnderlineWidth: 50
Ascent: 750
Descent: 250
LayerCount: 2
Layer: 0 0 "Back"  1
Layer: 1 0 "Fore"  0
XUID: [1021 862 584604386 9564403]
UniqueID: 4757222
FSType: 0
OS2Version: 0
OS2_WeightWidthSlopeOnly: 0
OS2_UseTypoMetrics: 1
CreationTime: 1227710455
PfmFamily: 81
TTFWeight: 700
TTFWidth: 5
LineGap: 510
VLineGap: 0
OS2TypoAscent: 750
OS2TypoAOffset: 0
OS2TypoDescent: -250
OS2TypoDOffset: 0
OS2TypoLinegap: 510
OS2WinAscent: 38
OS2WinAOffset: 1
OS2WinDescent: 96
OS2WinDOffset: 1
HheadAscent: 750
HheadAOffset: 0
HheadDescent: -250
HheadDOffset: 0
OS2SubXSize: 500
OS2SubYSize: 500
OS2SubXOff: 0
OS2SubYOff: 250
OS2SupXSize: 500
OS2SupYSize: 500
OS2SupXOff: 0
OS2SupYOff: 500
OS2StrikeYSize: 50
OS2StrikeYPos: 309
OS2Vendor: 'STIX'
Lookup: 258 0 0 "'kern' Horizontal Kerning in Latin lookup 0"  {"'kern' Horizontal Kerning in Latin lookup 0 subtable"  } ['kern' ('DFLT' <'dflt' > 'latn' <'dflt' > ) ]
MarkAttachClasses: 1
DEI: 91125

StartChar: exclam
Encoding: 33 33 1
Width: 389
Flags: MW
HStem: -13 146<119.5 159 119.5 159.5> 664 20<266 323>
VStem: 67 146<38 78 38 79>
LayerCount: 2
Fore
SplineSet
196 204 m 1
 167 213 l 1
 197 370 214 486 219 566 c 0
 222 626 234 684 298 684 c 0
 348 684 370 655 370 611 c 0
 370 584 364 570 340 522 c 0
 283 409 238 313 196 204 c 1
213 58 m 0
 213 18 180 -13 139 -13 c 0
 97 -13 67 17 67 58 c 0
 67 100 99 133 140 133 c 0
 178 133 213 98 213 58 c 0
EndSplineSet
EndChar

StartChar: quotedbl
Encoding: 34 34 2
Width: 555
Flags: MW
HStem: 665 20<211.5 243.5 471.5 503.5>
LayerCount: 2
Fore
SplineSet
396 398 m 1
 411 612 l 2
 414 650 452 685 491 685 c 0
 516 685 536 663 536 636 c 0
 536 622 534 615 523 589 c 2
 438 398 l 1
 396 398 l 1
136 398 m 1
 151 612 l 2
 154 650 192 685 231 685 c 0
 256 685 276 663 276 636 c 0
 276 624 275 616 263 589 c 2
 178 398 l 1
 136 398 l 1
EndSplineSet
EndChar

StartChar: numbersign
Encoding: 35 35 3
Width: 500
Flags: MW
HStem: 0 20 210 73<-12 63 -32 93 171 254 -12 141 362 428> 417 73<72 147 52 176 72 225 254 338 445 512>
LayerCount: 2
Fore
SplineSet
532 490 m 1
 512 417 l 1
 416 417 l 1
 362 283 l 1
 448 283 l 1
 428 210 l 1
 332 210 l 1
 247 0 l 1
 169 0 l 1
 254 210 l 1
 141 210 l 1
 56 0 l 1
 -22 0 l 1
 63 210 l 1
 -32 210 l 1
 -12 283 l 1
 93 283 l 1
 147 417 l 1
 52 417 l 1
 72 490 l 1
 176 490 l 1
 263 700 l 1
 340 700 l 1
 254 490 l 1
 367 490 l 1
 454 700 l 1
 531 700 l 1
 445 490 l 1
 532 490 l 1
338 417 m 1
 225 417 l 1
 171 283 l 1
 284 283 l 1
 338 417 l 1
EndSplineSet
EndChar

StartChar: dollar
Encoding: 36 36 4
Width: 500
Flags: MW
HStem: 0 20 637 33<254.5 279 219 291>
LayerCount: 2
Fore
SplineSet
497 598 m 1
 455 464 l 1
 434 469 l 1
 435 480 435 494 435 500 c 0
 435 569 416 605 351 625 c 1
 292 410 l 1
 404 313 432 269 432 198 c 0
 432 81 340 0 178 0 c 1
 150 -100 l 1
 98 -100 l 1
 127 7 l 1
 64 22 29 39 -20 87 c 1
 22 228 l 1
 44 222 l 1
 47 114 63 79 137 42 c 1
 211 303 l 1
 105 384 79 425 79 493 c 0
 79 603 163 670 275 670 c 0
 283 670 291 670 313 668 c 1
 331 733 l 1
 381 733 l 1
 361 661 l 1
 394 655 448 637 497 598 c 1
248 436 m 1
 303 635 l 1
 298 637 294 637 288 637 c 0
 221 637 178 600 178 542 c 0
 178 502 195 476 248 436 c 1
253 274 m 1
 186 32 l 1
 262 32 323 72 323 161 c 0
 323 208 310 235 253 274 c 1
EndSplineSet
EndChar

StartChar: percent
Encoding: 37 37 5
Width: 757
Flags: MW
HStem: -18 28<538.5 554> 300 33<612.5 635 550 640> 322 30<210 224> 584 31<423.5 454> 634 40<257 280.5>
VStem: 351 26<519.5 561.5 519.5 577> 682 25<194.5 243>
LayerCount: 2
Fore
SplineSet
707 214 m 0xde
 707 144 679 71 634 24 c 0
 609 -3 573 -18 535 -18 c 0
 459 -18 407 38 407 120 c 0
 407 233 498 333 602 333 c 0
 668 333 707 288 707 214 c 0xde
682 220 m 0
 682 266 657 300 623 300 c 0
 602 300 582 285 561 254 c 0
 529 206 505 129 505 76 c 0
 505 33 522 10 555 10 c 0
 585 10 610 26 634 61 c 1
 662 104 682 169 682 220 c 0
645 706 m 1
 207 -29 l 1
 159 -29 l 1
 547 626 l 1
 507 596 474 584 434 584 c 0
 413 584 399 587 374 597 c 1
 376 578 377 568 377 555 c 0
 377 484 349 408 307 366 c 0
 279 338 242 322 206 322 c 0x3e
 132 322 80 379 80 461 c 0
 80 575 172 674 277 674 c 0
 303 674 322 666 348 645 c 0
 377 622 395 615 431 615 c 0
 497 615 546 642 597 706 c 1
 645 706 l 1
351 560 m 0
 351 594 345 604 319 614 c 0
 312 617 309 618 298 625 c 0
 287 632 283 634 278 634 c 0
 236 634 176 507 176 418 c 0
 176 376 194 352 226 352 c 0
 290 352 351 453 351 560 c 0
EndSplineSet
EndChar

StartChar: ampersand
Encoding: 38 38 6
Width: 849
Flags: MW
HStem: -19 71<297.5 298> -18 79<575.5 680.5> 649 33<473.5 512.5>
VStem: 548 80<552 601.5 532 603>
LayerCount: 2
Fore
SplineSet
745 101 m 1x70
 771 80 l 1
 710 6 669 -18 603 -18 c 0x70
 548 -18 505 0 461 44 c 1
 399 -3 333 -19 263 -19 c 0x90
 148 -19 76 39 76 142 c 0
 76 319 233 366 316 384 c 1
 307 430 305 451 305 476 c 0
 305 603 384 682 494 682 c 0
 578 682 628 635 628 568 c 0
 628 496 569 442 446 396 c 1
 456 320 491 235 532 169 c 1
 591 239 606 270 606 298 c 0
 606 320 593 329 550 336 c 1
 550 361 l 1
 762 361 l 1
 762 336 l 1
 703 332 694 312 557 133 c 1
 594 82 628 61 667 61 c 0
 694 61 716 72 745 101 c 1x70
548 582 m 0
 548 624 529 649 496 649 c 0
 451 649 426 605 426 536 c 0
 426 511 428 490 437 434 c 1
 523 480 548 522 548 582 c 0
433 80 m 1x90
 373 165 347 235 324 343 c 1
 240 302 209 260 209 190 c 0
 209 111 261 52 334 52 c 0
 365 52 397 58 433 80 c 1x90
EndSplineSet
EndChar

StartChar: quotesingle
Encoding: 39 39 7
Width: 278
Flags: MW
HStem: 665 20<203.5 235.5>
LayerCount: 2
Fore
SplineSet
128 398 m 1
 144 613 l 2
 147 660 184 685 223 685 c 0
 248 685 268 663 268 636 c 0
 268 622 264 613 253 588 c 2
 170 398 l 1
 128 398 l 1
EndSplineSet
EndChar

StartChar: parenleft
Encoding: 40 40 8
Width: 333
Flags: MW
HStem: 665 20<326 344>
VStem: 28 94<133 183 59.5 268>
LayerCount: 2
Fore
SplineSet
326 685 m 1
 344 665 l 1
 263 591 226 546 189 465 c 0
 144 366 122 247 122 119 c 0
 122 0 138 -67 193 -164 c 1
 170 -179 l 1
 69 -41 28 59 28 207 c 0
 28 329 69 438 145 528 c 0
 186 576 242 623 326 685 c 1
EndSplineSet
EndChar

StartChar: parenright
Encoding: 41 41 9
Width: 333
Flags: MW
HStem: 665 20<128 128>
VStem: 177 94<250.5 451>
LayerCount: 2
Fore
SplineSet
105 670 m 1
 128 685 l 1
 183 610 206 574 230 513 c 0
 258 443 271 369 271 299 c 0
 271 202 246 120 203 48 c 0
 152 -38 74 -110 -27 -179 c 1
 -44 -159 l 1
 48 -77 78 -33 117 63 c 0
 156 158 177 281 177 394 c 0
 177 508 156 581 105 670 c 1
EndSplineSet
EndChar

StartChar: asterisk
Encoding: 42 42 10
Width: 500
Flags: MW
HStem: 665 20<281 311.5>
LayerCount: 2
Fore
SplineSet
312 468 m 1
 323 462 l 2
 356 444 365 439 411 439 c 0
 447 439 492 428 492 388 c 0
 492 359 467 334 440 334 c 0
 415 334 401 345 380 381 c 0
 358 417 349 430 315 448 c 2
 304 454 l 1
 304 442 l 2
 304 410 311 388 330 355 c 0
 343 333 347 318 347 303 c 0
 347 272 327 252 296 252 c 0
 266 252 246 272 246 304 c 0
 246 318 250 333 263 355 c 0
 282 388 289 410 289 442 c 2
 289 454 l 1
 278 448 l 2
 244 430 235 417 213 381 c 0
 192 345 178 334 153 334 c 0
 126 334 101 359 101 388 c 0
 101 428 146 439 182 439 c 0
 228 439 237 444 270 462 c 2
 281 468 l 1
 270 474 l 2
 237 492 226 496 182 497 c 0
 144 497 101 509 101 549 c 0
 101 577 125 603 150 603 c 0
 174 603 191 591 213 556 c 0
 237 518 248 505 278 488 c 2
 289 482 l 1
 289 494 l 2
 289 527 282 550 263 582 c 0
 250 604 246 618 246 633 c 0
 246 665 266 685 296 685 c 0
 327 685 347 665 347 633 c 0
 347 618 343 604 330 582 c 0
 311 550 304 527 304 494 c 2
 304 482 l 1
 315 488 l 2
 345 505 356 518 380 556 c 0
 402 591 419 603 443 603 c 0
 469 603 492 577 492 549 c 0
 492 509 449 497 411 497 c 0
 367 496 356 492 323 474 c 2
 312 468 l 1
EndSplineSet
EndChar

StartChar: plus
Encoding: 43 43 11
Width: 570
Flags: MW
HStem: 0 20 209 88<33 241 33 241 329 537>
VStem: 241 88<0 209 0 209 297 506>
LayerCount: 2
Fore
SplineSet
537 209 m 1
 329 209 l 1
 329 0 l 1
 241 0 l 1
 241 209 l 1
 33 209 l 1
 33 297 l 1
 241 297 l 1
 241 506 l 1
 329 506 l 1
 329 297 l 1
 537 297 l 1
 537 209 l 1
EndSplineSet
EndChar

StartChar: comma
Encoding: 44 44 12
Width: 250
Flags: MW
VStem: 58 86<-59 67>
LayerCount: 2
Fore
SplineSet
-47 -182 m 1
 -60 -157 l 1
 19 -115 58 -77 58 -41 c 0
 58 -27 52 -17 28 -4 c 0
 -4 14 -12 34 -12 61 c 0
 -12 109 20 134 61 134 c 0
 114 134 144 94 144 40 c 0
 144 -49 72 -132 -47 -182 c 1
EndSplineSet
EndChar

StartChar: hyphen
Encoding: 45 45 13
Width: 333
Flags: W
LayerCount: 2
Fore
SplineSet
271 282 m 1
 248 166 l 1
 2 166 l 1
 26 282 l 1
 271 282 l 1
EndSplineSet
EndChar

StartChar: period
Encoding: 46 46 14
Width: 250
Flags: MW
HStem: -13 148<44.5 85>
VStem: -9 148<40 81.5 40 81.5>
LayerCount: 2
Fore
SplineSet
139 61 m 0
 139 19 106 -13 64 -13 c 0
 23 -13 -9 19 -9 60 c 0
 -9 103 23 135 66 135 c 0
 106 135 139 102 139 61 c 0
EndSplineSet
EndChar

StartChar: slash
Encoding: 47 47 15
Width: 278
Flags: MW
HStem: -18 20 665 20<255 342 342 342>
LayerCount: 2
Fore
SplineSet
342 685 m 1
 23 -18 l 1
 -64 -18 l 1
 255 685 l 1
 342 685 l 1
EndSplineSet
EndChar

StartChar: zero
Encoding: 48 48 16
Width: 500
Flags: MW
HStem: -14 29<155 191 155 203.5> 654 29<311 340.5>
LayerCount: 2
Fore
SplineSet
477 442 m 0
 477 289 404 125 311 41 c 0
 270 4 230 -14 177 -14 c 0
 73 -14 17 73 17 206 c 0
 17 360 81 512 169 613 c 0
 215 666 272 683 327 683 c 0
 423 683 477 588 477 442 c 0
374 582 m 0
 374 627 356 654 325 654 c 0
 297 654 276 629 249 571 c 0
 189 438 120 162 120 81 c 0
 120 41 140 15 170 15 c 0
 212 15 241 55 276 159 c 0
 307 254 374 477 374 582 c 0
EndSplineSet
EndChar

StartChar: one
Encoding: 49 49 17
Width: 500
Flags: MW
HStem: 0 20 663 20<419 419>
LayerCount: 2
Fore
SplineSet
419 683 m 1
 265 123 l 2
 258 97 251 75 251 60 c 0
 251 32 273 25 350 23 c 1
 350 0 l 1
 5 0 l 1
 5 23 l 1
 81 27 108 42 126 105 c 2
 250 550 l 2
 252 559 256 574 256 580 c 0
 256 602 239 613 208 613 c 0
 189 613 172 612 146 608 c 1
 148 631 l 1
 263 646 328 661 419 683 c 1
EndSplineSet
EndChar

StartChar: two
Encoding: 50 50 18
Width: 500
Flags: MW
HStem: 0 20 593 90<231 253.5>
LayerCount: 2
Fore
SplineSet
86 507 m 1
 64 519 l 1
 104 617 180 683 282 683 c 0
 386 683 446 610 446 515 c 0
 446 436 403 364 302 278 c 2
 106 111 l 1
 244 111 l 2
 330 111 361 125 395 191 c 1
 419 191 l 1
 339 0 l 1
 -27 0 l 1
 -27 24 l 1
 62 116 l 2
 246 307 312 389 312 476 c 0
 312 545 287 593 220 593 c 0
 168 593 127 568 86 507 c 1
EndSplineSet
EndChar

StartChar: three
Encoding: 51 51 19
Width: 500
Flags: MW
HStem: -13 40<167 201.5> 612 71<262.5 265>
LayerCount: 2
Fore
SplineSet
117 537 m 1
 96 550 l 1
 156 647 222 683 303 683 c 0
 383 683 450 625 450 547 c 0
 450 487 420 432 331 398 c 1
 331 396 l 1
 388 353 408 316 408 250 c 0
 408 109 285 -13 118 -13 c 0
 36 -13 -14 18 -14 67 c 0
 -14 101 8 125 45 125 c 0
 94 125 108 68 135 41 c 0
 143 33 159 27 175 27 c 0
 236 27 285 106 285 189 c 0
 285 237 273 274 249 301 c 0
 216 338 181 344 127 347 c 1
 131 369 l 1
 260 396 321 445 321 522 c 0
 321 577 296 612 234 612 c 0
 187 612 158 594 117 537 c 1
EndSplineSet
EndChar

StartChar: four
Encoding: 52 52 20
Width: 500
Flags: MW
HStem: 0 20 663 20<440 503 503 503>
LayerCount: 2
Fore
SplineSet
503 683 m 1
 384 248 l 1
 454 248 l 1
 427 150 l 1
 358 150 l 1
 316 0 l 1
 188 0 l 1
 229 150 l 1
 -15 150 l 1
 13 255 l 1
 440 683 l 1
 503 683 l 1
335 528 m 1
 53 248 l 1
 256 248 l 1
 335 528 l 1
EndSplineSet
EndChar

StartChar: five
Encoding: 53 53 21
Width: 500
Flags: MW
HStem: -13 40<167 208.5> 649 20<204 486 486 486>
LayerCount: 2
Fore
SplineSet
486 669 m 1
 450 560 l 1
 197 560 l 1
 163 483 l 1
 269 463 290 457 339 416 c 0
 386 376 412 318 412 251 c 0
 412 110 291 -13 126 -13 c 0
 41 -13 -11 18 -11 66 c 0
 -11 100 13 124 48 124 c 0
 78 124 100 108 119 70 c 0
 137 34 156 27 178 27 c 0
 241 27 307 103 307 189 c 0
 307 254 270 312 206 344 c 0
 169 363 138 369 73 372 c 1
 204 669 l 1
 486 669 l 1
EndSplineSet
EndChar

StartChar: six
Encoding: 54 54 22
Width: 500
Flags: MW
HStem: -15 32<171.5 203 171.5 265.5> 382 40<237 339.5> 659 20<503 503>
LayerCount: 2
Fore
SplineSet
503 679 m 1
 509 655 l 1
 380 610 295 527 231 409 c 1
 252 418 273 422 293 422 c 0
 386 422 443 364 443 251 c 0
 443 95 334 -15 197 -15 c 0
 85 -15 23 62 23 189 c 0
 23 327 88 456 199 549 c 0
 291 626 357 651 503 679 c 1
319 315 m 0
 319 361 302 382 251 382 c 0
 223 382 212 376 196 338 c 0
 160 254 135 153 135 95 c 0
 135 42 153 17 190 17 c 0
 216 17 232 26 251 56 c 0
 289 116 319 245 319 315 c 0
EndSplineSet
EndChar

StartChar: seven
Encoding: 55 55 23
Width: 500
Flags: MW
HStem: 0 20 649 20<145 525 525 525>
LayerCount: 2
Fore
SplineSet
525 669 m 1
 144 0 l 1
 52 0 l 1
 384 556 l 1
 257 556 l 2
 144 556 121 544 84 479 c 1
 58 479 l 1
 145 669 l 1
 525 669 l 1
EndSplineSet
EndChar

StartChar: eight
Encoding: 56 56 24
Width: 500
Flags: MW
HStem: -13 30<167 227 167 255.5> 650 33<280 327.5>
VStem: 383 93<518.5 562.5 504.5 576>
LayerCount: 2
Fore
SplineSet
183 341 m 1
 183 345 l 1
 127 404 109 441 109 499 c 0
 109 613 196 683 300 683 c 0
 356 683 399 666 430 639 c 0
 458 614 476 585 476 540 c 0
 476 469 437 420 333 380 c 1
 333 376 l 1
 399 302 419 257 419 193 c 0
 419 65 320 -13 191 -13 c 0
 76 -13 3 54 3 153 c 0
 3 240 63 296 183 341 c 1
383 544 m 0
 383 608 349 650 306 650 c 0
 254 650 220 613 220 552 c 0
 220 502 239 460 310 403 c 1
 368 463 383 493 383 544 c 0
306 140 m 0
 306 192 296 229 209 321 c 1
 133 273 100 223 100 141 c 0
 100 64 138 17 196 17 c 0
 258 17 306 70 306 140 c 0
EndSplineSet
EndChar

StartChar: nine
Encoding: 57 57 25
Width: 500
Flags: MW
HStem: -10 20 245 43<159 264> 651 32<298 324 230 330.5>
LayerCount: 2
Fore
SplineSet
-6 -10 m 1
 -12 15 l 1
 110 52 204 135 265 259 c 1
 240 248 227 245 204 245 c 0
 114 245 53 312 53 412 c 0
 53 564 161 683 299 683 c 0
 349 683 388 668 417 639 c 0
 454 601 475 542 475 476 c 0
 475 330 394 184 263 92 c 0
 186 37 125 14 -6 -10 c 1
363 582 m 0
 363 628 347 651 314 651 c 0
 282 651 255 629 235 588 c 0
 204 525 177 416 177 352 c 0
 177 311 200 288 243 288 c 0
 285 288 293 297 320 377 c 0
 352 472 363 524 363 582 c 0
EndSplineSet
EndChar

StartChar: colon
Encoding: 58 58 26
Width: 333
Flags: MW
HStem: -13 148<76.5 117> 311 148<169.5 210>
VStem: 23 148<40 81 40 82> 116 148<364 405 364 406>
LayerCount: 2
Fore
SplineSet
264 385 m 0xd0
 264 343 231 311 189 311 c 0
 147 311 116 343 116 385 c 0
 116 427 148 459 191 459 c 0
 231 459 264 425 264 385 c 0xd0
171 61 m 0xe0
 171 19 138 -13 96 -13 c 0
 54 -13 23 19 23 61 c 0
 23 103 55 135 98 135 c 0
 138 135 171 101 171 61 c 0xe0
EndSplineSet
EndChar

StartChar: semicolon
Encoding: 59 59 27
Width: 333
Flags: MW
HStem: 311 148<169.5 210>
VStem: 93 86<-60 66> 116 148<364 405 364 406>
LayerCount: 2
Fore
SplineSet
264 385 m 0xa0
 264 343 231 311 189 311 c 0
 147 311 116 343 116 385 c 0
 116 427 148 459 191 459 c 0
 231 459 264 425 264 385 c 0xa0
-12 -183 m 1xc0
 -25 -158 l 1
 54 -116 93 -78 93 -42 c 0
 93 -28 87 -18 63 -5 c 0
 31 13 22 33 22 60 c 0
 22 108 55 133 96 133 c 0
 149 133 179 93 179 39 c 0
 179 -50 107 -133 -12 -183 c 1xc0
EndSplineSet
EndChar

StartChar: less
Encoding: 60 60 28
Width: 570
Flags: MW
HStem: -12 20
LayerCount: 2
Fore
SplineSet
539 -12 m 1
 31 211 l 1
 31 295 l 1
 539 518 l 1
 539 422 l 1
 154 253 l 1
 539 84 l 1
 539 -12 l 1
EndSplineSet
EndChar

StartChar: equal
Encoding: 61 61 29
Width: 570
Flags: MW
HStem: 107 88<33 537 33 537> 311 88<33 537 33 537>
LayerCount: 2
Fore
SplineSet
537 311 m 1
 33 311 l 1
 33 399 l 1
 537 399 l 1
 537 311 l 1
537 107 m 1
 33 107 l 1
 33 195 l 1
 537 195 l 1
 537 107 l 1
EndSplineSet
EndChar

StartChar: greater
Encoding: 62 62 30
Width: 570
Flags: MW
HStem: -12 20
LayerCount: 2
Fore
SplineSet
539 211 m 1
 31 -12 l 1
 31 84 l 1
 416 253 l 1
 31 422 l 1
 31 518 l 1
 539 295 l 1
 539 211 l 1
EndSplineSet
EndChar

StartChar: question
Encoding: 63 63 31
Width: 500
Flags: MW
HStem: -13 148<132.5 173> 466 20<162.5 197> 653 31<258 295.5>
VStem: 79 148<40 81 40 82> 119 93<539 625>
LayerCount: 2
Fore
SplineSet
196 208 m 1xe8
 167 216 l 1
 171 271 189 331 279 425 c 0
 328 476 343 526 343 574 c 0
 343 623 317 653 274 653 c 0
 242 653 212 635 212 615 c 0
 212 589 241 589 241 548 c 0
 241 515 214 486 180 486 c 0
 145 486 119 520 119 558 c 0
 119 625 198 684 300 684 c 0
 395 684 470 632 470 540 c 0
 470 477 437 423 344 369 c 0
 241 309 224 278 196 208 c 1xe8
227 61 m 0xf0
 227 19 194 -13 152 -13 c 0
 110 -13 79 19 79 61 c 0
 79 103 111 135 154 135 c 0
 194 135 227 101 227 61 c 0xf0
EndSplineSet
EndChar

StartChar: at
Encoding: 64 64 32
Width: 939
Flags: MW
HStem: -18 46<410 521.5> 142 38<613.5 696.5> 143 47<444 444.5> 467 48 646 39<409.5 570.5>
VStem: 118 91<237 415.5 237 428.5> 327 76<249 315.5 249 315.5> 779 46<352.5 459>
LayerCount: 2
Fore
SplineSet
703 77 m 1xdf
 716 42 l 1
 621 -7 558 -18 485 -18 c 0
 273 -18 118 143 118 325 c 0
 118 532 283 685 491 685 c 0
 680 685 825 568 825 387 c 0
 825 255 757 143 638 142 c 0xcf
 589 142 547 176 545 217 c 1
 510 171 466 143 423 143 c 0x27
 365 143 327 190 327 257 c 0
 327 374 403 515 528 515 c 0
 564 515 577 505 600 463 c 1
 611 501 l 1
 682 501 l 1
 621 258 l 2
 619 248 615 235 615 224 c 0
 615 195 632 180 656 180 c 0
 737 180 779 319 779 386 c 0
 779 532 649 646 492 646 c 0
 327 646 209 512 209 319 c 0
 209 155 324 28 496 28 c 0
 566 28 634 36 703 77 c 1xdf
583 402 m 0x37
 583 442 570 466 541 467 c 0
 457 468 403 356 403 275 c 0
 403 223 426 190 462 190 c 0
 491 190 522 215 544 258 c 0
 565 299 583 358 583 402 c 0x37
EndSplineSet
EndChar

StartChar: A
Encoding: 65 65 33
Width: 667
Flags: MW
HStem: 0 20 208 40<161 346 161 353 138 346> 663 20<388 413 413 413>
LayerCount: 2
Fore
SplineSet
593 0 m 1
 290 0 l 1
 290 25 l 1
 343 29 367 44 367 74 c 0
 367 79 366 83 365 89 c 2
 353 208 l 1
 138 208 l 1
 81 112 l 2
 70 94 64 77 64 62 c 0
 64 38 80 25 128 25 c 1
 128 0 l 1
 -67 0 l 1
 -68 25 l 1
 -31 29 -13 52 18 101 c 2
 388 683 l 1
 413 683 l 1
 507 123 l 2
 521 41 530 29 593 25 c 1
 593 0 l 1
346 248 m 1
 309 491 l 1
 161 248 l 1
 346 248 l 1
EndSplineSet
EndChar

StartChar: B
Encoding: 66 66 34
Width: 667
Flags: MW
HStem: 0 32<235.5 277> 649 20<118 383 383 463.5>
LayerCount: 2
Fore
SplineSet
118 669 m 1
 383 669 l 2
 544 669 624 619 624 523 c 0
 624 414 538 385 435 355 c 1
 435 354 l 1
 531 327 572 281 572 206 c 0
 572 72 460 0 277 0 c 2
 -25 0 l 1
 -25 25 l 1
 23 31 43 49 59 108 c 2
 178 546 l 2
 185 571 189 593 189 603 c 0
 189 642 157 644 118 644 c 1
 118 669 l 1
334 577 m 2
 277 368 l 1
 346 373 393 373 430 408 c 0
 460 436 477 480 477 536 c 0
 477 603 448 637 390 637 c 0
 358 637 349 633 334 577 c 2
269 338 m 1
 205 102 l 2
 200 83 198 73 198 65 c 0
 198 42 216 32 255 32 c 0
 308 32 345 53 376 91 c 0
 405 126 419 179 419 229 c 0
 419 266 407 296 384 314 c 0
 363 330 334 336 269 338 c 1
EndSplineSet
EndChar

StartChar: C
Encoding: 67 67 35
Width: 667
Flags: MW
HStem: -18 53<294 334.5> 650 35<439.5 460.5 393.5 508.5>
LayerCount: 2
Fore
SplineSet
677 685 m 1
 626 450 l 1
 594 456 l 1
 596 469 597 479 597 492 c 0
 597 585 551 650 466 650 c 0
 413 650 359 620 321 577 c 0
 244 490 186 357 186 209 c 0
 186 100 247 35 341 35 c 0
 428 35 479 78 545 154 c 1
 576 132 l 1
 544 88 527 69 498 47 c 0
 441 4 370 -18 299 -18 c 0
 136 -18 32 83 32 234 c 0
 32 382 94 510 191 592 c 0
 260 650 347 685 440 685 c 0
 481 685 526 678 571 664 c 0
 586 659 601 656 609 656 c 0
 624 656 633 663 647 685 c 1
 677 685 l 1
EndSplineSet
EndChar

StartChar: D
Encoding: 68 68 36
Width: 722
Flags: MW
HStem: 0 34<216 242> 638 31<356.5 384 384 428.5>
LayerCount: 2
Fore
SplineSet
94 669 m 1
 384 669 l 2
 573 669 685 568 685 405 c 0
 685 296 641 187 566 117 c 0
 487 44 375 0 242 0 c 2
 -46 0 l 1
 -46 25 l 1
 2 31 20 47 37 109 c 2
 152 531 l 2
 165 577 167 592 167 602 c 0
 167 626 158 635 128 639 c 2
 94 644 l 1
 94 669 l 1
318 600 m 2
 192 135 l 2
 181 96 177 80 177 68 c 0
 177 44 197 34 235 34 c 0
 322 34 391 68 445 139 c 0
 507 220 538 332 538 457 c 0
 538 579 484 638 373 638 c 0
 340 638 326 628 318 600 c 2
EndSplineSet
EndChar

StartChar: E
Encoding: 69 69 37
Width: 667
Flags: MW
HStem: 0 32<234.5 300 234.5 526> 637 32<380.5 431.5>
LayerCount: 2
Fore
SplineSet
653 669 m 1
 610 479 l 1
 583 484 l 1
 580 555 579 580 538 607 c 0
 508 626 462 637 401 637 c 0
 360 637 346 631 334 586 c 2
 275 370 l 1
 407 370 433 383 480 477 c 1
 508 473 l 1
 434 199 l 1
 406 203 l 1
 409 222 410 233 410 247 c 0
 410 316 379 338 266 338 c 1
 203 104 l 2
 198 84 195 73 195 66 c 0
 195 42 213 32 256 32 c 0
 344 32 413 51 470 93 c 0
 507 120 527 143 561 199 c 1
 586 194 l 1
 526 0 l 1
 -27 0 l 1
 -27 25 l 1
 25 33 38 44 55 105 c 2
 174 537 l 2
 183 570 186 592 186 607 c 0
 186 627 176 636 145 640 c 2
 112 644 l 1
 112 669 l 1
 653 669 l 1
EndSplineSet
EndChar

StartChar: F
Encoding: 70 70 38
Width: 667
Flags: MW
HStem: 0 20 637 32<392.5 455>
LayerCount: 2
Fore
SplineSet
660 669 m 1
 617 479 l 1
 590 484 l 1
 590 535 586 564 570 584 c 0
 538 624 497 637 413 637 c 0
 372 637 361 627 350 589 c 2
 289 370 l 1
 420 371 445 383 487 477 c 1
 515 473 l 1
 441 199 l 1
 413 204 l 1
 416 223 417 234 417 248 c 0
 417 316 387 336 280 338 c 1
 225 132 l 2
 217 102 210 82 210 69 c 0
 210 38 225 29 281 25 c 1
 281 0 l 1
 -13 0 l 1
 -13 25 l 1
 45 31 54 49 69 104 c 2
 190 546 l 2
 196 569 200 592 200 607 c 0
 200 627 189 636 158 640 c 2
 127 644 l 1
 127 669 l 1
 660 669 l 1
EndSplineSet
EndChar

StartChar: G
Encoding: 71 71 39
Width: 722
Flags: MW
HStem: -18 38<288 356> 649 36<427.5 471 397 488>
LayerCount: 2
Fore
SplineSet
705 330 m 1
 705 304 l 1
 655 300 645 290 623 208 c 2
 579 41 l 1
 551 28 l 2
 494 1 395 -18 317 -18 c 0
 141 -18 21 86 21 256 c 0
 21 386 84 510 184 593 c 0
 258 654 346 685 448 685 c 0
 494 685 529 679 572 664 c 0
 591 657 599 655 608 655 c 0
 628 655 639 663 650 685 c 1
 681 685 l 1
 630 464 l 1
 601 468 l 1
 599 529 593 559 577 587 c 0
 554 627 514 649 462 649 c 0
 393 649 333 607 289 551 c 0
 222 464 177 340 177 216 c 0
 177 86 235 20 341 20 c 0
 380 20 422 31 435 50 c 1
 466 154 l 2
 488 229 493 243 493 268 c 0
 493 277 487 288 481 292 c 0
 470 298 461 300 418 304 c 1
 418 330 l 1
 705 330 l 1
EndSplineSet
EndChar

StartChar: H
Encoding: 72 72 40
Width: 778
Flags: MW
HStem: 0 20 329 44<278 505 266 517> 649 20<116 432 432 432 502 799 799 799>
LayerCount: 2
Fore
SplineSet
799 669 m 1
 799 644 l 1
 750 644 731 623 717 570 c 2
 606 162 l 2
 591 105 584 81 584 66 c 0
 584 37 602 27 657 25 c 1
 657 0 l 1
 341 0 l 1
 341 25 l 1
 408 29 426 41 443 104 c 2
 505 329 l 1
 266 329 l 1
 212 132 l 2
 202 96 200 80 200 65 c 0
 200 50 207 30 271 25 c 1
 271 0 l 1
 -24 0 l 1
 -24 25 l 1
 26 32 41 41 57 99 c 2
 178 546 l 2
 186 574 189 592 189 604 c 0
 189 626 178 636 147 640 c 2
 116 644 l 1
 116 669 l 1
 432 669 l 1
 432 644 l 1
 367 642 348 629 330 564 c 2
 278 373 l 1
 517 373 l 1
 564 546 l 2
 569 565 574 595 574 607 c 0
 574 627 564 636 533 640 c 2
 502 644 l 1
 502 669 l 1
 799 669 l 1
EndSplineSet
EndChar

StartChar: I
Encoding: 73 73 41
Width: 389
Flags: MW
HStem: 0 20 649 20<108 406 406 406>
LayerCount: 2
Fore
SplineSet
406 669 m 1
 406 644 l 1
 357 639 339 627 322 564 c 2
 210 152 l 2
 196 101 193 81 193 65 c 0
 193 37 207 28 264 25 c 1
 264 0 l 1
 -32 0 l 1
 -32 25 l 1
 17 31 32 36 51 107 c 2
 168 536 l 2
 176 565 182 595 182 607 c 0
 182 627 167 637 140 640 c 2
 108 644 l 1
 108 669 l 1
 406 669 l 1
EndSplineSet
EndChar

StartChar: J
Encoding: 74 74 42
Width: 500
Flags: MW
HStem: -99 36<75.5 103.5 75.5 152> 649 20<226 524 524 524>
LayerCount: 2
Fore
SplineSet
524 669 m 1
 524 644 l 1
 475 638 459 633 439 559 c 2
 317 102 l 2
 281 -33 202 -99 102 -99 c 0
 14 -99 -46 -63 -46 2 c 0
 -46 42 -18 74 18 74 c 0
 53 74 81 49 81 9 c 0
 81 -22 58 -27 58 -45 c 0
 58 -57 66 -63 85 -63 c 0
 122 -63 136 -33 173 107 c 2
 287 539 l 2
 297 578 300 592 300 603 c 0
 300 621 289 634 259 639 c 2
 226 644 l 1
 226 669 l 1
 524 669 l 1
EndSplineSet
EndChar

StartChar: K
Encoding: 75 75 43
Width: 667
Flags: MW
HStem: 0 20 649 20<118 429 429 429 491 702 702 702>
LayerCount: 2
Fore
SplineSet
702 669 m 1
 702 644 l 1
 659 638 651 635 608 596 c 2
 392 397 l 1
 549 64 l 2
 560 40 574 29 612 25 c 1
 612 0 l 1
 332 0 l 1
 333 25 l 1
 359 29 l 2
 386 33 397 38 397 52 c 0
 397 64 392 79 382 101 c 2
 271 337 l 1
 204 88 l 2
 203 83 202 77 202 71 c 0
 202 38 215 29 267 25 c 1
 267 0 l 1
 -21 0 l 1
 -21 25 l 1
 24 30 44 40 58 93 c 2
 181 546 l 2
 189 574 192 592 192 604 c 0
 192 626 182 636 151 640 c 2
 118 644 l 1
 118 669 l 1
 429 669 l 1
 429 644 l 1
 370 639 349 624 335 572 c 2
 273 345 l 1
 470 520 l 2
 529 572 547 598 547 617 c 0
 547 632 537 640 512 642 c 2
 491 644 l 1
 491 669 l 1
 702 669 l 1
EndSplineSet
EndChar

StartChar: L
Encoding: 76 76 44
Width: 611
Flags: MW
HStem: 0 32<250.5 308 250.5 530> 649 20<117 435 435 435>
LayerCount: 2
Fore
SplineSet
590 195 m 1
 530 0 l 1
 -22 0 l 1
 -22 25 l 1
 33 32 45 49 60 103 c 2
 181 546 l 2
 186 565 192 595 192 607 c 0
 192 627 182 635 151 639 c 0
 140 641 127 643 117 644 c 1
 117 669 l 1
 435 669 l 1
 435 644 l 1
 369 640 350 627 336 574 c 2
 207 101 l 2
 203 85 201 70 201 62 c 0
 201 41 228 32 273 32 c 0
 343 32 400 46 451 77 c 0
 503 108 527 136 566 200 c 1
 590 195 l 1
EndSplineSet
EndChar

StartChar: M
Encoding: 77 77 45
Width: 889
Flags: MW
HStem: -12 20 0 20 649 20<121 340 340 340 705 917 917 917>
LayerCount: 2
Fore
SplineSet
917 669 m 1x60
 917 644 l 1
 866 638 850 625 833 563 c 2
 714 125 l 2
 709 108 704 80 704 68 c 0
 704 36 716 25 775 25 c 1
 775 0 l 1
 464 0 l 1x60
 464 25 l 1
 533 29 549 46 565 104 c 2
 688 561 l 1
 313 -12 l 1
 285 -12 l 1x80
 218 547 l 1
 117 178 l 2
 103 128 97 103 97 86 c 0
 97 41 113 31 177 25 c 1
 177 0 l 1
 -29 0 l 1
 -29 25 l 1
 25 37 38 58 74 182 c 2
 181 551 l 2
 188 577 192 595 192 609 c 0
 192 637 185 644 121 644 c 1
 121 669 l 1
 340 669 l 1
 394 189 l 1
 705 669 l 1
 917 669 l 1x60
EndSplineSet
EndChar

StartChar: N
Encoding: 78 78 46
Width: 722
Flags: MW
HStem: -15 20 0 20 649 20<112 305 305 305 540 748 748 748>
LayerCount: 2
Fore
SplineSet
748 669 m 1x60
 748 644 l 1
 692 633 682 620 646 491 c 2
 503 -15 l 1
 475 -15 l 1xa0
 218 532 l 1
 119 178 l 2
 107 136 100 103 100 84 c 0
 100 45 120 30 179 25 c 1
 179 0 l 1
 -27 0 l 1
 -27 25 l 1
 28 36 33 42 74 180 c 2
 194 587 l 1
 175 631 167 639 112 644 c 1
 112 669 l 1
 305 669 l 1
 521 202 l 1
 602 491 l 2
 613 532 621 566 621 585 c 0
 621 623 600 644 540 644 c 1
 540 669 l 1
 748 669 l 1x60
EndSplineSet
EndChar

StartChar: O
Encoding: 79 79 47
Width: 722
Flags: MW
HStem: -18 34<241.5 305 241.5 309.5> 651 34<414.5 476>
LayerCount: 2
Fore
SplineSet
691 444 m 0
 691 316 618 173 511 78 c 0
 441 16 356 -18 263 -18 c 0
 122 -18 27 66 27 221 c 0
 27 356 102 503 213 593 c 0
 285 651 365 685 449 685 c 0
 586 685 691 590 691 444 c 0
547 528 m 0
 547 611 506 651 446 651 c 0
 383 651 334 615 284 531 c 0
 224 430 171 262 171 143 c 0
 171 68 210 16 273 16 c 0
 337 16 381 57 430 130 c 0
 497 229 547 415 547 528 c 0
EndSplineSet
EndChar

StartChar: P
Encoding: 80 80 48
Width: 611
Flags: MW
HStem: 0 20 317 35<326.5 342 304.5 386> 637 32<365.5 394 394 409.5>
LayerCount: 2
Fore
SplineSet
112 669 m 1
 394 669 l 2
 541 669 613 615 613 514 c 0
 613 461 592 416 554 383 c 0
 506 341 432 317 340 317 c 0
 313 317 294 318 259 322 c 1
 205 123 l 2
 200 106 194 75 194 65 c 0
 194 38 210 28 266 25 c 1
 266 0 l 1
 -28 0 l 1
 -28 25 l 1
 24 33 38 42 56 107 c 2
 173 533 l 2
 184 572 186 592 186 607 c 0
 186 627 176 636 145 640 c 2
 112 644 l 1
 112 669 l 1
330 584 m 2
 269 355 l 1
 286 352 298 352 311 352 c 0
 373 352 407 370 434 414 c 0
 456 449 467 507 467 550 c 0
 467 603 436 637 383 637 c 0
 348 637 342 628 330 584 c 2
EndSplineSet
EndChar

StartChar: Q
Encoding: 81 81 49
Width: 722
Flags: MW
HStem: -208 90<375.5 509.5> 651 34<414.5 476>
LayerCount: 2
Fore
SplineSet
203 -17 m 1
 205 -13 l 1
 200 -11 197 -10 189 -7 c 0
 88 29 27 101 27 211 c 0
 27 361 101 504 207 592 c 0
 278 651 362 685 449 685 c 0
 589 685 691 587 691 452 c 0
 691 328 635 196 536 101 c 0
 449 17 393 -11 252 -17 c 1
 208 -64 l 1
 208 -67 l 1
 251 -69 321 -76 394 -102 c 0
 431 -115 452 -118 479 -118 c 0
 540 -118 576 -100 634 -40 c 1
 655 -59 l 1
 576 -174 505 -208 396 -208 c 0
 355 -208 322 -202 260 -182 c 0
 208 -166 185 -161 156 -161 c 0
 124 -161 98 -167 42 -189 c 1
 28 -165 l 1
 203 -17 l 1
547 532 m 0
 547 603 506 651 446 651 c 0
 383 651 332 613 284 532 c 0
 224 431 171 246 171 136 c 0
 171 63 210 17 273 17 c 0
 341 17 398 74 442 154 c 0
 499 259 547 426 547 532 c 0
EndSplineSet
EndChar

StartChar: R
Encoding: 82 82 50
Width: 667
Flags: MW
HStem: 0 20 637 32<374.5 396 396 416.5>
LayerCount: 2
Fore
SplineSet
110 669 m 1
 396 669 l 2
 543 669 623 622 623 526 c 0
 623 457 587 412 527 375 c 0
 503 360 477 352 431 343 c 1
 516 89 l 2
 532 40 547 30 603 25 c 1
 603 0 l 1
 401 0 l 1
 294 331 l 1
 264 331 l 1
 212 149 l 2
 198 101 194 81 194 67 c 0
 194 37 208 29 266 25 c 1
 266 0 l 1
 -28 0 l 1
 -28 25 l 1
 21 31 38 50 54 109 c 2
 174 546 l 2
 179 565 184 595 184 607 c 0
 184 627 175 638 142 641 c 2
 110 644 l 1
 110 669 l 1
330 583 m 2
 273 363 l 1
 335 364 374 371 400 388 c 0
 444 415 472 476 472 542 c 0
 472 603 443 637 390 637 c 0
 359 637 342 629 330 583 c 2
EndSplineSet
EndChar

StartChar: S
Encoding: 83 83 51
Width: 556
Flags: MW
HStem: -18 34<218 240 199 261> 650 35<294.5 347>
LayerCount: 2
Fore
SplineSet
526 681 m 1
 486 479 l 1
 459 483 l 1
 454 525 450 559 437 584 c 0
 414 630 373 650 321 650 c 0
 268 650 223 610 223 545 c 0
 223 485 259 459 330 408 c 0
 436 331 468 281 468 191 c 0
 468 107 427 41 358 7 c 0
 325 -9 284 -18 238 -18 c 0
 198 -18 165 -11 116 6 c 0
 93 14 80 17 70 17 c 0
 51 17 44 11 32 -18 c 1
 2 -18 l 1
 38 207 l 1
 67 205 l 1
 75 139 83 102 115 66 c 0
 142 35 177 16 221 16 c 0
 259 16 288 27 310 50 c 0
 333 73 347 97 347 142 c 0
 347 201 313 238 232 296 c 0
 151 354 102 410 102 494 c 0
 102 608 192 685 306 685 c 0
 394 685 414 655 452 655 c 0
 473 655 487 663 496 681 c 1
 526 681 l 1
EndSplineSet
EndChar

StartChar: T
Encoding: 84 84 52
Width: 611
Flags: MW
HStem: 0 20 649 20<99 650 650 650>
LayerCount: 2
Fore
SplineSet
650 669 m 1
 614 477 l 1
 587 479 l 1
 587 593 549 634 449 634 c 1
 314 145 l 2
 307 121 297 92 297 71 c 0
 297 42 320 25 380 25 c 1
 380 0 l 1
 49 0 l 1
 49 25 l 1
 64 25 l 2
 110 25 141 45 155 97 c 2
 303 634 l 1
 201 632 136 597 85 491 c 1
 60 498 l 1
 99 669 l 1
 650 669 l 1
EndSplineSet
EndChar

StartChar: U
Encoding: 85 85 53
Width: 722
Flags: MW
HStem: -18 56<289 327> 649 20<97 408 408 408 537 744 744 744>
LayerCount: 2
Fore
SplineSet
744 669 m 1
 744 644 l 1
 689 633 679 631 642 497 c 2
 577 263 l 2
 547 156 515 76 456 29 c 0
 417 -2 364 -18 290 -18 c 0
 159 -18 67 38 67 145 c 0
 67 185 81 246 104 334 c 2
 155 527 l 2
 165 564 170 593 170 605 c 0
 170 627 161 638 129 641 c 2
 97 644 l 1
 97 669 l 1
 408 669 l 1
 408 644 l 1
 346 641 330 627 314 568 c 2
 233 274 l 2
 207 180 205 167 205 139 c 0
 205 67 251 38 327 38 c 0
 382 38 421 55 450 85 c 0
 493 129 517 199 540 282 c 2
 597 491 l 2
 609 535 616 570 616 587 c 0
 616 623 594 644 537 644 c 1
 537 669 l 1
 744 669 l 1
EndSplineSet
EndChar

StartChar: V
Encoding: 86 86 54
Width: 667
Flags: MW
HStem: -18 20 649 20<66 362 362 362 524 715 715 715>
LayerCount: 2
Fore
SplineSet
715 669 m 1
 715 644 l 1
 685 638 665 619 653 600 c 2
 263 -18 l 1
 231 -18 l 1
 155 495 l 2
 135 631 128 644 66 644 c 1
 66 669 l 1
 362 669 l 1
 362 644 l 1
 294 638 287 633 287 599 c 0
 287 594 288 582 289 576 c 2
 339 182 l 1
 526 479 l 2
 569 548 589 586 589 608 c 0
 589 627 576 640 548 642 c 2
 524 644 l 1
 524 669 l 1
 715 669 l 1
EndSplineSet
EndChar

StartChar: W
Encoding: 87 87 55
Width: 889
Flags: MW
HStem: -18 20 649 20<64 342 342 342 401 668 668 668 753 940 940 940>
LayerCount: 2
Fore
SplineSet
940 669 m 1
 940 645 l 1
 898 639 885 630 852 563 c 2
 570 -18 l 1
 541 -18 l 1
 482 471 l 1
 249 -18 l 1
 220 -18 l 1
 142 554 l 2
 132 625 128 634 64 645 c 1
 64 669 l 1
 342 669 l 1
 342 644 l 1
 295 638 281 625 281 594 c 0
 281 588 281 580 282 575 c 2
 322 226 l 1
 471 540 l 1
 471 619 461 637 401 645 c 1
 401 669 l 1
 668 669 l 1
 668 644 l 1
 615 639 606 628 606 590 c 0
 606 578 609 556 613 517 c 2
 646 226 l 1
 801 553 l 2
 813 579 816 587 816 599 c 0
 816 635 809 640 753 644 c 1
 753 669 l 1
 940 669 l 1
EndSplineSet
EndChar

StartChar: X
Encoding: 88 88 56
Width: 667
Flags: MW
HStem: 0 20 649 20<99 404 404 404 492 694 694 694>
LayerCount: 2
Fore
SplineSet
694 669 m 1
 694 644 l 1
 658 639 638 628 595 583 c 2
 396 378 l 1
 471 141 l 2
 498 55 514 33 586 25 c 1
 586 0 l 1
 279 0 l 1
 279 25 l 1
 336 30 346 37 346 63 c 0
 346 85 335 126 309 204 c 2
 289 264 l 1
 159 120 l 2
 136 95 127 78 127 65 c 0
 127 42 145 29 190 25 c 1
 190 0 l 1
 -24 0 l 1
 -24 25 l 1
 32 35 58 72 207 235 c 2
 275 309 l 1
 192 578 l 2
 175 633 159 638 99 644 c 1
 99 669 l 1
 404 669 l 1
 404 644 l 1
 375 641 l 2
 342 638 330 631 330 608 c 0
 330 593 342 549 365 476 c 2
 382 421 l 1
 476 520 l 2
 528 575 546 600 546 618 c 0
 546 633 536 640 513 642 c 2
 492 644 l 1
 492 669 l 1
 694 669 l 1
EndSplineSet
EndChar

StartChar: Y
Encoding: 89 89 57
Width: 611
Flags: MW
HStem: 0 20 649 20<71 356 356 356 452 659 659 659>
LayerCount: 2
Fore
SplineSet
659 669 m 1
 659 644 l 1
 621 639 599 617 567 572 c 2
 378 308 l 1
 326 117 l 2
 321 97 316 80 316 66 c 0
 316 38 333 25 395 25 c 1
 395 0 l 1
 72 0 l 1
 72 25 l 1
 138 31 159 40 176 103 c 2
 233 311 l 1
 146 581 l 2
 130 629 123 633 71 644 c 1
 71 669 l 1
 356 669 l 1
 356 644 l 1
 301 642 287 635 287 605 c 0
 287 587 295 561 316 495 c 2
 362 352 l 1
 490 535 l 2
 511 565 518 584 518 602 c 0
 518 633 505 642 452 644 c 1
 452 669 l 1
 659 669 l 1
EndSplineSet
EndChar

StartChar: Z
Encoding: 90 90 58
Width: 611
Flags: MW
HStem: 0 35<155 230 230 276> 634 35<286.5 339 339 422>
LayerCount: 2
Fore
SplineSet
589 640 m 1
 155 35 l 1
 230 35 l 2
 322 35 377 47 429 85 c 0
 465 112 498 154 526 199 c 1
 553 194 l 1
 493 0 l 1
 -12 0 l 1
 -12 29 l 1
 422 634 l 1
 339 634 l 2
 234 634 171 598 92 487 c 1
 64 491 l 1
 122 669 l 1
 589 669 l 1
 589 640 l 1
EndSplineSet
EndChar

StartChar: bracketleft
Encoding: 91 91 59
Width: 333
Flags: MW
HStem: -159 35<111 182> 639 35<268 286 286 355>
LayerCount: 2
Fore
SplineSet
362 674 m 1
 355 639 l 1
 286 639 l 2
 250 639 247 633 233 573 c 2
 78 -94 l 2
 77 -97 77 -101 77 -103 c 0
 77 -118 90 -124 111 -124 c 2
 189 -124 l 1
 182 -159 l 1
 -37 -159 l 1
 162 674 l 1
 362 674 l 1
EndSplineSet
EndChar

StartChar: backslash
Encoding: 92 92 60
Width: 278
Flags: MW
HStem: -18 20 665 20<-1 84 84 84>
LayerCount: 2
Fore
SplineSet
279 -18 m 1
 195 -18 l 1
 -1 685 l 1
 84 685 l 1
 279 -18 l 1
EndSplineSet
EndChar

StartChar: bracketright
Encoding: 93 93 61
Width: 333
Flags: MW
HStem: -157 35<-49 19 19 37 -49 143 -56 19> 639 35<123 194 116 343>
LayerCount: 2
Fore
SplineSet
343 674 m 1
 143 -157 l 1
 -56 -157 l 1
 -49 -122 l 1
 19 -122 l 2
 55 -122 56 -117 70 -59 c 2
 227 608 l 2
 228 613 228 618 228 618 c 1
 228 631 214 639 194 639 c 2
 116 639 l 1
 123 674 l 1
 343 674 l 1
EndSplineSet
EndChar

StartChar: asciicircum
Encoding: 94 94 62
Width: 570
Flags: MW
HStem: 649 20<245 325 325 325>
LayerCount: 2
Fore
SplineSet
503 304 m 1
 414 304 l 1
 285 576 l 1
 156 304 l 1
 67 304 l 1
 245 669 l 1
 325 669 l 1
 503 304 l 1
EndSplineSet
EndChar

StartChar: underscore
Encoding: 95 95 63
Width: 500
Flags: MW
HStem: -125 50<0 500 0 500>
LayerCount: 2
Fore
SplineSet
500 -125 m 1
 0 -125 l 1
 0 -75 l 1
 500 -75 l 1
 500 -125 l 1
EndSplineSet
EndChar

StartChar: grave
Encoding: 96 96 64
Width: 333
Flags: W
LayerCount: 2
Fore
SplineSet
297 516 m 1
 251 516 l 1
 119 604 l 2
 97 619 85 636 85 652 c 0
 85 676 106 697 130 697 c 0
 149 697 168 688 186 664 c 2
 297 516 l 1
EndSplineSet
EndChar

StartChar: a
Encoding: 97 97 65
Width: 500
Flags: MW
HStem: -14 20 -13 71<54.5 158.5> 420 42<245 273.5 219.5 277>
LayerCount: 2
Fore
SplineSet
435 127 m 1x60
 456 112 l 1
 398 18 347 -14 300 -14 c 0x80
 263 -14 237 7 237 50 c 0
 237 64 239 78 251 119 c 1
 195 24 148 -13 87 -13 c 0
 22 -13 -21 38 -21 114 c 0
 -21 194 15 278 66 345 c 0
 119 415 187 462 252 462 c 0
 295 462 317 441 326 390 c 1
 327 390 l 1
 344 449 l 1
 455 456 l 1
 380 205 l 2
 356 126 350 97 350 72 c 0
 350 63 354 57 362 57 c 0
 378 57 394 72 435 127 c 1x60
303 373 m 0x60
 303 400 288 420 266 420 c 0
 224 420 186 362 158 305 c 0
 123 234 102 153 102 115 c 0
 102 75 119 58 145 58 c 0
 172 58 204 84 231 133 c 0
 270 202 303 313 303 373 c 0x60
EndSplineSet
EndChar

StartChar: b
Encoding: 98 98 66
Width: 500
Flags: MW
HStem: -13 33<131 160 131 208> 394 68<261.5 369>
LayerCount: 2
Fore
SplineSet
284 699 m 1
 193 373 l 1
 241 439 286 462 337 462 c 0
 401 462 444 404 444 331 c 0
 444 152 292 -13 124 -13 c 0
 58 -13 -14 11 -14 48 c 0
 -14 54 -4 93 6 129 c 2
 100 456 l 2
 127 550 139 599 139 612 c 0
 139 632 123 642 93 642 c 2
 74 642 l 1
 74 669 l 1
 163 679 214 686 284 699 c 1
319 325 m 0
 319 371 307 394 278 394 c 0
 245 394 212 365 186 310 c 0
 164 262 141 186 124 128 c 0
 114 94 109 55 109 47 c 0
 109 31 122 20 140 20 c 0
 180 20 214 48 248 98 c 0
 289 158 319 267 319 325 c 0
EndSplineSet
EndChar

StartChar: c
Encoding: 99 99 67
Width: 444
Flags: MW
HStem: -13 64<102.5 217.5> 429 33<250 275>
LayerCount: 2
Fore
SplineSet
318 142 m 1
 346 124 l 1
 308 72 276 28 231 5 c 0
 208 -7 181 -13 148 -13 c 0
 57 -13 -5 40 -5 138 c 0
 -5 230 38 315 100 377 c 0
 151 429 213 462 280 462 c 0
 340 462 392 425 392 372 c 0
 392 330 367 301 330 301 c 0
 296 301 272 324 272 354 c 0
 272 384 293 390 293 412 c 0
 293 422 281 429 269 429 c 0
 231 429 204 392 176 341 c 0
 143 280 123 207 123 140 c 0
 123 82 152 51 196 51 c 0
 239 51 270 75 318 142 c 1
EndSplineSet
EndChar

StartChar: d
Encoding: 100 100 68
Width: 500
Flags: MW
HStem: -13 72<54.5 158.5> -11 20 420 42<225.5 282>
LayerCount: 2
Fore
SplineSet
517 699 m 1xa0
 400 278 l 2
 365 152 349 84 349 75 c 0
 349 69 354 60 360 60 c 0
 375 60 400 86 428 131 c 1
 450 115 l 1
 395 27 349 -11 300 -11 c 0x40
 262 -11 240 12 240 50 c 0
 240 66 242 79 251 118 c 1
 199 24 146 -13 85 -13 c 0
 24 -13 -21 29 -21 112 c 0
 -21 211 37 324 110 394 c 0
 153 436 203 462 248 462 c 0
 277 462 301 454 323 429 c 1
 341 493 l 2
 366 581 370 606 370 615 c 0
 370 633 355 643 329 643 c 2
 308 643 l 1
 308 670 l 1
 408 678 457 685 517 699 c 1xa0
308 371 m 0xa0
 308 399 293 420 271 420 c 0
 228 421 186 366 157 308 c 0
 124 242 103 164 103 122 c 0
 103 86 119 59 144 59 c 0
 173 59 203 84 230 133 c 0
 266 197 308 327 308 371 c 0xa0
EndSplineSet
EndChar

StartChar: e
Encoding: 101 101 69
Width: 444
Flags: MW
HStem: -13 64<178 189.5> 429 33<251 287>
VStem: 306 92<353.5 400.5 353.5 401.5>
LayerCount: 2
Fore
SplineSet
317 143 m 1
 346 126 l 1
 290 26 228 -13 151 -13 c 0
 64 -13 5 35 5 134 c 0
 5 299 148 462 293 462 c 0
 358 462 398 426 398 375 c 0
 398 332 369 287 329 253 c 0
 286 217 238 199 141 182 c 1
 137 162 135 149 135 133 c 0
 135 79 157 51 199 51 c 0
 242 51 271 74 317 143 c 1
306 390 m 0
 306 413 299 429 275 429 c 0
 227 429 184 353 148 214 c 1
 238 234 306 307 306 390 c 0
EndSplineSet
EndChar

StartChar: f
Encoding: 102 102 70
Width: 333
Flags: MW
HStem: -205 31<-71 -48> 407 42<47 112 38 121 236 318> 669 29<327 349>
VStem: -169 85<-166 -110.5> 362 84<602.5 660>
LayerCount: 2
Fore
SplineSet
47 449 m 1
 121 449 l 1
 141 520 164 584 200 630 c 0
 234 672 279 698 347 698 c 0
 407 698 446 667 446 618 c 0
 446 587 426 564 395 564 c 0
 367 564 346 586 346 614 c 0
 346 637 362 642 362 656 c 0
 362 664 354 669 344 669 c 0
 310 669 276 613 252 515 c 2
 236 449 l 1
 327 449 l 1
 318 407 l 1
 229 407 l 1
 173 142 161 94 134 13 c 0
 103 -79 80 -124 44 -159 c 0
 12 -190 -26 -205 -70 -205 c 0
 -126 -205 -169 -174 -169 -126 c 0
 -169 -95 -145 -71 -118 -71 c 0
 -92 -71 -68 -91 -68 -120 c 0
 -68 -145 -84 -148 -84 -162 c 0
 -84 -170 -76 -174 -66 -174 c 0
 -26 -174 -7 -133 24 15 c 0
 30 44 62 187 112 407 c 1
 38 407 l 1
 47 449 l 1
EndSplineSet
EndChar

StartChar: g
Encoding: 103 103 71
Width: 500
Flags: MW
HStem: -203 34<114.5 184 114.5 212.5> 153 31<192.5 208.5 179.5 229.5> 373 56<411 477 411 411> 431 31<244 271.5>
VStem: -52 87<-114 -81.5 -114 -57.5>
LayerCount: 2
Fore
SplineSet
477 373 m 1
 411 373 l 1
 417 361 417 347 417 331 c 0
 417 278 392 232 346 199 c 0
 300 166 258 153 201 153 c 0
 184 153 162 157 150 161 c 1
 137 161 122 147 122 125 c 0
 122 109 144 92 176 84 c 2
 226 72 l 2
 336 46 375 10 375 -51 c 0
 375 -132 287 -203 138 -203 c 0
 23 -203 -52 -170 -52 -102 c 0
 -52 -13 28 5 81 7 c 1
 37 22 19 41 19 73 c 0
 19 110 40 140 115 170 c 1
 61 193 35 228 35 280 c 0
 35 384 130 462 253 462 c 0
 299 462 336 455 367 429 c 1
 477 429 l 1
 477 373 l 1
300 372 m 0
 300 407 288 431 255 431 c 0
 233 431 213 417 198 399 c 0
 165 358 151 289 151 243 c 0
 151 205 166 184 193 184 c 0
 224 184 250 207 271 253 c 0
 288 290 300 338 300 372 c 0
266 -100 m 0
 266 -76 252 -56 224 -42 c 0
 202 -32 127 -7 115 -6 c 1
 106 -7 77 -23 64 -36 c 0
 44 -55 35 -72 35 -91 c 0
 35 -137 81 -169 148 -169 c 0
 220 -169 266 -135 266 -100 c 0
EndSplineSet
EndChar

StartChar: h
Encoding: 104 104 72
Width: 556
Flags: MW
HStem: -9 20 0 20 390 72<319.5 423.5>
LayerCount: 2
Fore
SplineSet
476 142 m 1x60
 498 127 l 1
 432 24 392 -9 331 -9 c 0x80
 292 -9 265 15 265 55 c 0
 265 96 276 132 326 280 c 2
 346 339 l 2
 351 354 353 363 353 369 c 0
 353 385 345 390 333 390 c 0
 306 390 270 359 227 296 c 0
 178 224 159 175 108 0 c 1
 -13 0 l 1
 139 562 l 2
 145 584 149 600 149 609 c 0
 149 632 136 642 107 642 c 2
 85 642 l 1
 85 669 l 1
 166 676 217 684 294 699 c 1
 186 283 l 1
 285 424 331 462 399 462 c 0
 448 462 475 434 475 387 c 0
 475 368 466 331 446 269 c 2
 387 87 l 2
 384 79 384 78 384 75 c 0
 384 68 393 59 401 59 c 0
 414 59 433 80 476 142 c 1x60
EndSplineSet
EndChar

StartChar: i
Encoding: 105 105 73
Width: 278
Flags: MW
HStem: -9 20 550 134<176 212 176 213>
VStem: 128 134<599.5 634.5 597.5 636>
LayerCount: 2
Fore
SplineSet
262 616 m 0
 262 579 232 550 194 550 c 0
 156 550 128 580 128 619 c 0
 128 653 159 684 193 684 c 0
 231 684 262 653 262 616 c 0
216 142 m 1
 238 128 l 1
 172 20 130 -9 70 -9 c 0
 29 -9 2 11 2 54 c 0
 2 68 7 94 17 130 c 2
 72 333 l 2
 78 357 80 370 80 378 c 0
 80 397 64 407 34 407 c 2
 20 407 l 1
 20 434 l 1
 98 440 169 450 223 462 c 1
 132 128 l 2
 127 111 123 86 123 77 c 0
 123 65 130 61 138 61 c 0
 153 61 175 84 202 122 c 2
 216 142 l 1
EndSplineSet
EndChar

StartChar: j
Encoding: 106 106 74
Width: 278
Flags: MW
HStem: -207 31<-88 -68 -88 -34> 550 135<192.5 229 192.5 229>
VStem: -189 83<-166 -115.5> 144 135<599.5 635.5 598.5 636.5>
LayerCount: 2
Fore
SplineSet
279 617 m 0
 279 580 248 550 210 550 c 0
 173 550 144 580 144 619 c 0
 144 654 175 685 210 685 c 0
 248 685 279 654 279 617 c 0
239 462 m 1
 123 18 l 2
 81 -142 16 -207 -84 -207 c 0
 -147 -207 -189 -174 -189 -130 c 0
 -189 -101 -167 -77 -140 -77 c 0
 -111 -77 -91 -96 -91 -126 c 0
 -91 -147 -106 -147 -106 -161 c 0
 -106 -171 -94 -176 -82 -176 c 0
 -54 -176 -33 -140 -8 -40 c 2
 81 310 l 2
 89 340 93 364 93 377 c 0
 93 398 81 407 52 407 c 2
 30 407 l 1
 30 434 l 1
 142 444 179 449 239 462 c 1
EndSplineSet
EndChar

StartChar: k
Encoding: 107 107 75
Width: 500
Flags: MW
HStem: -8 71<280 372.5> 0 20
LayerCount: 2
Fore
SplineSet
483 449 m 1x40
 483 424 l 1
 437 418 416 410 348 348 c 2
 284 290 l 1
 323 95 341 63 363 63 c 0
 382 63 400 79 427 127 c 1
 449 116 l 1
 404 21 361 -8 311 -8 c 0x80
 249 -8 221 40 188 215 c 1
 149 188 l 1
 99 0 l 1
 -23 0 l 1
 134 566 l 2
 141 590 141 598 141 608 c 0
 141 636 131 642 111 642 c 2
 77 642 l 1
 77 669 l 1
 154 673 209 682 286 699 c 1
 162 238 l 1
 288 337 327 375 327 401 c 0
 327 417 316 422 277 424 c 1
 277 449 l 1
 483 449 l 1x40
EndSplineSet
EndChar

StartChar: l
Encoding: 108 108 76
Width: 278
Flags: MW
HStem: -9 20
LayerCount: 2
Fore
SplineSet
290 699 m 1
 145 176 l 2
 130 122 123 90 123 76 c 0
 123 68 128 61 138 61 c 0
 156 61 177 82 217 141 c 1
 239 127 l 1
 170 22 134 -9 70 -9 c 0
 29 -9 2 18 2 54 c 0
 2 77 16 138 36 209 c 2
 110 468 l 2
 131 541 144 589 144 613 c 0
 144 633 129 643 102 643 c 0
 97 643 91 643 80 642 c 1
 80 669 l 1
 155 676 204 683 290 699 c 1
EndSplineSet
EndChar

StartChar: m
Encoding: 109 109 77
Width: 778
Flags: MW
HStem: -9 20 0 20 389 73<311.5 409>
LayerCount: 2
Fore
SplineSet
701 135 m 1x60
 723 122 l 1
 671 25 624 -9 562 -9 c 0x80
 519 -9 495 11 495 57 c 0
 495 86 510 144 532 208 c 2
 576 338 l 2
 580 351 583 362 583 368 c 0
 583 379 572 389 560 389 c 0
 530 389 490 348 448 273 c 0
 412 210 405 192 347 0 c 1
 227 0 l 1
 292 207 l 2
 324 309 337 350 337 367 c 0
 337 383 329 389 319 389 c 0
 304 389 276 368 254 342 c 0
 197 274 160 189 107 0 c 1
 -14 0 l 1
 52 232 l 2
 80 329 88 367 88 382 c 0
 88 398 76 407 50 407 c 2
 32 407 l 1
 32 434 l 1
 145 443 169 446 232 461 c 1
 169 262 l 1
 170 262 l 1
 218 336 247 377 274 404 c 0
 306 436 348 462 388 462 c 0
 430 462 455 437 455 395 c 0
 455 367 449 342 429 290 c 1
 510 422 555 462 627 462 c 0
 675 462 704 432 704 391 c 0
 704 365 696 325 681 282 c 2
 636 154 l 2
 618 103 615 95 615 77 c 0
 615 65 622 59 631 59 c 0
 644 59 666 80 689 117 c 0
 693 124 697 130 701 135 c 1x60
EndSplineSet
EndChar

StartChar: n
Encoding: 110 110 78
Width: 556
Flags: MW
HStem: -9 20 0 20 442 20<382.5 426.5>
LayerCount: 2
Fore
SplineSet
472 135 m 1x60
 494 122 l 1
 439 25 394 -9 334 -9 c 0x80
 291 -9 266 10 266 51 c 0
 266 77 276 128 292 176 c 2
 347 341 l 2
 350 351 354 366 354 369 c 0
 354 386 342 390 329 390 c 0
 311 390 280 363 260 336 c 0
 198 255 161 174 115 0 c 1
 -6 0 l 1
 51 204 l 2
 84 324 96 371 96 383 c 0
 96 402 83 406 41 407 c 1
 41 434 l 1
 97 436 176 447 240 461 c 1
 178 263 l 1
 179 263 l 1
 246 362 264 386 301 421 c 0
 328 447 364 462 401 462 c 0
 452 462 474 434 474 385 c 0
 474 361 462 316 446 269 c 2
 411 165 l 2
 392 109 387 86 387 76 c 0
 387 66 393 59 401 59 c 0
 418 59 432 73 472 135 c 1x60
EndSplineSet
EndChar

StartChar: o
Encoding: 111 111 79
Width: 500
Flags: MW
HStem: -13 29<150 178 150 194.5> 442 20<280 284 284 332.5>
LayerCount: 2
Fore
SplineSet
280 462 m 2
 284 462 l 2
 381 462 441 403 441 311 c 0
 441 217 397 123 336 62 c 0
 287 13 228 -13 161 -13 c 0
 67 -13 -3 37 -3 135 c 0
 -3 235 37 326 97 385 c 0
 148 435 212 462 280 462 c 2
322 372 m 0
 322 410 304 433 275 433 c 0
 254 433 234 423 215 402 c 0
 155 335 116 182 116 80 c 0
 116 36 135 16 165 16 c 0
 191 16 215 31 236 65 c 0
 285 145 322 285 322 372 c 0
EndSplineSet
EndChar

StartChar: p
Encoding: 112 112 80
Width: 500
Flags: MW
HStem: -13 35<158.5 163 141 240> 391 71<214 294>
LayerCount: 2
Fore
SplineSet
177 347 m 1
 178 347 l 1
 234 434 279 462 336 462 c 0
 408 462 446 415 446 341 c 0
 446 156 311 -13 169 -13 c 0
 148 -13 123 -7 101 9 c 1
 89 -32 l 2
 70 -98 65 -132 65 -146 c 0
 65 -170 80 -177 130 -178 c 1
 130 -205 l 1
 -120 -205 l 1
 -120 -178 l 1
 -72 -178 -61 -168 -42 -92 c 2
 54 288 l 2
 67 340 76 372 76 382 c 0
 76 401 67 405 22 407 c 1
 22 434 l 1
 74 440 112 446 214 462 c 1
 177 347 l 1
321 336 m 0
 321 376 306 391 282 391 c 0
 251 391 221 359 195 320 c 0
 177 293 173 280 151 207 c 0
 124 116 113 75 113 58 c 0
 113 38 130 22 152 22 c 0
 174 22 195 34 214 52 c 0
 281 118 321 275 321 336 c 0
EndSplineSet
EndChar

StartChar: q
Encoding: 113 113 81
Width: 500
Flags: MW
HStem: -13 72<70.5 180.5> 419 43<270.5 284.5 235 301.5>
LayerCount: 2
Fore
SplineSet
471 449 m 1
 342 -12 l 2
 322 -85 306 -139 306 -150 c 0
 306 -170 323 -178 355 -178 c 2
 372 -178 l 1
 372 -205 l 1
 104 -205 l 1
 104 -178 l 1
 165 -178 179 -165 196 -109 c 2
 257 98 l 1
 213 16 163 -13 103 -13 c 0
 38 -13 1 35 1 117 c 0
 1 172 20 234 55 295 c 0
 114 398 197 462 273 462 c 0
 296 462 320 453 330 440 c 0
 339 429 342 418 347 390 c 1
 362 449 l 1
 471 449 l 1
325 371 m 0
 325 399 313 419 290 419 c 0
 251 419 204 354 179 304 c 0
 147 238 126 164 126 116 c 0
 126 78 139 59 165 59 c 0
 196 59 224 83 253 133 c 0
 288 195 325 313 325 371 c 0
EndSplineSet
EndChar

StartChar: r
Encoding: 114 114 82
Width: 389
Flags: MW
HStem: 0 20 442 20<225 225 305 349>
LayerCount: 2
Fore
SplineSet
160 253 m 1
 161 253 l 1
 240 412 278 462 332 462 c 0
 366 462 389 436 389 396 c 0
 389 354 364 323 331 323 c 0
 292 323 290 361 270 361 c 0
 256 361 232 334 205 285 c 0
 179 238 164 204 131 99 c 2
 100 0 l 1
 -21 0 l 1
 50 240 81 357 81 382 c 0
 81 401 69 407 25 407 c 1
 25 434 l 1
 146 444 165 447 225 462 c 1
 160 253 l 1
EndSplineSet
EndChar

StartChar: s
Encoding: 115 115 83
Width: 389
Flags: MW
HStem: -13 30<120.5 143 97.5 172> 429 33<179 191 140.5 218>
VStem: 47 95<364.5 376>
LayerCount: 2
Fore
SplineSet
333 461 m 1
 310 307 l 1
 283 309 l 1
 267 392 241 429 195 429 c 0
 163 429 142 408 142 376 c 0
 142 353 160 322 199 277 c 0
 259 207 279 163 279 115 c 0
 279 40 213 -13 131 -13 c 0
 110 -13 89 -10 67 -1 c 0
 54 4 44 7 37 7 c 0
 24 7 14 1 8 -13 c 1
 -19 -13 l 1
 3 153 l 1
 30 150 l 1
 41 62 72 17 123 17 c 0
 163 17 183 39 183 71 c 0
 183 101 167 130 127 175 c 0
 59 252 47 282 47 336 c 0
 47 416 100 462 181 462 c 0
 201 462 222 458 239 450 c 0
 256 442 266 440 276 440 c 0
 291 440 295 444 304 461 c 1
 333 461 l 1
EndSplineSet
EndChar

StartChar: t
Encoding: 116 116 84
Width: 278
Flags: MW
HStem: -9 20 407 42<209 281 209 281 198 281>
LayerCount: 2
Fore
SplineSet
281 407 m 1
 198 407 l 1
 164 288 l 2
 129 166 111 103 111 79 c 0
 111 66 119 61 127 61 c 0
 143 61 169 88 203 141 c 1
 226 126 l 1
 160 23 116 -9 56 -9 c 0
 14 -9 -11 12 -11 56 c 0
 -11 74 -1 119 14 171 c 2
 81 407 l 1
 29 407 l 1
 29 442 l 1
 111 470 159 509 213 594 c 1
 248 594 l 1
 209 449 l 1
 281 449 l 1
 281 407 l 1
EndSplineSet
EndChar

StartChar: u
Encoding: 117 117 85
Width: 556
Flags: MW
HStem: -9 72<68 167> 442 20<243 243>
LayerCount: 2
Fore
SplineSet
471 133 m 1
 493 120 l 1
 441 31 394 -9 334 -9 c 0
 290 -9 266 10 266 51 c 0
 266 80 274 106 292 161 c 1
 291 161 l 1
 197 23 158 -9 93 -9 c 0
 43 -9 15 17 15 70 c 0
 15 95 23 126 37 176 c 2
 74 304 l 2
 82 333 91 363 91 379 c 0
 91 394 79 404 33 407 c 1
 33 434 l 1
 84 435 182 449 243 462 c 1
 150 160 l 2
 136 115 134 103 134 88 c 0
 134 71 144 63 158 63 c 0
 176 63 198 79 228 118 c 0
 286 194 316 249 370 449 c 1
 488 449 l 1
 410 183 l 2
 397 137 385 92 385 80 c 0
 385 70 388 59 399 59 c 0
 416 59 436 79 471 133 c 1
EndSplineSet
EndChar

StartChar: v
Encoding: 118 118 86
Width: 444
Flags: MW
HStem: -13 20 442 20<325 359>
LayerCount: 2
Fore
SplineSet
15 408 m 1
 15 435 l 1
 97 446 122 450 171 462 c 1
 192 395 202 316 202 128 c 1
 301 241 328 282 328 317 c 0
 328 328 323 336 308 353 c 0
 290 373 283 389 283 406 c 0
 283 437 310 462 340 462 c 0
 378 462 401 430 401 395 c 0
 401 353 381 299 341 241 c 0
 286 161 238 108 111 -13 c 1
 85 -13 l 1
 90 78 90 160 90 164 c 0
 90 272 81 357 65 389 c 0
 58 402 46 408 15 408 c 1
EndSplineSet
EndChar

StartChar: w
Encoding: 119 119 87
Width: 667
Flags: MW
HStem: -13 20 442 20<360 387 387 387 538 569.5>
VStem: 538 76<301 416.5>
LayerCount: 2
Fore
SplineSet
387 462 m 1
 418 129 l 1
 506 232 538 286 538 316 c 0
 538 326 532 338 518 354 c 0
 501 373 496 387 496 402 c 0
 496 442 523 462 553 462 c 0
 586 462 614 433 614 400 c 0
 614 316 525 177 342 -13 c 1
 315 -13 l 1
 292 272 l 1
 258 209 222 137 178 71 c 2
 122 -13 l 1
 95 -13 l 1
 95 33 l 2
 95 46 96 65 96 95 c 0
 96 216 78 379 58 397 c 0
 50 404 40 407 15 407 c 1
 15 434 l 1
 95 447 130 453 171 462 c 1
 194 376 204 308 204 188 c 1
 260 289 276 317 360 462 c 1
 387 462 l 1
EndSplineSet
EndChar

StartChar: x
Encoding: 120 120 88
Width: 500
Flags: MW
HStem: -13 77<245 342> -13 94<-1 80> 368 94
LayerCount: 2
Fore
SplineSet
41 438 m 1x40
 206 462 l 1
 225 434 237 409 253 324 c 1
 331 438 364 462 411 462 c 0
 442 462 469 433 469 401 c 0
 469 372 443 348 413 348 c 0
 389 348 379 368 356 368 c 0
 333 368 296 331 264 274 c 1
 296 117 l 2
 304 78 314 64 333 64 c 0
 351 64 361 73 400 123 c 1
 421 109 l 1
 360 21 318 -13 270 -13 c 0xa0
 220 -13 195 27 173 142 c 1
 149 103 l 2
 90 7 68 -13 18 -13 c 0
 -20 -13 -45 11 -45 46 c 0
 -45 78 -22 103 9 103 c 0
 39 103 50 81 71 81 c 0
 89 81 97 87 118 121 c 2
 162 192 l 1
 133 344 l 2
 124 393 108 413 76 413 c 0
 67 413 60 413 41 411 c 1
 41 438 l 1x40
EndSplineSet
EndChar

StartChar: y
Encoding: 121 121 89
Width: 444
Flags: MW
HStem: -205 80<-49.5 58.5> 442 20<311.5 346.5>
VStem: 328 64<301.5 415>
LayerCount: 2
Fore
SplineSet
239 110 m 1
 241 110 l 1
 311 244 328 286 328 317 c 0
 328 330 321 336 303 351 c 0
 281 369 272 380 272 405 c 0
 272 430 293 462 330 462 c 0
 363 462 392 432 392 398 c 0
 392 297 273 60 143 -99 c 0
 88 -166 23 -205 -32 -205 c 0
 -67 -205 -94 -179 -94 -145 c 0
 -94 -116 -70 -89 -44 -89 c 0
 3 -89 14 -125 50 -125 c 0
 67 -125 96 -103 117 -73 c 0
 134 -49 142 -25 142 -2 c 0
 142 29 126 124 92 286 c 0
 79 345 68 383 52 399 c 0
 41 410 37 411 12 411 c 1
 12 438 l 1
 77 444 114 450 162 462 c 1
 180 415 210 313 228 188 c 2
 239 110 l 1
EndSplineSet
EndChar

StartChar: z
Encoding: 122 122 90
Width: 389
Flags: MW
HStem: -78 29<226.5 247.5 226.5 266.5>
VStem: 263 83<-36.5 27>
LayerCount: 2
Fore
SplineSet
368 439 m 1
 87 104 l 1
 126 87 148 69 173 35 c 0
 194 6 212 -49 241 -49 c 0
 254 -49 263 -41 263 -32 c 0
 263 -16 243 -15 243 13 c 0
 243 41 266 66 293 66 c 0
 321 66 346 41 346 13 c 0
 346 -49 297 -78 236 -78 c 0
 195 -78 156 -63 107 -28 c 0
 72 -3 53 5 33 5 c 0
 22 5 16 2 1 -9 c 0
 -5 -14 -11 -19 -18 -23 c 1
 -43 -1 l 1
 249 353 l 1
 113 353 l 2
 76 353 55 339 40 292 c 1
 13 295 l 1
 57 449 l 1
 368 449 l 1
 368 439 l 1
EndSplineSet
EndChar

StartChar: braceleft
Encoding: 123 123 91
Width: 348
Flags: MW
HStem: 666 20<356.5 436>
LayerCount: 2
Fore
SplineSet
436 686 m 1
 433 674 l 1
 351 659 315 626 295 550 c 2
 250 379 l 2
 228 294 196 268 98 249 c 1
 173 229 191 215 191 173 c 0
 191 150 181 103 162 43 c 0
 143 -20 132 -70 132 -97 c 0
 132 -143 154 -164 213 -175 c 1
 210 -187 l 1
 71 -184 28 -162 28 -96 c 0
 28 -66 44 7 63 63 c 0
 79 112 89 155 89 179 c 0
 89 214 66 233 4 249 c 1
 93 268 123 290 142 365 c 2
 188 544 l 2
 216 653 277 686 436 686 c 1
EndSplineSet
EndChar

StartChar: bar
Encoding: 124 124 92
Width: 220
Flags: MW
HStem: -18 20 665 20<66 154 154 154>
VStem: 66 88<-18 685>
LayerCount: 2
Fore
SplineSet
154 -18 m 1
 66 -18 l 1
 66 685 l 1
 154 685 l 1
 154 -18 l 1
EndSplineSet
EndChar

StartChar: braceright
Encoding: 125 125 93
Width: 348
Flags: MW
HStem: 666 20<97 97>
LayerCount: 2
Fore
SplineSet
94 674 m 1
 97 686 l 1
 191 684 230 676 255 654 c 0
 271 640 279 621 279 598 c 0
 279 567 263 493 244 436 c 0
 228 387 218 344 218 320 c 0
 218 285 241 266 303 250 c 1
 214 230 184 206 165 134 c 2
 119 -45 l 2
 91 -156 30 -187 -129 -187 c 1
 -126 -175 l 1
 -44 -160 -8 -127 12 -51 c 2
 57 120 l 2
 79 205 111 231 209 250 c 1
 134 270 116 284 116 326 c 0
 116 349 124 390 144 456 c 0
 164 525 175 571 175 597 c 0
 175 641 152 663 94 674 c 1
EndSplineSet
EndChar

StartChar: asciitilde
Encoding: 126 126 94
Width: 570
Flags: MW
HStem: 175 88<384 405 384 416> 243 88<161.5 193 150 193.5>
LayerCount: 2
Fore
SplineSet
461 308 m 1x80
 516 260 l 1
 470 196 439 175 393 175 c 0x80
 360 175 333 182 288 208 c 0
 242 234 211 243 176 243 c 0
 147 243 131 233 107 201 c 1
 54 247 l 1
 87 305 125 331 175 331 c 0x40
 211 331 235 324 311 290 c 0
 360 268 375 263 393 263 c 0
 417 263 436 276 461 308 c 1x80
EndSplineSet
EndChar

StartChar: exclamdown
Encoding: 161 161 96
Width: 389
Flags: MW
HStem: 348 146<227.5 267.5>
VStem: 174 146<403 443>
LayerCount: 2
Fore
SplineSet
320 423 m 0
 320 381 288 348 247 348 c 0
 208 348 174 383 174 423 c 0
 174 463 207 494 248 494 c 0
 290 494 320 464 320 423 c 0
193 275 m 1
 222 267 l 1
 192 113 174 -11 169 -87 c 0
 167 -128 165 -141 157 -159 c 0
 143 -188 119 -205 88 -205 c 0
 46 -205 19 -176 19 -131 c 0
 19 -105 25 -91 50 -43 c 0
 107 66 151 166 193 275 c 1
EndSplineSet
EndChar

StartChar: cent
Encoding: 162 162 97
Width: 500
Flags: MW
HStem: 429 33<301.5 323.5>
LayerCount: 2
Fore
SplineSet
431 576 m 1
 386 449 l 1
 422 429 439 404 439 370 c 0
 439 331 411 302 374 302 c 0
 360 302 349 305 339 313 c 1
 247 52 l 1
 289 54 324 81 365 141 c 1
 392 123 l 1
 329 33 292 3 225 -10 c 1
 178 -143 l 1
 144 -143 l 1
 190 -13 l 1
 96 -7 42 48 42 138 c 0
 42 299 185 462 327 462 c 0
 336 462 343 461 355 459 c 1
 396 576 l 1
 431 576 l 1
339 413 m 1
 339 415 l 1
 338 424 330 429 317 429 c 0
 286 429 259 406 231 356 c 0
 195 292 169 205 169 147 c 0
 169 103 183 75 214 57 c 1
 339 413 l 1
EndSplineSet
EndChar

StartChar: sterling
Encoding: 163 163 98
Width: 500
Flags: MW
HStem: -12 20 -11 30<37.5 69 37.5 79.5> 120 42<35.5 60> 310 60<45 144 35 150 280 384> 649 34<372.5 386>
VStem: -32 30<55 85 55 101>
LayerCount: 2
Fore
SplineSet
45 370 m 1x74
 150 370 l 1
 175 494 199 552 248 607 c 1
 290 656 344 683 401 683 c 0
 464 683 510 644 510 592 c 0
 510 554 484 524 449 524 c 0
 419 524 396 546 396 575 c 0
 396 585 398 597 400 609 c 0
 402 616 403 623 403 628 c 0
 403 640 393 649 379 649 c 0
 350 649 329 622 319 572 c 2
 280 370 l 1
 394 370 l 1
 384 310 l 1
 269 310 l 1
 256 252 232 183 205 141 c 2
 194 124 l 1
 253 101 286 92 319 92 c 0
 367 92 387 106 409 155 c 1
 434 155 l 1
 422 97 410 69 389 41 c 0
 363 8 324 -12 283 -12 c 0x9c
 241 -12 207 4 156 49 c 1
 129 6 101 -11 58 -11 c 0
 5 -11 -32 24 -32 75 c 0
 -32 127 7 162 64 162 c 0
 85 162 99 159 125 148 c 1
 132 214 134 227 144 310 c 1
 35 310 l 1
 45 370 l 1x74
113 90 m 1x64
 89 112 71 120 49 120 c 0
 18 120 -2 100 -2 70 c 0
 -2 40 21 19 54 19 c 0
 84 19 102 41 113 90 c 1x64
EndSplineSet
EndChar

StartChar: currency
Encoding: 164 164 99
Width: 500
Flags: MW
HStem: -10 20 51 82<228 272> 399 82<227 273.5 227 285.5>
VStem: 35 88<242.5 289> 377 88<242.5 289 242.5 302>
LayerCount: 2
Fore
SplineSet
526 48 m 1
 468 -10 l 1
 372 88 l 1
 330 62 294 51 250 51 c 0
 206 51 170 62 128 88 c 1
 32 -10 l 1
 -26 48 l 1
 72 146 l 1
 46 185 35 219 35 266 c 0
 35 312 46 348 72 388 c 1
 -26 486 l 1
 32 542 l 1
 128 446 l 1
 168 471 204 481 250 481 c 0
 297 481 332 471 372 446 c 1
 468 542 l 1
 526 486 l 1
 428 388 l 1
 455 345 465 312 465 266 c 0
 465 219 454 182 428 146 c 1
 526 48 l 1
377 264 m 0
 377 340 321 399 250 399 c 0
 179 399 123 341 123 266 c 0
 123 192 179 133 250 133 c 0
 319 133 377 193 377 264 c 0
EndSplineSet
EndChar

StartChar: yen
Encoding: 165 165 100
Width: 500
Flags: MW
HStem: 0 20 164 50<47 174 33 188 320 458> 292 50<82 207 82 210 68 207 369 491> 649 20<46 326 326 326 428 628 628 628>
LayerCount: 2
Fore
SplineSet
628 669 m 1
 628 644 l 1
 588 636 567 619 535 575 c 2
 369 342 l 1
 504 342 l 1
 491 292 l 1
 341 292 l 1
 320 214 l 1
 472 214 l 1
 458 164 l 1
 306 164 l 1
 303 153 l 2
 291 109 287 87 287 68 c 0
 287 35 301 28 368 25 c 1
 368 0 l 1
 46 0 l 1
 46 25 l 1
 123 30 139 42 155 97 c 2
 174 164 l 1
 33 164 l 1
 47 214 l 1
 188 214 l 1
 210 292 l 1
 68 292 l 1
 82 342 l 1
 207 342 l 1
 128 581 l 2
 111 633 101 637 46 644 c 1
 46 669 l 1
 326 669 l 1
 326 644 l 1
 269 642 251 635 251 612 c 0
 251 603 253 592 257 580 c 2
 337 344 l 1
 472 538 l 2
 493 568 498 580 498 598 c 0
 498 633 484 642 428 644 c 1
 428 669 l 1
 628 669 l 1
EndSplineSet
EndChar

StartChar: brokenbar
Encoding: 166 166 101
Width: 220
Flags: MW
HStem: -18 20 665 20<66 154 154 154>
VStem: 66 88<-18 241 426 685>
LayerCount: 2
Fore
SplineSet
154 426 m 1
 66 426 l 1
 66 685 l 1
 154 685 l 1
 154 426 l 1
154 -18 m 1
 66 -18 l 1
 66 241 l 1
 154 241 l 1
 154 -18 l 1
EndSplineSet
EndChar

StartChar: section
Encoding: 167 167 102
Width: 500
Flags: MW
HStem: -143 23<165 207.5 165 227> 121 27<286 321 313 321 294.5 350> 400 25<143 224> 663 22<298 338.5>
VStem: 36 79<-98.5 -20.5> 68 71<331.5 341> 168 70<574 590.5> 268 77<-46.5 -27.5> 364 71<202.5 239.5> 382 77<569.5 642.5>
LayerCount: 2
Fore
SplineSet
221 419 m 1xf5
 223 422 l 1
 187 462 168 507 168 551 c 0
 168 630 231 685 323 685 c 0
 402 685 459 644 459 587 c 0
 459 552 434 525 401 525 c 0
 371 525 346 550 346 580 c 0
 346 620 382 617 382 635 c 0xf240
 382 650 354 663 323 663 c 0
 273 663 238 633 238 590 c 0
 238 558 257 527 307 468 c 2
 376 387 l 2
 415 342 435 290 435 243 c 0
 435 162 382 121 318 121 c 0
 308 121 300 122 288 125 c 1
 286 121 l 1
 329 67 345 33 345 -9 c 0
 345 -84 273 -143 181 -143 c 0
 99 -143 36 -97 36 -38 c 0
 36 -3 60 23 94 23 c 0
 127 23 150 1 150 -28 c 0
 150 -60 115 -63 115 -91 c 0xfb80
 115 -106 148 -120 182 -120 c 0
 233 -120 268 -89 268 -44 c 0
 268 -11 255 7 184 93 c 2
 118 173 l 2
 83 216 68 256 68 299 c 0
 68 383 114 425 172 425 c 0
 185 425 208 422 221 419 c 1xf5
364 206 m 0xf680
 364 273 253 400 195 400 c 0
 163 400 139 375 139 342 c 0
 139 321 150 291 168 266 c 0
 193 231 225 194 247 175 c 0
 270 155 284 148 305 148 c 0
 337 148 364 175 364 206 c 0xf680
EndSplineSet
EndChar

StartChar: dieresis
Encoding: 168 168 103
Width: 333
Flags: MW
HStem: 525 130<102 137 314 349>
VStem: 55 130<572 607> 267 130<572 607>
LayerCount: 2
Fore
SplineSet
397 589 m 0
 397 554 367 525 331 525 c 0
 297 525 267 555 267 589 c 0
 267 625 296 655 331 655 c 0
 367 655 397 625 397 589 c 0
185 589 m 0
 185 554 155 525 119 525 c 0
 85 525 55 555 55 589 c 0
 55 625 84 655 119 655 c 0
 155 655 185 625 185 589 c 0
EndSplineSet
EndChar

StartChar: copyright
Encoding: 169 169 104
Width: 747
Flags: MW
HStem: -18 46<294.5 450 294.5 468.5> 140 23<359 411> 518 20<357 423 337 430.5> 639 46<296.5 451.5>
VStem: 30 61<250.5 417 250.5 430.5> 180 85<284.5 396.5> 657 61<249 417>
LayerCount: 2
Fore
SplineSet
544 250 m 1
 527 178 l 2
 525 168 524 167 515 164 c 1
 510 161 506 160 463 149 c 0
 435 141 425 140 397 140 c 0
 262 140 180 213 180 335 c 0
 180 458 269 538 405 538 c 0
 441 538 469 533 505 520 c 0
 520 514 527 508 527 499 c 2
 527 428 l 1
 510 428 l 1
 497 489 461 518 400 518 c 0
 314 518 265 454 265 342 c 0
 265 227 315 163 403 163 c 0
 461 163 497 189 526 250 c 1
 544 250 l 1
718 334 m 0
 718 134 568 -18 369 -18 c 0
 182 -18 30 139 30 332 c 0
 30 529 182 685 374 685 c 0
 566 685 718 530 718 334 c 0
657 334 m 0
 657 500 529 639 374 639 c 0
 219 639 91 501 91 333 c 0
 91 168 219 28 370 28 c 0
 530 28 657 164 657 334 c 0
EndSplineSet
EndChar

StartChar: ordfeminine
Encoding: 170 170 105
Width: 266
Flags: MW
HStem: 400 45<65 128> 442 20 658 27<198 204>
VStem: 16 78<465.5 506 465.5 524> 185 77<427 459>
LayerCount: 2
Fore
SplineSet
330 680 m 1xb8
 284 540 l 2
 268 492 262 467 262 451 c 0
 262 445 264 442 267 442 c 0x58
 274 442 289 455 308 478 c 2
 313 484 l 1
 326 475 l 1
 288 422 259 399 229 399 c 0
 205 399 185 417 185 437 c 0
 185 448 186 454 196 488 c 1
 159 423 130 400 86 400 c 0
 44 400 16 431 16 476 c 0
 16 572 113 685 196 685 c 0
 222 685 236 672 243 640 c 1
 254 676 l 1
 330 680 l 1xb8
218 630 m 0xb8
 218 645 210 658 198 658 c 0
 163 659 94 539 94 473 c 0
 94 458 105 445 118 445 c 0
 138 445 161 468 182 507 c 0
 201 544 218 602 218 630 c 0xb8
EndSplineSet
EndChar

StartChar: guillemotleft
Encoding: 171 171 106
Width: 500
Flags: W
LayerCount: 2
Fore
SplineSet
197 226 m 1
 367 350 l 2
 391 367 401 375 414 387 c 0
 433 406 447 415 455 415 c 0
 462 415 468 409 468 403 c 0
 468 382 438 342 367 269 c 0
 350 251 342 240 322 220 c 1
 362 137 l 2
 385 89 395 62 395 47 c 0
 395 39 389 32 380 32 c 0
 375 32 372 34 365 42 c 0
 341 69 282 130 197 217 c 1
 197 226 l 1
12 226 m 1
 182 350 l 2
 206 367 216 375 229 387 c 0
 248 406 262 415 270 415 c 0
 277 415 283 409 283 403 c 0
 283 382 253 342 182 269 c 0
 165 251 155 241 137 220 c 1
 177 137 l 2
 200 89 210 62 210 47 c 0
 210 39 204 32 195 32 c 0
 190 32 187 34 180 42 c 0
 156 69 97 130 12 217 c 1
 12 226 l 1
EndSplineSet
EndChar

StartChar: logicalnot
Encoding: 172 172 107
Width: 606
Flags: MW
HStem: 311 88<51 467 51 555>
VStem: 467 88<108 311 311 311>
LayerCount: 2
Fore
SplineSet
555 108 m 1
 467 108 l 1
 467 311 l 1
 51 311 l 1
 51 399 l 1
 555 399 l 1
 555 108 l 1
EndSplineSet
EndChar

StartChar: uni00AD
Encoding: 173 173 108
Width: 333
Flags: W
LayerCount: 2
Fore
SplineSet
271 282 m 1
 248 166 l 1
 2 166 l 1
 26 282 l 1
 271 282 l 1
EndSplineSet
EndChar

StartChar: registered
Encoding: 174 174 109
Width: 747
Flags: MW
HStem: -18 46<294.5 450 294.5 468.5> 317 20<328 369 369 372 328 369> 506 21<328 368 328 328> 639 46<296.5 451.5>
VStem: 30 61<250.5 417 250.5 430.5> 257 71<216 317 337 463 463 484> 437 73<407.5 454> 657 61<249 417>
LayerCount: 2
Fore
SplineSet
562 151 m 1
 492 151 l 2
 474 151 458 170 424 232 c 0
 406 264 395 282 372 317 c 1
 328 317 l 1
 328 216 l 2
 328 173 328 172 376 167 c 1
 376 151 l 1
 210 151 l 1
 210 167 l 1
 257 172 257 173 257 216 c 2
 257 463 l 2
 257 505 257 506 210 511 c 1
 210 527 l 1
 393 527 l 2
 465 527 510 491 510 432 c 0
 510 383 483 348 429 328 c 1
 488 246 l 2
 519 202 541 178 562 162 c 1
 562 151 l 1
328 337 m 1
 369 337 l 2
 413 337 437 370 437 428 c 0
 437 480 414 506 368 506 c 2
 328 506 l 1
 328 337 l 1
718 334 m 0
 718 134 568 -18 369 -18 c 0
 182 -18 30 139 30 332 c 0
 30 529 182 685 374 685 c 0
 566 685 718 530 718 334 c 0
657 334 m 0
 657 500 529 639 374 639 c 0
 219 639 91 501 91 333 c 0
 91 168 219 28 370 28 c 0
 530 28 657 164 657 334 c 0
EndSplineSet
EndChar

StartChar: macron
Encoding: 175 175 110
Width: 333
Flags: MW
HStem: 553 70<68 377 51 393>
LayerCount: 2
Fore
SplineSet
393 623 m 1
 377 553 l 1
 51 553 l 1
 68 623 l 1
 393 623 l 1
EndSplineSet
EndChar

StartChar: degree
Encoding: 176 176 111
Width: 400
Flags: MW
HStem: 402 55<201.5 250.5 201.5 265.5> 633 55<201.5 250.5>
VStem: 83 55<520.5 569.5 520.5 584.5> 314 55<520.5 569.5>
LayerCount: 2
Fore
SplineSet
369 545 m 0
 369 466 305 402 226 402 c 0
 147 402 83 466 83 545 c 0
 83 624 147 688 226 688 c 0
 305 688 369 624 369 545 c 0
314 545 m 0
 314 594 275 633 226 633 c 0
 177 633 138 594 138 545 c 0
 138 496 177 457 226 457 c 0
 275 457 314 496 314 545 c 0
EndSplineSet
EndChar

StartChar: plusminus
Encoding: 177 177 112
Width: 570
Flags: MW
HStem: 0 88<33 537 33 537> 271 88<33 241 33 241 329 537>
VStem: 241 88<128 271 128 271 359 568>
LayerCount: 2
Fore
SplineSet
537 271 m 1
 329 271 l 1
 329 128 l 1
 241 128 l 1
 241 271 l 1
 33 271 l 1
 33 359 l 1
 241 359 l 1
 241 568 l 1
 329 568 l 1
 329 359 l 1
 537 359 l 1
 537 271 l 1
537 0 m 1
 33 0 l 1
 33 88 l 1
 537 88 l 1
 537 0 l 1
EndSplineSet
EndChar

StartChar: twosuperior
Encoding: 178 178 113
Width: 300
Flags: MW
HStem: 274 69<96 185 185 210 96 240> 622 61<174 179.5>
VStem: 220 93<560 576.5>
LayerCount: 2
Fore
SplineSet
79 574 m 1
 61 585 l 1
 97 652 143 683 205 683 c 0
 266 683 313 640 313 584 c 0
 313 536 288 498 221 444 c 2
 96 343 l 1
 185 343 l 2
 235 343 250 351 275 388 c 1
 291 388 l 1
 240 274 l 1
 2 274 l 1
 2 290 l 1
 102 385 121 403 150 435 c 0
 201 491 220 524 220 556 c 0
 220 597 198 622 161 622 c 0
 132 622 111 610 79 574 c 1
EndSplineSet
EndChar

StartChar: threesuperior
Encoding: 179 179 114
Width: 300
Flags: MW
HStem: 265 33<130 155.5> 632 51<164 250>
VStem: 210 84<379.5 419> 233 88<583.5 596>
LayerCount: 2
Fore
SplineSet
103 590 m 1xd0
 89 603 l 1
 129 659 168 683 222 683 c 0
 278 683 321 648 321 602 c 0xd0
 321 565 307 548 249 515 c 2
 242 511 l 1
 280 485 294 462 294 423 c 0
 294 336 208 265 103 265 c 0
 48 265 17 283 17 315 c 0
 17 339 32 356 54 356 c 0
 70 356 84 347 97 328 c 1
 118 300 121 298 139 298 c 0
 179 298 210 338 210 390 c 0xe0
 210 448 177 478 110 481 c 1
 112 495 l 1
 194 510 233 537 233 580 c 0
 233 612 212 632 178 632 c 0
 150 632 131 622 103 590 c 1xd0
EndSplineSet
EndChar

StartChar: acute
Encoding: 180 180 115
Width: 333
Flags: W
LayerCount: 2
Fore
SplineSet
139 516 m 1
 261 647 l 2
 297 685 313 697 331 697 c 0
 357 697 379 676 379 650 c 0
 379 631 370 620 340 603 c 2
 188 516 l 1
 139 516 l 1
EndSplineSet
EndChar

StartChar: mu
Encoding: 181 181 116
Width: 576
Flags: MW
HStem: -13 20 0 70<173 177.5>
LayerCount: 2
Fore
SplineSet
516 449 m 1x40
 412 113 l 2
 409 103 407 93 407 86 c 0
 407 78 412 72 419 72 c 0
 434 72 452 89 482 134 c 1
 504 118 l 1
 431 13 394 -13 338 -13 c 0x80
 301 -13 275 13 275 50 c 0
 275 68 277 80 286 118 c 1
 233 28 201 0 154 0 c 0
 130 0 102 9 92 24 c 1
 78 -19 69 -65 69 -109 c 0
 69 -171 40 -207 -10 -207 c 0
 -47 -207 -60 -180 -60 -141 c 0
 -60 -90 -19 -38 14 74 c 2
 125 449 l 1
 260 449 l 1
 167 137 l 2
 163 123 160 106 160 95 c 0
 160 79 167 70 179 70 c 0
 221 70 296 176 330 285 c 2
 381 449 l 1
 516 449 l 1x40
EndSplineSet
EndChar

StartChar: paragraph
Encoding: 182 182 117
Width: 617
Flags: MW
HStem: 644 25<447 502 447 447 634 673>
VStem: 113 79<368 420 368 429>
LayerCount: 2
Fore
SplineSet
679 669 m 1
 673 644 l 1
 595 644 591 640 572 568 c 2
 406 -68 l 2
 402 -85 395 -109 395 -128 c 0
 395 -147 407 -163 440 -166 c 2
 463 -168 l 1
 456 -193 l 1
 285 -193 l 1
 502 644 l 1
 447 644 l 1
 230 -193 l 1
 60 -193 l 1
 67 -168 l 1
 117 -164 134 -160 145 -150 c 0
 152 -143 157 -129 173 -68 c 2
 258 258 l 1
 169 258 113 300 113 391 c 0
 113 467 146 557 189 603 c 0
 230 647 295 669 384 669 c 2
 679 669 l 1
264 283 m 1
 358 644 l 1
 293 628 266 609 237 559 c 0
 210 513 192 446 192 394 c 0
 192 342 217 298 264 283 c 1
EndSplineSet
EndChar

StartChar: periodcentered
Encoding: 183 183 118
Width: 250
Flags: MW
HStem: 257 148<104.5 145>
VStem: 51 148<310 351 310 352>
LayerCount: 2
Fore
SplineSet
199 331 m 0
 199 289 166 257 124 257 c 0
 82 257 51 289 51 331 c 0
 51 373 83 405 126 405 c 0
 166 405 199 371 199 331 c 0
EndSplineSet
EndChar

StartChar: cedilla
Encoding: 184 184 119
Width: 333
Flags: MW
HStem: -218 41<14 26 -2 67.5>
VStem: 65 91<-148.5 -124.5>
LayerCount: 2
Fore
SplineSet
85 5 m 1
 40 -62 l 1
 50 -60 56 -59 66 -59 c 0
 118 -59 156 -89 156 -131 c 0
 156 -181 103 -218 32 -218 c 0
 -4 -218 -36 -211 -80 -193 c 1
 -58 -160 l 1
 -29 -173 -13 -177 9 -177 c 0
 43 -177 65 -161 65 -136 c 0
 65 -113 48 -100 18 -100 c 0
 8 -100 0 -101 -12 -104 c 1
 -25 -92 l 1
 41 5 l 1
 85 5 l 1
EndSplineSet
EndChar

StartChar: onesuperior
Encoding: 185 185 120
Width: 300
Flags: MW
HStem: 663 20<301 301>
LayerCount: 2
Fore
SplineSet
301 683 m 1
 201 353 l 2
 197 341 195 328 195 319 c 0
 195 297 205 293 254 293 c 1
 254 274 l 1
 30 274 l 1
 30 293 l 1
 86 293 101 307 118 373 c 0
 120 381 125 396 131 414 c 0
 155 484 193 611 191 613 c 1
 188 627 179 634 165 634 c 0
 158 634 147 633 133 632 c 2
 122 631 l 1
 124 652 l 1
 196 663 238 670 301 683 c 1
EndSplineSet
EndChar

StartChar: ordmasculine
Encoding: 186 186 121
Width: 300
Flags: MW
HStem: 400 20<156.5 177 156.5 208> 665 20<241 249.5>
VStem: 56 81<463 477 444 539> 266 81<606.5 615.5 537 638.5>
LayerCount: 2
Fore
SplineSet
347 587 m 0
 347 487 254 400 162 400 c 0
 101 400 56 437 56 489 c 0
 56 589 147 685 243 685 c 0
 307 685 347 644 347 587 c 0
266 627 m 0
 266 650 258 665 241 665 c 0
 217 666 199 648 181 617 c 0
 158 577 137 499 137 455 c 0
 137 433 148 420 165 420 c 0
 189 420 209 440 230 485 c 0
 249 526 266 586 266 627 c 0
EndSplineSet
EndChar

StartChar: guillemotright
Encoding: 187 187 122
Width: 500
Flags: W
LayerCount: 2
Fore
SplineSet
468 221 m 1
 298 97 l 2
 274 79 264 71 251 59 c 0
 232 41 219 32 210 32 c 0
 203 32 197 37 197 44 c 0
 197 65 227 105 298 178 c 0
 315 196 322 205 343 227 c 1
 303 310 l 2
 279 359 270 384 270 400 c 0
 270 408 276 415 285 415 c 0
 290 415 293 413 300 405 c 0
 341 359 371 328 468 230 c 1
 468 221 l 1
283 221 m 1
 113 97 l 2
 89 79 79 71 66 59 c 0
 47 41 34 32 25 32 c 0
 18 32 12 37 12 44 c 0
 12 65 42 105 113 178 c 0
 130 196 139 207 158 227 c 1
 118 310 l 2
 94 359 85 384 85 400 c 0
 85 408 91 415 100 415 c 0
 105 415 108 413 115 405 c 0
 156 359 186 328 283 230 c 1
 283 221 l 1
EndSplineSet
EndChar

StartChar: onequarter
Encoding: 188 188 123
Width: 750
Flags: MW
HStem: -14 20 0 20 88 61<425 540 381 557 643 671> 663 20<278 278 571 629 629 629>
LayerCount: 2
Fore
SplineSet
721 410 m 1x70
 643 149 l 1
 688 149 l 1
 671 88 l 1
 627 88 l 1
 599 0 l 1
 513 0 l 1
 540 88 l 1
 381 88 l 1
 397 155 l 1
 675 410 l 1
 721 410 l 1x70
609 319 m 1
 425 149 l 1
 557 149 l 1
 609 319 l 1
629 683 m 1
 194 -14 l 1
 136 -14 l 1x90
 571 683 l 1
 629 683 l 1
278 683 m 1
 178 353 l 2
 174 341 172 328 172 319 c 0
 172 297 182 293 231 293 c 1
 231 274 l 1
 7 274 l 1
 7 293 l 1
 63 293 77 307 95 373 c 0
 98 385 103 399 108 414 c 0
 136 500 168 602 168 613 c 0
 168 624 156 634 142 634 c 0
 135 634 124 633 110 632 c 2
 99 631 l 1
 101 652 l 1
 173 663 215 670 278 683 c 1
EndSplineSet
EndChar

StartChar: onehalf
Encoding: 189 189 124
Width: 750
Flags: MW
HStem: -14 20 0 69<506 595 595 620 506 650> 348 61<584 589.5> 663 20<262 262 556 614 614 614>
VStem: 630 93<286 302.5>
LayerCount: 2
Fore
SplineSet
489 300 m 1x78
 471 311 l 1
 507 378 553 409 615 409 c 0
 676 409 723 366 723 310 c 0
 723 262 698 224 631 170 c 2
 506 69 l 1
 595 69 l 2
 645 69 660 77 685 114 c 1
 701 114 l 1
 650 0 l 1
 412 0 l 1
 412 16 l 1
 512 111 531 129 560 161 c 0
 611 217 630 250 630 282 c 0
 630 323 608 348 571 348 c 0
 542 348 521 336 489 300 c 1x78
614 683 m 1
 179 -14 l 1
 121 -14 l 1x98
 556 683 l 1
 614 683 l 1
262 683 m 1
 162 353 l 2
 158 341 156 328 156 319 c 0
 156 297 166 293 215 293 c 1
 215 274 l 1
 -9 274 l 1
 -9 293 l 1
 47 293 61 307 79 373 c 0
 82 385 87 399 92 414 c 0
 120 500 152 602 152 613 c 0
 152 624 140 634 126 634 c 0
 119 634 108 633 94 632 c 2
 83 631 l 1
 85 652 l 1
 157 663 199 670 262 683 c 1
EndSplineSet
EndChar

StartChar: threequarters
Encoding: 190 190 125
Width: 750
Flags: MW
HStem: -14 20 0 20 88 61<430 545 386 562 648 676> 265 33<120 145.5> 632 51<154 240>
VStem: 200 84<379.5 418.5> 223 88<583.5 596>
LayerCount: 2
Fore
SplineSet
726 410 m 1x6a
 648 149 l 1
 693 149 l 1
 676 88 l 1
 632 88 l 1
 604 0 l 1
 518 0 l 1
 545 88 l 1
 386 88 l 1
 402 155 l 1
 680 410 l 1
 726 410 l 1x6a
614 319 m 1
 430 149 l 1
 562 149 l 1
 614 319 l 1
634 683 m 1
 199 -14 l 1
 141 -14 l 1x9a
 576 683 l 1
 634 683 l 1
93 590 m 1
 79 603 l 1
 119 659 159 683 212 683 c 0
 268 683 311 648 311 602 c 0x9a
 311 565 297 548 239 515 c 2
 232 511 l 1
 270 485 284 462 284 423 c 0
 284 336 198 265 93 265 c 0
 38 265 7 283 7 315 c 0
 7 339 22 356 44 356 c 0
 60 356 74 347 87 328 c 1
 108 300 111 298 129 298 c 0
 169 298 200 338 200 389 c 0x9c
 200 448 168 478 100 481 c 1
 102 495 l 1
 184 510 223 537 223 580 c 0
 223 612 202 632 168 632 c 0
 140 632 121 622 93 590 c 1
EndSplineSet
EndChar

StartChar: questiondown
Encoding: 191 191 126
Width: 500
Flags: MW
HStem: -205 31<204.5 242 204.5 256.5> -9 20 344 148<327 367.5>
VStem: 273 148<398 439> 288 93<-145.5 -57>
LayerCount: 2
Fore
SplineSet
421 418 m 0xf0
 421 376 389 344 346 344 c 0
 306 344 273 378 273 418 c 0
 273 460 306 492 348 492 c 0
 390 492 421 460 421 418 c 0xf0
262 105 m 2xe8
 221 54 l 2
 176 -1 157 -47 157 -94 c 0
 157 -144 183 -174 226 -174 c 0
 258 -174 288 -155 288 -136 c 0
 288 -130 285 -124 277 -114 c 0
 264 -97 259 -84 259 -69 c 0
 259 -35 286 -9 320 -9 c 0
 354 -9 381 -38 381 -76 c 0
 381 -151 307 -205 206 -205 c 0
 100 -205 30 -147 30 -61 c 0
 30 2 66 52 156 110 c 2
 222 153 l 2
 260 178 276 201 304 271 c 1
 333 264 l 1
 328 209 308 163 262 105 c 2xe8
EndSplineSet
EndChar

StartChar: Agrave
Encoding: 192 192 127
Width: 667
Flags: MW
HStem: 0 20 208 40<161 346 161 353 138 346>
LayerCount: 2
Fore
SplineSet
593 0 m 1
 290 0 l 1
 290 25 l 1
 343 29 367 44 367 74 c 0
 367 79 366 83 365 89 c 2
 353 208 l 1
 138 208 l 1
 81 112 l 2
 70 94 64 77 64 62 c 0
 64 38 80 25 128 25 c 1
 128 0 l 1
 -67 0 l 1
 -68 25 l 1
 -31 29 -13 52 18 101 c 2
 388 683 l 1
 413 683 l 1
 507 123 l 2
 521 41 530 29 593 25 c 1
 593 0 l 1
346 248 m 1
 309 491 l 1
 161 248 l 1
 346 248 l 1
516 766 m 1
 470 766 l 1
 338 854 l 2
 316 869 304 886 304 902 c 0
 304 926 325 947 349 947 c 0
 368 947 387 938 405 914 c 2
 516 766 l 1
EndSplineSet
EndChar

StartChar: Aacute
Encoding: 193 193 128
Width: 667
Flags: MW
HStem: 0 20 208 40<161 346 161 353 138 346>
LayerCount: 2
Fore
SplineSet
593 0 m 1
 290 0 l 1
 290 25 l 1
 343 29 367 44 367 74 c 0
 367 79 366 83 365 89 c 2
 353 208 l 1
 138 208 l 1
 81 112 l 2
 70 94 64 77 64 62 c 0
 64 38 80 25 128 25 c 1
 128 0 l 1
 -67 0 l 1
 -68 25 l 1
 -31 29 -13 52 18 101 c 2
 388 683 l 1
 413 683 l 1
 507 123 l 2
 521 41 530 29 593 25 c 1
 593 0 l 1
346 248 m 1
 309 491 l 1
 161 248 l 1
 346 248 l 1
326 766 m 1
 448 897 l 2
 484 935 500 947 518 947 c 0
 544 947 566 926 566 900 c 0
 566 881 557 870 527 853 c 2
 375 766 l 1
 326 766 l 1
EndSplineSet
EndChar

StartChar: Acircumflex
Encoding: 194 194 129
Width: 667
Flags: MW
HStem: 0 20 208 40<161 346 161 353 138 346>
LayerCount: 2
Fore
SplineSet
593 0 m 1
 290 0 l 1
 290 25 l 1
 343 29 367 44 367 74 c 0
 367 79 366 83 365 89 c 2
 353 208 l 1
 138 208 l 1
 81 112 l 2
 70 94 64 77 64 62 c 0
 64 38 80 25 128 25 c 1
 128 0 l 1
 -67 0 l 1
 -68 25 l 1
 -31 29 -13 52 18 101 c 2
 388 683 l 1
 413 683 l 1
 507 123 l 2
 521 41 530 29 593 25 c 1
 593 0 l 1
346 248 m 1
 309 491 l 1
 161 248 l 1
 346 248 l 1
587 766 m 1
 536 766 l 1
 448 861 l 1
 317 766 l 1
 260 766 l 1
 420 940 l 1
 501 940 l 1
 587 766 l 1
EndSplineSet
EndChar

StartChar: Atilde
Encoding: 195 195 130
Width: 667
Flags: MW
HStem: 0 20 208 40<161 346 161 353 138 346> 786 77<514 525> 830 75<340.5 346.5>
LayerCount: 2
Fore
SplineSet
571 905 m 1x10
 612 905 l 1xd0
 590 821 555 786 495 786 c 0x20
 476 786 465 788 438 799 c 2
 379 822 l 2
 366 827 352 830 341 830 c 0
 319 830 306 819 293 787 c 1
 253 787 l 1
 266 859 312 905 369 905 c 0x10
 394 905 425 897 466 879 c 0
 493 868 508 863 520 863 c 0x20
 543 863 556 873 571 905 c 1x10
593 0 m 1
 290 0 l 1
 290 25 l 1
 343 29 367 44 367 74 c 0
 367 79 366 83 365 89 c 2
 353 208 l 1
 138 208 l 1
 81 112 l 2
 70 94 64 77 64 62 c 0
 64 38 80 25 128 25 c 1
 128 0 l 1
 -67 0 l 1
 -68 25 l 1
 -31 29 -13 52 18 101 c 2
 388 683 l 1
 413 683 l 1
 507 123 l 2
 521 41 530 29 593 25 c 1
 593 0 l 1
346 248 m 1
 309 491 l 1
 161 248 l 1
 346 248 l 1
EndSplineSet
EndChar

StartChar: Adieresis
Encoding: 196 196 131
Width: 667
Flags: MW
HStem: 0 20 208 40<161 346 161 353 138 346> 775 130<304 339 516 551>
VStem: 257 130<822 857> 469 130<822 857>
LayerCount: 2
Fore
SplineSet
593 0 m 1
 290 0 l 1
 290 25 l 1
 343 29 367 44 367 74 c 0
 367 79 366 83 365 89 c 2
 353 208 l 1
 138 208 l 1
 81 112 l 2
 70 94 64 77 64 62 c 0
 64 38 80 25 128 25 c 1
 128 0 l 1
 -67 0 l 1
 -68 25 l 1
 -31 29 -13 52 18 101 c 2
 388 683 l 1
 413 683 l 1
 507 123 l 2
 521 41 530 29 593 25 c 1
 593 0 l 1
346 248 m 1
 309 491 l 1
 161 248 l 1
 346 248 l 1
599 839 m 0
 599 804 569 775 533 775 c 0
 499 775 469 805 469 839 c 0
 469 875 498 905 533 905 c 0
 569 905 599 875 599 839 c 0
387 839 m 0
 387 804 357 775 321 775 c 0
 287 775 257 805 257 839 c 0
 257 875 286 905 321 905 c 0
 357 905 387 875 387 839 c 0
EndSplineSet
EndChar

StartChar: Aring
Encoding: 197 197 132
Width: 667
Flags: MW
HStem: 0 20 208 40<161 346 161 353 138 346> 791 48<422.5 454.5 422.5 468.5> 956 48<422.5 454.5>
VStem: 333 48<881 913 881 928.5> 498 48<880.5 912.5>
LayerCount: 2
Fore
SplineSet
593 0 m 1
 290 0 l 1
 290 25 l 1
 343 29 367 44 367 74 c 0
 367 79 366 83 365 89 c 2
 353 208 l 1
 138 208 l 1
 81 112 l 2
 70 94 64 77 64 62 c 0
 64 38 80 25 128 25 c 1
 128 0 l 1
 -67 0 l 1
 -68 25 l 1
 -31 29 -13 52 18 101 c 2
 388 683 l 1
 413 683 l 1
 507 123 l 2
 521 41 530 29 593 25 c 1
 593 0 l 1
346 248 m 1
 309 491 l 1
 161 248 l 1
 346 248 l 1
546 898 m 0
 546 839 498 791 439 791 c 0
 375 791 333 836 333 899 c 0
 333 958 382 1004 440 1004 c 0
 503 1004 546 957 546 898 c 0
498 896 m 0
 498 929 471 956 438 956 c 0
 407 956 381 929 381 897 c 0
 381 865 407 839 438 839 c 0
 471 839 498 865 498 896 c 0
EndSplineSet
EndChar

StartChar: AE
Encoding: 198 198 133
Width: 944
Flags: MW
HStem: 0 32<532 592 532 791> 255 39<225 388 196 398> 637 32<664 737>
LayerCount: 2
Fore
SplineSet
918 669 m 1
 873 479 l 1
 849 484 l 1
 847 524 l 2
 843 599 789 637 685 637 c 0
 643 637 633 632 626 605 c 2
 561 370 l 1
 580 370 l 2
 682 370 715 390 755 476 c 1
 781 472 l 1
 708 199 l 1
 683 204 l 1
 685 220 686 239 686 250 c 0
 686 316 668 331 553 338 c 1
 490 97 l 2
 487 85 485 75 485 69 c 0
 485 43 511 32 553 32 c 0
 631 32 677 44 723 79 c 0
 759 106 789 149 824 199 c 1
 850 196 l 1
 791 0 l 1
 264 0 l 1
 264 25 l 1
 316 33 329 52 345 106 c 2
 388 255 l 1
 196 255 l 1
 82 98 l 2
 72 85 67 71 67 59 c 0
 67 37 83 29 131 25 c 1
 131 0 l 1
 -64 0 l 1
 -64 25 l 1
 -47 27 -42 29 -34 34 c 0
 -29 36 -14 52 25 102 c 2
 389 574 l 2
 401 590 409 607 409 618 c 0
 409 637 394 642 329 646 c 1
 329 669 l 1
 918 669 l 1
490 627 m 1
 478 627 l 1
 225 294 l 1
 398 294 l 1
 490 627 l 1
EndSplineSet
EndChar

StartChar: Ccedilla
Encoding: 199 199 134
Width: 667
Flags: MW
HStem: -218 41<181 193 165 234.5> -18 53<293.5 339.5> 650 35<432.5 460.5 387 506.5>
VStem: 232 91<-148.5 -124.5>
LayerCount: 2
Fore
SplineSet
677 685 m 1
 626 451 l 1
 594 457 l 1
 596 470 597 479 597 492 c 0
 597 590 547 650 466 650 c 0
 399 650 339 605 298 550 c 0
 232 464 186 337 186 209 c 0
 186 100 248 35 336 35 c 0
 367 35 398 41 426 53 c 0
 468 71 491 94 545 154 c 1
 576 132 l 1
 544 88 527 69 498 47 c 0
 441 4 375 -18 304 -18 c 0
 283 -18 262 -18 240 -14 c 1
 207 -62 l 1
 217 -60 223 -59 233 -59 c 0
 285 -59 323 -89 323 -131 c 0
 323 -181 270 -218 199 -218 c 0
 163 -218 130 -211 87 -193 c 1
 109 -160 l 1
 137 -173 154 -177 176 -177 c 0
 210 -177 232 -161 232 -136 c 0
 232 -113 215 -100 185 -100 c 0
 175 -100 167 -101 155 -104 c 1
 142 -92 l 1
 201 -4 l 1
 92 32 32 122 32 241 c 0
 32 368 83 484 163 565 c 0
 236 639 334 685 440 685 c 0
 481 685 526 678 571 664 c 0
 586 659 601 656 609 656 c 0
 624 656 633 663 647 685 c 1
 677 685 l 1
EndSplineSet
EndChar

StartChar: Egrave
Encoding: 200 200 135
Width: 667
Flags: MW
HStem: 0 32<234.5 300 234.5 526> 637 32<380.5 431.5>
LayerCount: 2
Fore
SplineSet
653 669 m 1
 610 479 l 1
 583 484 l 1
 580 555 579 580 538 607 c 0
 508 626 462 637 401 637 c 0
 360 637 346 631 334 586 c 2
 275 370 l 1
 407 370 433 383 480 477 c 1
 508 473 l 1
 434 199 l 1
 406 203 l 1
 409 222 410 233 410 247 c 0
 410 316 379 338 266 338 c 1
 203 104 l 2
 198 84 195 73 195 66 c 0
 195 42 213 32 256 32 c 0
 344 32 413 51 470 93 c 0
 507 120 527 143 561 199 c 1
 586 194 l 1
 526 0 l 1
 -27 0 l 1
 -27 25 l 1
 25 33 38 44 55 105 c 2
 174 537 l 2
 183 570 186 592 186 607 c 0
 186 627 176 636 145 640 c 2
 112 644 l 1
 112 669 l 1
 653 669 l 1
531 766 m 1
 485 766 l 1
 353 854 l 2
 331 869 319 886 319 902 c 0
 319 926 340 947 364 947 c 0
 383 947 402 938 420 914 c 2
 531 766 l 1
EndSplineSet
EndChar

StartChar: Eacute
Encoding: 201 201 136
Width: 667
Flags: MW
HStem: 0 32<234.5 300 234.5 526> 637 32<380.5 431.5>
LayerCount: 2
Fore
SplineSet
653 669 m 1
 610 479 l 1
 583 484 l 1
 580 555 579 580 538 607 c 0
 508 626 462 637 401 637 c 0
 360 637 346 631 334 586 c 2
 275 370 l 1
 407 370 433 383 480 477 c 1
 508 473 l 1
 434 199 l 1
 406 203 l 1
 409 222 410 233 410 247 c 0
 410 316 379 338 266 338 c 1
 203 104 l 2
 198 84 195 73 195 66 c 0
 195 42 213 32 256 32 c 0
 344 32 413 51 470 93 c 0
 507 120 527 143 561 199 c 1
 586 194 l 1
 526 0 l 1
 -27 0 l 1
 -27 25 l 1
 25 33 38 44 55 105 c 2
 174 537 l 2
 183 570 186 592 186 607 c 0
 186 627 176 636 145 640 c 2
 112 644 l 1
 112 669 l 1
 653 669 l 1
306 766 m 1
 428 897 l 2
 464 935 480 947 498 947 c 0
 524 947 546 926 546 900 c 0
 546 881 537 870 507 853 c 2
 355 766 l 1
 306 766 l 1
EndSplineSet
EndChar

StartChar: Ecircumflex
Encoding: 202 202 137
Width: 667
Flags: MW
HStem: 0 32<234.5 300 234.5 526> 637 32<380.5 431.5>
LayerCount: 2
Fore
SplineSet
653 669 m 1
 610 479 l 1
 583 484 l 1
 580 555 579 580 538 607 c 0
 508 626 462 637 401 637 c 0
 360 637 346 631 334 586 c 2
 275 370 l 1
 407 370 433 383 480 477 c 1
 508 473 l 1
 434 199 l 1
 406 203 l 1
 409 222 410 233 410 247 c 0
 410 316 379 338 266 338 c 1
 203 104 l 2
 198 84 195 73 195 66 c 0
 195 42 213 32 256 32 c 0
 344 32 413 51 470 93 c 0
 507 120 527 143 561 199 c 1
 586 194 l 1
 526 0 l 1
 -27 0 l 1
 -27 25 l 1
 25 33 38 44 55 105 c 2
 174 537 l 2
 183 570 186 592 186 607 c 0
 186 627 176 636 145 640 c 2
 112 644 l 1
 112 669 l 1
 653 669 l 1
586 766 m 1
 535 766 l 1
 447 861 l 1
 316 766 l 1
 259 766 l 1
 419 940 l 1
 500 940 l 1
 586 766 l 1
EndSplineSet
EndChar

StartChar: Edieresis
Encoding: 203 203 138
Width: 667
Flags: MW
HStem: 0 32<234.5 300 234.5 526> 637 32<380.5 431.5> 775 130<306 341 518 553>
VStem: 259 130<822 857> 471 130<822 857>
LayerCount: 2
Fore
SplineSet
653 669 m 1
 610 479 l 1
 583 484 l 1
 580 555 579 580 538 607 c 0
 508 626 462 637 401 637 c 0
 360 637 346 631 334 586 c 2
 275 370 l 1
 407 370 433 383 480 477 c 1
 508 473 l 1
 434 199 l 1
 406 203 l 1
 409 222 410 233 410 247 c 0
 410 316 379 338 266 338 c 1
 203 104 l 2
 198 84 195 73 195 66 c 0
 195 42 213 32 256 32 c 0
 344 32 413 51 470 93 c 0
 507 120 527 143 561 199 c 1
 586 194 l 1
 526 0 l 1
 -27 0 l 1
 -27 25 l 1
 25 33 38 44 55 105 c 2
 174 537 l 2
 183 570 186 592 186 607 c 0
 186 627 176 636 145 640 c 2
 112 644 l 1
 112 669 l 1
 653 669 l 1
601 839 m 0
 601 804 571 775 535 775 c 0
 501 775 471 805 471 839 c 0
 471 875 500 905 535 905 c 0
 571 905 601 875 601 839 c 0
389 839 m 0
 389 804 359 775 323 775 c 0
 289 775 259 805 259 839 c 0
 259 875 288 905 323 905 c 0
 359 905 389 875 389 839 c 0
EndSplineSet
EndChar

StartChar: Igrave
Encoding: 204 204 139
Width: 389
Flags: MW
HStem: 0 20 649 20<108 406 406 406>
LayerCount: 2
Fore
SplineSet
406 669 m 1
 406 644 l 1
 357 639 339 627 322 564 c 2
 210 152 l 2
 196 101 193 81 193 65 c 0
 193 37 207 28 264 25 c 1
 264 0 l 1
 -32 0 l 1
 -32 25 l 1
 17 31 32 36 51 107 c 2
 168 536 l 2
 176 565 182 595 182 607 c 0
 182 627 167 637 140 640 c 2
 108 644 l 1
 108 669 l 1
 406 669 l 1
404 766 m 1
 358 766 l 1
 226 854 l 2
 204 869 192 886 192 902 c 0
 192 926 213 947 237 947 c 0
 256 947 275 938 293 914 c 2
 404 766 l 1
EndSplineSet
EndChar

StartChar: Iacute
Encoding: 205 205 140
Width: 389
Flags: MW
HStem: 0 20 649 20<108 406 406 406>
LayerCount: 2
Fore
SplineSet
406 669 m 1
 406 644 l 1
 357 639 339 627 322 564 c 2
 210 152 l 2
 196 101 193 81 193 65 c 0
 193 37 207 28 264 25 c 1
 264 0 l 1
 -32 0 l 1
 -32 25 l 1
 17 31 32 36 51 107 c 2
 168 536 l 2
 176 565 182 595 182 607 c 0
 182 627 167 637 140 640 c 2
 108 644 l 1
 108 669 l 1
 406 669 l 1
200 766 m 1
 322 897 l 2
 358 935 374 947 392 947 c 0
 418 947 440 926 440 900 c 0
 440 881 431 870 401 853 c 2
 249 766 l 1
 200 766 l 1
EndSplineSet
EndChar

StartChar: Icircumflex
Encoding: 206 206 141
Width: 389
Flags: MW
HStem: 0 20 649 20<108 406 406 406>
LayerCount: 2
Fore
SplineSet
406 669 m 1
 406 644 l 1
 357 639 339 627 322 564 c 2
 210 152 l 2
 196 101 193 81 193 65 c 0
 193 37 207 28 264 25 c 1
 264 0 l 1
 -32 0 l 1
 -32 25 l 1
 17 31 32 36 51 107 c 2
 168 536 l 2
 176 565 182 595 182 607 c 0
 182 627 167 637 140 640 c 2
 108 644 l 1
 108 669 l 1
 406 669 l 1
469 766 m 1
 418 766 l 1
 330 861 l 1
 199 766 l 1
 142 766 l 1
 302 940 l 1
 383 940 l 1
 469 766 l 1
EndSplineSet
EndChar

StartChar: Idieresis
Encoding: 207 207 142
Width: 389
Flags: MW
HStem: 0 20 649 20<108 406 406 406> 775 130<185 220 397 432>
VStem: 138 130<822 857> 350 130<822 857>
LayerCount: 2
Fore
SplineSet
406 669 m 1
 406 644 l 1
 357 639 339 627 322 564 c 2
 210 152 l 2
 196 101 193 81 193 65 c 0
 193 37 207 28 264 25 c 1
 264 0 l 1
 -32 0 l 1
 -32 25 l 1
 17 31 32 36 51 107 c 2
 168 536 l 2
 176 565 182 595 182 607 c 0
 182 627 167 637 140 640 c 2
 108 644 l 1
 108 669 l 1
 406 669 l 1
480 839 m 0
 480 804 450 775 414 775 c 0
 380 775 350 805 350 839 c 0
 350 875 379 905 414 905 c 0
 450 905 480 875 480 839 c 0
268 839 m 0
 268 804 238 775 202 775 c 0
 168 775 138 805 138 839 c 0
 138 875 167 905 202 905 c 0
 238 905 268 875 268 839 c 0
EndSplineSet
EndChar

StartChar: Eth
Encoding: 208 208 143
Width: 722
Flags: MW
HStem: 0 34<227 255> 329 44<22 112 10 124 272 382> 638 31<371.5 399 399 443.5>
LayerCount: 2
Fore
SplineSet
109 669 m 1
 399 669 l 2
 588 669 700 567 700 396 c 0
 700 168 511 0 255 0 c 2
 -31 0 l 1
 -31 25 l 1
 17 31 35 46 49 97 c 2
 112 329 l 1
 10 329 l 1
 22 373 l 1
 124 373 l 1
 170 543 l 2
 179 576 182 592 182 602 c 0
 182 626 168 634 140 639 c 2
 109 644 l 1
 109 669 l 1
260 329 m 1
 204 122 l 2
 197 95 192 80 192 68 c 0
 192 44 208 34 246 34 c 0
 343 34 414 72 469 152 c 0
 521 229 553 346 553 457 c 0
 553 579 499 638 388 638 c 0
 355 638 340 628 333 600 c 2
 272 373 l 1
 394 373 l 1
 382 329 l 1
 260 329 l 1
EndSplineSet
EndChar

StartChar: Ntilde
Encoding: 209 209 144
Width: 722
Flags: MW
HStem: -15 20 0 20 649 20<112 305 305 305 540 748 748 748> 786 77<562 573> 830 75<388.5 394.5>
LayerCount: 2
Fore
SplineSet
619 905 m 1x08
 660 905 l 1x68
 638 821 603 786 543 786 c 0x10
 524 786 513 788 486 799 c 2
 427 822 l 2
 414 827 400 830 389 830 c 0
 367 830 354 819 341 787 c 1
 301 787 l 1
 314 859 360 905 417 905 c 0x08
 442 905 473 897 514 879 c 0
 541 868 556 863 568 863 c 0x10
 591 863 604 873 619 905 c 1x08
748 669 m 1
 748 644 l 1
 692 633 682 620 646 491 c 2
 503 -15 l 1
 475 -15 l 1xa0
 218 532 l 1
 119 178 l 2
 107 136 100 103 100 84 c 0
 100 45 120 30 179 25 c 1
 179 0 l 1
 -27 0 l 1
 -27 25 l 1
 28 36 33 42 74 180 c 2
 194 587 l 1
 175 631 167 639 112 644 c 1
 112 669 l 1
 305 669 l 1
 521 202 l 1
 602 491 l 2
 613 532 621 566 621 585 c 0
 621 623 600 644 540 644 c 1
 540 669 l 1
 748 669 l 1
EndSplineSet
EndChar

StartChar: Ograve
Encoding: 210 210 145
Width: 722
Flags: MW
HStem: -18 34<241.5 305 241.5 309.5> 651 34<414.5 476>
LayerCount: 2
Fore
SplineSet
691 444 m 0
 691 316 618 173 511 78 c 0
 441 16 356 -18 263 -18 c 0
 122 -18 27 66 27 221 c 0
 27 356 102 503 213 593 c 0
 285 651 365 685 449 685 c 0
 586 685 691 590 691 444 c 0
547 528 m 0
 547 611 506 651 446 651 c 0
 383 651 334 615 284 531 c 0
 224 430 171 262 171 143 c 0
 171 68 210 16 273 16 c 0
 337 16 381 57 430 130 c 0
 497 229 547 415 547 528 c 0
580 766 m 1
 534 766 l 1
 402 854 l 2
 380 869 368 886 368 902 c 0
 368 926 389 947 413 947 c 0
 432 947 451 938 469 914 c 2
 580 766 l 1
EndSplineSet
EndChar

StartChar: Oacute
Encoding: 211 211 146
Width: 722
Flags: MW
HStem: -18 34<241.5 305 241.5 309.5> 651 34<414.5 476>
LayerCount: 2
Fore
SplineSet
691 444 m 0
 691 316 618 173 511 78 c 0
 441 16 356 -18 263 -18 c 0
 122 -18 27 66 27 221 c 0
 27 356 102 503 213 593 c 0
 285 651 365 685 449 685 c 0
 586 685 691 590 691 444 c 0
547 528 m 0
 547 611 506 651 446 651 c 0
 383 651 334 615 284 531 c 0
 224 430 171 262 171 143 c 0
 171 68 210 16 273 16 c 0
 337 16 381 57 430 130 c 0
 497 229 547 415 547 528 c 0
355 766 m 1
 477 897 l 2
 513 935 529 947 547 947 c 0
 573 947 595 926 595 900 c 0
 595 881 586 870 556 853 c 2
 404 766 l 1
 355 766 l 1
EndSplineSet
EndChar

StartChar: Ocircumflex
Encoding: 212 212 147
Width: 722
Flags: MW
HStem: -18 34<241.5 305 241.5 309.5> 651 34<414.5 476>
LayerCount: 2
Fore
SplineSet
691 444 m 0
 691 316 618 173 511 78 c 0
 441 16 356 -18 263 -18 c 0
 122 -18 27 66 27 221 c 0
 27 356 102 503 213 593 c 0
 285 651 365 685 449 685 c 0
 586 685 691 590 691 444 c 0
547 528 m 0
 547 611 506 651 446 651 c 0
 383 651 334 615 284 531 c 0
 224 430 171 262 171 143 c 0
 171 68 210 16 273 16 c 0
 337 16 381 57 430 130 c 0
 497 229 547 415 547 528 c 0
638 766 m 1
 587 766 l 1
 499 861 l 1
 368 766 l 1
 311 766 l 1
 471 940 l 1
 552 940 l 1
 638 766 l 1
EndSplineSet
EndChar

StartChar: Otilde
Encoding: 213 213 148
Width: 722
Flags: MW
HStem: -18 34<241.5 305 241.5 309.5> 651 34<414.5 476> 786 77<563 574> 830 75<389.5 395.5>
LayerCount: 2
Fore
SplineSet
620 905 m 1x10
 661 905 l 1xd0
 639 821 604 786 544 786 c 0x20
 525 786 514 788 487 799 c 2
 428 822 l 2
 415 827 401 830 390 830 c 0
 368 830 355 819 342 787 c 1
 302 787 l 1
 315 859 361 905 418 905 c 0x10
 443 905 474 897 515 879 c 0
 542 868 557 863 569 863 c 0x20
 592 863 605 873 620 905 c 1x10
691 444 m 0
 691 316 618 173 511 78 c 0
 441 16 356 -18 263 -18 c 0
 122 -18 27 66 27 221 c 0
 27 356 102 503 213 593 c 0
 285 651 365 685 449 685 c 0
 586 685 691 590 691 444 c 0
547 528 m 0
 547 611 506 651 446 651 c 0
 383 651 334 615 284 531 c 0
 224 430 171 262 171 143 c 0
 171 68 210 16 273 16 c 0
 337 16 381 57 430 130 c 0
 497 229 547 415 547 528 c 0
EndSplineSet
EndChar

StartChar: Odieresis
Encoding: 214 214 149
Width: 722
Flags: MW
HStem: -18 34<241.5 305 241.5 309.5> 651 34<414.5 476> 775 130<356 391 568 603>
VStem: 309 130<822 857> 521 130<822 857>
LayerCount: 2
Fore
SplineSet
691 444 m 0
 691 316 618 173 511 78 c 0
 441 16 356 -18 263 -18 c 0
 122 -18 27 66 27 221 c 0
 27 356 102 503 213 593 c 0
 285 651 365 685 449 685 c 0
 586 685 691 590 691 444 c 0
547 528 m 0
 547 611 506 651 446 651 c 0
 383 651 334 615 284 531 c 0
 224 430 171 262 171 143 c 0
 171 68 210 16 273 16 c 0
 337 16 381 57 430 130 c 0
 497 229 547 415 547 528 c 0
651 839 m 0
 651 804 621 775 585 775 c 0
 551 775 521 805 521 839 c 0
 521 875 550 905 585 905 c 0
 621 905 651 875 651 839 c 0
439 839 m 0
 439 804 409 775 373 775 c 0
 339 775 309 805 309 839 c 0
 309 875 338 905 373 905 c 0
 409 905 439 875 439 839 c 0
EndSplineSet
EndChar

StartChar: multiply
Encoding: 215 215 150
Width: 570
Flags: W
LayerCount: 2
Fore
SplineSet
522 78 m 1
 460 16 l 1
 285 192 l 1
 110 16 l 1
 48 78 l 1
 223 253 l 1
 48 428 l 1
 110 490 l 1
 285 314 l 1
 460 490 l 1
 522 428 l 1
 346 253 l 1
 522 78 l 1
EndSplineSet
EndChar

StartChar: Oslash
Encoding: 216 216 151
Width: 722
Flags: MW
HStem: -18 34<262 306 262 312.5> 651 34<412.5 456>
LayerCount: 2
Fore
SplineSet
633 764 m 1
 570 656 l 1
 644 621 691 539 691 453 c 0
 691 301 619 170 508 77 c 0
 435 16 357 -18 268 -18 c 0
 237 -18 214 -15 183 -5 c 1
 113 -125 l 1
 65 -125 l 1
 144 11 l 1
 66 53 27 124 27 212 c 0
 27 461 226 685 449 685 c 0
 479 685 499 682 531 672 c 1
 584 764 l 1
 633 764 l 1
182 77 m 1
 506 630 l 1
 487 645 469 651 443 651 c 0
 382 651 327 608 278 521 c 0
 220 418 171 243 171 141 c 0
 171 119 175 97 182 77 c 1
533 593 m 1
 208 38 l 1
 228 22 249 16 275 16 c 0
 337 16 403 73 441 151 c 0
 492 256 547 426 547 527 c 0
 547 549 542 570 533 593 c 1
EndSplineSet
EndChar

StartChar: Ugrave
Encoding: 217 217 152
Width: 722
Flags: MW
HStem: -18 56<289 327> 649 20<97 408 408 408 537 744 744 744>
LayerCount: 2
Fore
SplineSet
744 669 m 1
 744 644 l 1
 689 633 679 631 642 497 c 2
 577 263 l 2
 547 156 515 76 456 29 c 0
 417 -2 364 -18 290 -18 c 0
 159 -18 67 38 67 145 c 0
 67 185 81 246 104 334 c 2
 155 527 l 2
 165 564 170 593 170 605 c 0
 170 627 161 638 129 641 c 2
 97 644 l 1
 97 669 l 1
 408 669 l 1
 408 644 l 1
 346 641 330 627 314 568 c 2
 233 274 l 2
 207 180 205 167 205 139 c 0
 205 67 251 38 327 38 c 0
 382 38 421 55 450 85 c 0
 493 129 517 199 540 282 c 2
 597 491 l 2
 609 535 616 570 616 587 c 0
 616 623 594 644 537 644 c 1
 537 669 l 1
 744 669 l 1
578 766 m 1
 532 766 l 1
 400 854 l 2
 378 869 366 886 366 902 c 0
 366 926 387 947 411 947 c 0
 430 947 449 938 467 914 c 2
 578 766 l 1
EndSplineSet
EndChar

StartChar: Uacute
Encoding: 218 218 153
Width: 722
Flags: MW
HStem: -18 56<289 327> 649 20<97 408 408 408 537 744 744 744>
LayerCount: 2
Fore
SplineSet
744 669 m 1
 744 644 l 1
 689 633 679 631 642 497 c 2
 577 263 l 2
 547 156 515 76 456 29 c 0
 417 -2 364 -18 290 -18 c 0
 159 -18 67 38 67 145 c 0
 67 185 81 246 104 334 c 2
 155 527 l 2
 165 564 170 593 170 605 c 0
 170 627 161 638 129 641 c 2
 97 644 l 1
 97 669 l 1
 408 669 l 1
 408 644 l 1
 346 641 330 627 314 568 c 2
 233 274 l 2
 207 180 205 167 205 139 c 0
 205 67 251 38 327 38 c 0
 382 38 421 55 450 85 c 0
 493 129 517 199 540 282 c 2
 597 491 l 2
 609 535 616 570 616 587 c 0
 616 623 594 644 537 644 c 1
 537 669 l 1
 744 669 l 1
354 766 m 1
 476 897 l 2
 512 935 528 947 546 947 c 0
 572 947 594 926 594 900 c 0
 594 881 585 870 555 853 c 2
 403 766 l 1
 354 766 l 1
EndSplineSet
EndChar

StartChar: Ucircumflex
Encoding: 219 219 154
Width: 722
Flags: MW
HStem: -18 56<289 327> 649 20<97 408 408 408 537 744 744 744>
LayerCount: 2
Fore
SplineSet
744 669 m 1
 744 644 l 1
 689 633 679 631 642 497 c 2
 577 263 l 2
 547 156 515 76 456 29 c 0
 417 -2 364 -18 290 -18 c 0
 159 -18 67 38 67 145 c 0
 67 185 81 246 104 334 c 2
 155 527 l 2
 165 564 170 593 170 605 c 0
 170 627 161 638 129 641 c 2
 97 644 l 1
 97 669 l 1
 408 669 l 1
 408 644 l 1
 346 641 330 627 314 568 c 2
 233 274 l 2
 207 180 205 167 205 139 c 0
 205 67 251 38 327 38 c 0
 382 38 421 55 450 85 c 0
 493 129 517 199 540 282 c 2
 597 491 l 2
 609 535 616 570 616 587 c 0
 616 623 594 644 537 644 c 1
 537 669 l 1
 744 669 l 1
637 766 m 1
 586 766 l 1
 498 861 l 1
 367 766 l 1
 310 766 l 1
 470 940 l 1
 551 940 l 1
 637 766 l 1
EndSplineSet
EndChar

StartChar: Udieresis
Encoding: 220 220 155
Width: 722
Flags: MW
HStem: -18 56<289 327> 649 20<97 408 408 408 537 744 744 744> 775 130<353 388 565 600>
VStem: 306 130<822 857> 518 130<822 857>
LayerCount: 2
Fore
SplineSet
744 669 m 1
 744 644 l 1
 689 633 679 631 642 497 c 2
 577 263 l 2
 547 156 515 76 456 29 c 0
 417 -2 364 -18 290 -18 c 0
 159 -18 67 38 67 145 c 0
 67 185 81 246 104 334 c 2
 155 527 l 2
 165 564 170 593 170 605 c 0
 170 627 161 638 129 641 c 2
 97 644 l 1
 97 669 l 1
 408 669 l 1
 408 644 l 1
 346 641 330 627 314 568 c 2
 233 274 l 2
 207 180 205 167 205 139 c 0
 205 67 251 38 327 38 c 0
 382 38 421 55 450 85 c 0
 493 129 517 199 540 282 c 2
 597 491 l 2
 609 535 616 570 616 587 c 0
 616 623 594 644 537 644 c 1
 537 669 l 1
 744 669 l 1
648 839 m 0
 648 804 618 775 582 775 c 0
 548 775 518 805 518 839 c 0
 518 875 547 905 582 905 c 0
 618 905 648 875 648 839 c 0
436 839 m 0
 436 804 406 775 370 775 c 0
 336 775 306 805 306 839 c 0
 306 875 335 905 370 905 c 0
 406 905 436 875 436 839 c 0
EndSplineSet
EndChar

StartChar: Yacute
Encoding: 221 221 156
Width: 611
Flags: MW
HStem: 0 20 649 20<71 356 356 356 452 659 659 659>
LayerCount: 2
Fore
SplineSet
659 669 m 1
 659 644 l 1
 621 639 599 617 567 572 c 2
 378 308 l 1
 326 117 l 2
 321 97 316 80 316 66 c 0
 316 38 333 25 395 25 c 1
 395 0 l 1
 72 0 l 1
 72 25 l 1
 138 31 159 40 176 103 c 2
 233 311 l 1
 146 581 l 2
 130 629 123 633 71 644 c 1
 71 669 l 1
 356 669 l 1
 356 644 l 1
 301 642 287 635 287 605 c 0
 287 587 295 561 316 495 c 2
 362 352 l 1
 490 535 l 2
 511 565 518 584 518 602 c 0
 518 633 505 642 452 644 c 1
 452 669 l 1
 659 669 l 1
357 766 m 1
 479 897 l 2
 515 935 531 947 549 947 c 0
 575 947 597 926 597 900 c 0
 597 881 588 870 558 853 c 2
 406 766 l 1
 357 766 l 1
EndSplineSet
EndChar

StartChar: Thorn
Encoding: 222 222 157
Width: 611
Flags: MW
HStem: 0 20 182 35<286.5 299.5 264.5 344.5> 502 32<325.5 356 356 369.5> 649 20<112 407 407 407>
LayerCount: 2
Fore
SplineSet
312 534 m 1
 356 534 l 2
 502 534 573 487 573 386 c 0
 573 330 550 277 509 243 c 0
 461 204 389 182 300 182 c 0
 273 182 254 183 219 187 c 1
 203 126 l 2
 194 91 195 74 195 64 c 0
 195 37 210 28 266 25 c 1
 266 0 l 1
 -27 0 l 1
 -27 25 l 1
 25 33 40 51 54 102 c 2
 174 538 l 2
 182 569 186 592 186 607 c 0
 186 627 174 636 143 640 c 2
 112 644 l 1
 112 669 l 1
 407 669 l 1
 406 644 l 1
 353 636 345 629 325 572 c 2
 312 534 l 1
292 451 m 2
 229 219 l 1
 246 218 258 217 271 217 c 0
 328 217 363 232 388 269 c 0
 411 304 427 367 427 411 c 0
 427 469 396 502 343 502 c 0
 308 502 302 488 292 451 c 2
EndSplineSet
EndChar

StartChar: germandbls
Encoding: 223 223 158
Width: 500
Flags: MW
HStem: -200 31<-108 -89.5 -108 -50.5> -7 34<203 224 203 242.5> 675 30<293 331.5>
VStem: -200 82<-146 -145.5 -158 -107>
LayerCount: 2
Fore
SplineSet
-16 -20 m 2
 76 403 l 2
 119 601 205 705 327 705 c 0
 412 705 473 655 473 579 c 0
 473 518 452 481 404 444 c 0
 378 424 346 417 291 399 c 1
 291 398 l 1
 379 384 435 338 435 255 c 0
 435 182 401 112 362 65 c 0
 321 16 272 -7 213 -7 c 0
 183 -7 165 -1 142 15 c 1
 162 50 l 1
 166 45 l 2
 174 35 195 27 211 27 c 0
 237 27 253 47 272 87 c 0
 297 140 315 240 315 304 c 0
 315 334 306 358 291 369 c 0
 281 376 268 380 239 384 c 1
 246 421 l 1
 263 421 l 2
 286 421 316 437 333 474 c 0
 350 511 362 567 362 614 c 0
 362 656 347 675 316 675 c 0
 270 675 240 626 214 509 c 2
 125 111 l 2
 73 -120 2 -200 -103 -200 c 0
 -163 -200 -200 -169 -200 -123 c 0
 -200 -91 -179 -67 -148 -67 c 0
 -118 -67 -101 -85 -101 -113 c 0
 -101 -139 -118 -137 -118 -154 c 0
 -118 -162 -114 -169 -102 -169 c 0
 -77 -169 -62 -157 -53 -135 c 1
 -40 -110 -27 -70 -16 -20 c 2
EndSplineSet
EndChar

StartChar: agrave
Encoding: 224 224 159
Width: 500
Flags: MW
HStem: -14 20 -13 71<54.5 158.5> 420 42<245 273.5 219.5 277>
LayerCount: 2
Fore
SplineSet
435 127 m 1x60
 456 112 l 1
 398 18 347 -14 300 -14 c 0x80
 263 -14 237 7 237 50 c 0
 237 64 239 78 251 119 c 1
 195 24 148 -13 87 -13 c 0
 22 -13 -21 38 -21 114 c 0
 -21 194 15 278 66 345 c 0
 119 415 187 462 252 462 c 0
 295 462 317 441 326 390 c 1
 327 390 l 1
 344 449 l 1
 455 456 l 1
 380 205 l 2
 356 126 350 97 350 72 c 0
 350 63 354 57 362 57 c 0
 378 57 394 72 435 127 c 1x60
303 373 m 0x60
 303 400 288 420 266 420 c 0
 224 420 186 362 158 305 c 0
 123 234 102 153 102 115 c 0
 102 75 119 58 145 58 c 0
 172 58 204 84 231 133 c 0
 270 202 303 313 303 373 c 0x60
416 516 m 1
 370 516 l 1
 238 604 l 2
 216 619 204 636 204 652 c 0
 204 676 225 697 249 697 c 0
 268 697 287 688 305 664 c 2
 416 516 l 1
EndSplineSet
EndChar

StartChar: aacute
Encoding: 225 225 160
Width: 500
Flags: MW
HStem: -14 20 -13 71<54.5 158.5> 420 42<245 273.5 219.5 277>
LayerCount: 2
Fore
SplineSet
435 127 m 1x60
 456 112 l 1
 398 18 347 -14 300 -14 c 0x80
 263 -14 237 7 237 50 c 0
 237 64 239 78 251 119 c 1
 195 24 148 -13 87 -13 c 0
 22 -13 -21 38 -21 114 c 0
 -21 194 15 278 66 345 c 0
 119 415 187 462 252 462 c 0
 295 462 317 441 326 390 c 1
 327 390 l 1
 344 449 l 1
 455 456 l 1
 380 205 l 2
 356 126 350 97 350 72 c 0
 350 63 354 57 362 57 c 0
 378 57 394 72 435 127 c 1x60
303 373 m 0x60
 303 400 288 420 266 420 c 0
 224 420 186 362 158 305 c 0
 123 234 102 153 102 115 c 0
 102 75 119 58 145 58 c 0
 172 58 204 84 231 133 c 0
 270 202 303 313 303 373 c 0x60
192 516 m 1
 314 647 l 2
 350 685 366 697 384 697 c 0
 410 697 432 676 432 650 c 0
 432 631 423 620 393 603 c 2
 241 516 l 1
 192 516 l 1
EndSplineSet
EndChar

StartChar: acircumflex
Encoding: 226 226 161
Width: 500
Flags: MW
HStem: -14 20 -13 71<54.5 158.5> 420 42<245 273.5 219.5 277>
LayerCount: 2
Fore
SplineSet
435 127 m 1x60
 456 112 l 1
 398 18 347 -14 300 -14 c 0x80
 263 -14 237 7 237 50 c 0
 237 64 239 78 251 119 c 1
 195 24 148 -13 87 -13 c 0
 22 -13 -21 38 -21 114 c 0
 -21 194 15 278 66 345 c 0
 119 415 187 462 252 462 c 0
 295 462 317 441 326 390 c 1
 327 390 l 1
 344 449 l 1
 455 456 l 1
 380 205 l 2
 356 126 350 97 350 72 c 0
 350 63 354 57 362 57 c 0
 378 57 394 72 435 127 c 1x60
303 373 m 0x60
 303 400 288 420 266 420 c 0
 224 420 186 362 158 305 c 0
 123 234 102 153 102 115 c 0
 102 75 119 58 145 58 c 0
 172 58 204 84 231 133 c 0
 270 202 303 313 303 373 c 0x60
475 516 m 1
 424 516 l 1
 336 611 l 1
 205 516 l 1
 148 516 l 1
 308 690 l 1
 389 690 l 1
 475 516 l 1
EndSplineSet
EndChar

StartChar: atilde
Encoding: 227 227 162
Width: 500
Flags: MW
HStem: -14 20 -13 71<54.5 158.5> 420 42<245 273.5 219.5 277> 536 77<399 410> 580 75<225.5 231.5>
LayerCount: 2
Fore
SplineSet
456 655 m 1x08
 497 655 l 1x68
 475 571 440 536 380 536 c 0x10
 361 536 350 538 323 549 c 2
 264 572 l 2
 251 577 237 580 226 580 c 0
 204 580 191 569 178 537 c 1
 138 537 l 1
 151 609 197 655 254 655 c 0x08
 279 655 310 647 351 629 c 0
 378 618 393 613 405 613 c 0x10
 428 613 441 623 456 655 c 1x08
435 127 m 1
 456 112 l 1
 398 18 347 -14 300 -14 c 0x80
 263 -14 237 7 237 50 c 0
 237 64 239 78 251 119 c 1
 195 24 148 -13 87 -13 c 0
 22 -13 -21 38 -21 114 c 0
 -21 194 15 278 66 345 c 0
 119 415 187 462 252 462 c 0
 295 462 317 441 326 390 c 1
 327 390 l 1
 344 449 l 1
 455 456 l 1
 380 205 l 2
 356 126 350 97 350 72 c 0
 350 63 354 57 362 57 c 0
 378 57 394 72 435 127 c 1
303 373 m 0x60
 303 400 288 420 266 420 c 0
 224 420 186 362 158 305 c 0
 123 234 102 153 102 115 c 0
 102 75 119 58 145 58 c 0
 172 58 204 84 231 133 c 0
 270 202 303 313 303 373 c 0x60
EndSplineSet
EndChar

StartChar: adieresis
Encoding: 228 228 163
Width: 500
Flags: MW
HStem: -14 20 -13 71<54.5 158.5> 420 42<245 273.5 219.5 277> 525 130<190 225 402 437>
VStem: 143 130<572 607> 355 130<572 607>
LayerCount: 2
Fore
SplineSet
435 127 m 1x6c
 456 112 l 1
 398 18 347 -14 300 -14 c 0x8c
 263 -14 237 7 237 50 c 0
 237 64 239 78 251 119 c 1
 195 24 148 -13 87 -13 c 0
 22 -13 -21 38 -21 114 c 0
 -21 194 15 278 66 345 c 0
 119 415 187 462 252 462 c 0
 295 462 317 441 326 390 c 1
 327 390 l 1
 344 449 l 1
 455 456 l 1
 380 205 l 2
 356 126 350 97 350 72 c 0
 350 63 354 57 362 57 c 0
 378 57 394 72 435 127 c 1x6c
303 373 m 0x7c
 303 400 288 420 266 420 c 0
 224 420 186 362 158 305 c 0
 123 234 102 153 102 115 c 0
 102 75 119 58 145 58 c 0
 172 58 204 84 231 133 c 0
 270 202 303 313 303 373 c 0x7c
485 589 m 0
 485 554 455 525 419 525 c 0
 385 525 355 555 355 589 c 0
 355 625 384 655 419 655 c 0
 455 655 485 625 485 589 c 0
273 589 m 0
 273 554 243 525 207 525 c 0
 173 525 143 555 143 589 c 0
 143 625 172 655 207 655 c 0
 243 655 273 625 273 589 c 0
EndSplineSet
EndChar

StartChar: aring
Encoding: 229 229 164
Width: 500
Flags: MW
HStem: -14 20 -13 71<54.5 158.5> 420 42<245 273.5 219.5 277> 543 48<302.5 334.5 302.5 348.5> 708 48<302.5 334.5>
VStem: 213 48<633 665 633 680.5> 378 48<632.5 664.5>
LayerCount: 2
Fore
SplineSet
435 127 m 1x66
 456 112 l 1
 398 18 347 -14 300 -14 c 0x86
 263 -14 237 7 237 50 c 0
 237 64 239 78 251 119 c 1
 195 24 148 -13 87 -13 c 0
 22 -13 -21 38 -21 114 c 0
 -21 194 15 278 66 345 c 0
 119 415 187 462 252 462 c 0
 295 462 317 441 326 390 c 1
 327 390 l 1
 344 449 l 1
 455 456 l 1
 380 205 l 2
 356 126 350 97 350 72 c 0
 350 63 354 57 362 57 c 0
 378 57 394 72 435 127 c 1x66
303 373 m 0x7e
 303 400 288 420 266 420 c 0
 224 420 186 362 158 305 c 0
 123 234 102 153 102 115 c 0
 102 75 119 58 145 58 c 0
 172 58 204 84 231 133 c 0
 270 202 303 313 303 373 c 0x7e
426 650 m 0
 426 591 378 543 319 543 c 0
 255 543 213 588 213 651 c 0
 213 710 262 756 320 756 c 0
 383 756 426 709 426 650 c 0
378 648 m 0
 378 681 351 708 318 708 c 0
 287 708 261 681 261 649 c 0
 261 617 287 591 318 591 c 0
 351 591 378 617 378 648 c 0
EndSplineSet
EndChar

StartChar: ae
Encoding: 230 230 165
Width: 722
Flags: MW
HStem: -13 63<446.5 467> -12 70<76 186> 419 43<241.5 292 241.5 299> 429 30<548.5 559.5>
VStem: 583 90<347 399.5 331 402.5>
LayerCount: 2
Fore
SplineSet
473 459 m 1x18
 453 394 l 1
 491 443 524 459 573 459 c 0
 636 459 673 427 673 372 c 0
 673 290 590 211 443 187 c 2
 406 181 l 1
 402 161 401 150 401 135 c 0
 401 82 426 50 467 50 c 0
 515 50 557 81 591 140 c 1
 619 123 l 1
 576 35 509 -13 425 -13 c 0x98
 336 -13 292 32 282 118 c 1
 226 25 176 -12 109 -12 c 0
 43 -12 -5 26 -5 106 c 0
 -5 196 40 294 102 365 c 0
 152 423 213 462 270 462 c 0x68
 314 462 334 446 352 396 c 1
 370 454 l 1
 473 459 l 1x18
418 231 m 2
 413 214 l 1
 498 224 583 306 583 388 c 0
 583 417 571 429 548 429 c 0
 498 429 457 365 418 231 c 2
333 363 m 0x68
 333 396 313 419 285 419 c 0
 192 419 121 204 121 124 c 0
 121 81 139 58 169 58 c 0
 203 58 232 86 262 137 c 0
 302 205 333 308 333 363 c 0x68
EndSplineSet
EndChar

StartChar: ccedilla
Encoding: 231 231 166
Width: 444
Flags: MW
HStem: -218 41<70 82 54 123.5> -13 64<145 217.5> 429 33<250 277>
VStem: 121 91<-148.5 -124.5>
LayerCount: 2
Fore
SplineSet
31 -92 m 1
 91 -4 l 1
 31 14 -5 63 -5 138 c 0
 -5 224 36 311 96 373 c 0
 148 427 218 462 279 462 c 0
 340 462 392 425 392 371 c 0
 392 329 367 301 330 301 c 0
 296 301 272 324 272 354 c 0
 272 379 293 390 293 412 c 0
 293 422 283 429 271 429 c 0
 229 429 199 391 175 342 c 0
 141 272 123 179 123 140 c 0
 123 87 152 51 196 51 c 0
 239 51 270 74 318 141 c 1
 346 123 l 1
 313 73 283 33 243 10 c 0
 217 -5 186 -13 148 -13 c 0
 142 -13 137 -13 130 -12 c 1
 96 -62 l 1
 106 -60 112 -59 122 -59 c 0
 174 -59 212 -89 212 -131 c 0
 212 -181 159 -218 88 -218 c 0
 52 -218 20 -211 -24 -193 c 1
 -2 -160 l 1
 26 -173 43 -177 65 -177 c 0
 99 -177 121 -161 121 -136 c 0
 121 -113 104 -100 74 -100 c 0
 64 -100 56 -101 44 -104 c 1
 31 -92 l 1
EndSplineSet
EndChar

StartChar: egrave
Encoding: 232 232 167
Width: 444
Flags: MW
HStem: -13 64<178 189.5> 429 33<251 287>
VStem: 306 92<353.5 400.5 353.5 401.5>
LayerCount: 2
Fore
SplineSet
317 143 m 1
 346 126 l 1
 290 26 228 -13 151 -13 c 0
 64 -13 5 35 5 134 c 0
 5 299 148 462 293 462 c 0
 358 462 398 426 398 375 c 0
 398 332 369 287 329 253 c 0
 286 217 238 199 141 182 c 1
 137 162 135 149 135 133 c 0
 135 79 157 51 199 51 c 0
 242 51 271 74 317 143 c 1
306 390 m 0
 306 413 299 429 275 429 c 0
 227 429 184 353 148 214 c 1
 238 234 306 307 306 390 c 0
388 516 m 1
 342 516 l 1
 210 604 l 2
 188 619 176 636 176 652 c 0
 176 676 197 697 221 697 c 0
 240 697 259 688 277 664 c 2
 388 516 l 1
EndSplineSet
EndChar

StartChar: eacute
Encoding: 233 233 168
Width: 444
Flags: MW
HStem: -13 64<178 189.5> 429 33<251 287>
VStem: 306 92<353.5 400.5 353.5 401.5>
LayerCount: 2
Fore
SplineSet
317 143 m 1
 346 126 l 1
 290 26 228 -13 151 -13 c 0
 64 -13 5 35 5 134 c 0
 5 299 148 462 293 462 c 0
 358 462 398 426 398 375 c 0
 398 332 369 287 329 253 c 0
 286 217 238 199 141 182 c 1
 137 162 135 149 135 133 c 0
 135 79 157 51 199 51 c 0
 242 51 271 74 317 143 c 1
306 390 m 0
 306 413 299 429 275 429 c 0
 227 429 184 353 148 214 c 1
 238 234 306 307 306 390 c 0
179 516 m 1
 301 647 l 2
 337 685 353 697 371 697 c 0
 397 697 419 676 419 650 c 0
 419 631 410 620 380 603 c 2
 228 516 l 1
 179 516 l 1
EndSplineSet
EndChar

StartChar: ecircumflex
Encoding: 234 234 169
Width: 444
Flags: MW
HStem: -13 64<178 189.5> 429 33<251 287>
VStem: 306 92<353.5 400.5 353.5 401.5>
LayerCount: 2
Fore
SplineSet
317 143 m 1
 346 126 l 1
 290 26 228 -13 151 -13 c 0
 64 -13 5 35 5 134 c 0
 5 299 148 462 293 462 c 0
 358 462 398 426 398 375 c 0
 398 332 369 287 329 253 c 0
 286 217 238 199 141 182 c 1
 137 162 135 149 135 133 c 0
 135 79 157 51 199 51 c 0
 242 51 271 74 317 143 c 1
306 390 m 0
 306 413 299 429 275 429 c 0
 227 429 184 353 148 214 c 1
 238 234 306 307 306 390 c 0
462 516 m 1
 411 516 l 1
 323 611 l 1
 192 516 l 1
 135 516 l 1
 295 690 l 1
 376 690 l 1
 462 516 l 1
EndSplineSet
EndChar

StartChar: edieresis
Encoding: 235 235 170
Width: 444
Flags: MW
HStem: -13 64<178 189.5> 429 33<251 287> 525 130<175 210 387 422>
VStem: 128 130<572 607> 306 92<353.5 400.5 353.5 401.5> 340 130<572 607>
LayerCount: 2
Fore
SplineSet
317 143 m 1xe8
 346 126 l 1
 290 26 228 -13 151 -13 c 0
 64 -13 5 35 5 134 c 0
 5 299 148 462 293 462 c 0
 358 462 398 426 398 375 c 0
 398 332 369 287 329 253 c 0
 286 217 238 199 141 182 c 1
 137 162 135 149 135 133 c 0
 135 79 157 51 199 51 c 0
 242 51 271 74 317 143 c 1xe8
306 390 m 0
 306 413 299 429 275 429 c 0
 227 429 184 353 148 214 c 1
 238 234 306 307 306 390 c 0
470 589 m 0xf4
 470 554 440 525 404 525 c 0
 370 525 340 555 340 589 c 0
 340 625 369 655 404 655 c 0
 440 655 470 625 470 589 c 0xf4
258 589 m 0
 258 554 228 525 192 525 c 0
 158 525 128 555 128 589 c 0
 128 625 157 655 192 655 c 0
 228 655 258 625 258 589 c 0
EndSplineSet
EndChar

StartChar: igrave
Encoding: 236 236 171
Width: 278
Flags: MW
HStem: -9 20
LayerCount: 2
Fore
SplineSet
216 142 m 1
 238 128 l 1
 172 20 130 -9 70 -9 c 0
 29 -9 2 11 2 54 c 0
 2 68 7 94 17 130 c 2
 72 333 l 2
 78 357 80 370 80 378 c 0
 80 397 64 407 34 407 c 2
 20 407 l 1
 20 434 l 1
 98 440 169 450 223 462 c 1
 132 128 l 2
 127 111 123 86 123 77 c 0
 123 65 130 61 138 61 c 0
 153 61 175 84 202 122 c 2
 216 142 l 1
294 516 m 1
 248 516 l 1
 116 604 l 2
 94 619 82 636 82 652 c 0
 82 676 103 697 127 697 c 0
 146 697 165 688 183 664 c 2
 294 516 l 1
EndSplineSet
EndChar

StartChar: iacute
Encoding: 237 237 172
Width: 278
Flags: MW
HStem: -9 20
LayerCount: 2
Fore
SplineSet
216 142 m 1
 238 128 l 1
 172 20 130 -9 70 -9 c 0
 29 -9 2 11 2 54 c 0
 2 68 7 94 17 130 c 2
 72 333 l 2
 78 357 80 370 80 378 c 0
 80 397 64 407 34 407 c 2
 20 407 l 1
 20 434 l 1
 98 440 169 450 223 462 c 1
 132 128 l 2
 127 111 123 86 123 77 c 0
 123 65 130 61 138 61 c 0
 153 61 175 84 202 122 c 2
 216 142 l 1
70 516 m 1
 192 647 l 2
 228 685 244 697 262 697 c 0
 288 697 310 676 310 650 c 0
 310 631 301 620 271 603 c 2
 119 516 l 1
 70 516 l 1
EndSplineSet
EndChar

StartChar: icircumflex
Encoding: 238 238 173
Width: 278
Flags: MW
HStem: -9 20
LayerCount: 2
Fore
SplineSet
216 142 m 1
 238 128 l 1
 172 20 130 -9 70 -9 c 0
 29 -9 2 11 2 54 c 0
 2 68 7 94 17 130 c 2
 72 333 l 2
 78 357 80 370 80 378 c 0
 80 397 64 407 34 407 c 2
 20 407 l 1
 20 434 l 1
 98 440 169 450 223 462 c 1
 132 128 l 2
 127 111 123 86 123 77 c 0
 123 65 130 61 138 61 c 0
 153 61 175 84 202 122 c 2
 216 142 l 1
353 516 m 1
 302 516 l 1
 214 611 l 1
 83 516 l 1
 26 516 l 1
 186 690 l 1
 267 690 l 1
 353 516 l 1
EndSplineSet
EndChar

StartChar: idieresis
Encoding: 239 239 174
Width: 278
Flags: MW
HStem: -9 20 525 130<67 102 279 314>
VStem: 20 130<572 607> 232 130<572 607>
LayerCount: 2
Fore
SplineSet
216 142 m 1
 238 128 l 1
 172 20 130 -9 70 -9 c 0
 29 -9 2 11 2 54 c 0
 2 68 7 94 17 130 c 2
 72 333 l 2
 78 357 80 370 80 378 c 0
 80 397 64 407 34 407 c 2
 20 407 l 1
 20 434 l 1
 98 440 169 450 223 462 c 1
 132 128 l 2
 127 111 123 86 123 77 c 0
 123 65 130 61 138 61 c 0
 153 61 175 84 202 122 c 2
 216 142 l 1
362 589 m 0
 362 554 332 525 296 525 c 0
 262 525 232 555 232 589 c 0
 232 625 261 655 296 655 c 0
 332 655 362 625 362 589 c 0
150 589 m 0
 150 554 120 525 84 525 c 0
 50 525 20 555 20 589 c 0
 20 625 49 655 84 655 c 0
 120 655 150 625 150 589 c 0
EndSplineSet
EndChar

StartChar: eth
Encoding: 240 240 175
Width: 500
Flags: MW
HStem: -13 29<148.5 190.5 148.5 238.5> 433 29<232 287.5 203 290>
LayerCount: 2
Fore
SplineSet
454 664 m 1
 347 608 l 1
 415 534 441 471 441 380 c 0
 441 171 322 -13 155 -13 c 0
 61 -13 -3 50 -3 134 c 0
 -3 309 134 462 272 462 c 0
 303 462 326 450 343 420 c 1
 345 424 l 1
 341 478 322 524 283 574 c 1
 164 512 l 1
 131 543 l 1
 253 607 l 1
 213 645 176 665 136 672 c 1
 181 699 l 1
 230 692 270 674 313 639 c 1
 420 696 l 1
 454 664 l 1
322 375 m 0
 322 411 304 433 276 433 c 0
 188 433 116 194 116 86 c 0
 116 39 132 16 165 16 c 0
 216 16 249 79 274 145 c 0
 301 218 322 318 322 375 c 0
EndSplineSet
EndChar

StartChar: ntilde
Encoding: 241 241 176
Width: 556
Flags: MW
HStem: -9 20 0 20 442 20<382.5 426.5> 536 77<409 420> 580 75<235.5 241.5>
LayerCount: 2
Fore
SplineSet
466 655 m 1x08
 507 655 l 1x68
 485 571 450 536 390 536 c 0x10
 371 536 360 538 333 549 c 2
 274 572 l 2
 261 577 247 580 236 580 c 0
 214 580 201 569 188 537 c 1
 148 537 l 1
 161 609 207 655 264 655 c 0x08
 289 655 320 647 361 629 c 0
 388 618 403 613 415 613 c 0x10
 438 613 451 623 466 655 c 1x08
472 135 m 1
 494 122 l 1
 439 25 394 -9 334 -9 c 0x80
 291 -9 266 10 266 51 c 0
 266 77 276 128 292 176 c 2
 347 341 l 2
 350 351 354 366 354 369 c 0
 354 386 342 390 329 390 c 0
 311 390 280 363 260 336 c 0
 198 255 161 174 115 0 c 1
 -6 0 l 1
 51 204 l 2
 84 324 96 371 96 383 c 0
 96 402 83 406 41 407 c 1
 41 434 l 1
 97 436 176 447 240 461 c 1
 178 263 l 1
 179 263 l 1
 246 362 264 386 301 421 c 0
 328 447 364 462 401 462 c 0
 452 462 474 434 474 385 c 0
 474 361 462 316 446 269 c 2
 411 165 l 2
 392 109 387 86 387 76 c 0
 387 66 393 59 401 59 c 0
 418 59 432 73 472 135 c 1
EndSplineSet
EndChar

StartChar: ograve
Encoding: 242 242 177
Width: 500
Flags: MW
HStem: -13 29<150 178 150 194.5>
LayerCount: 2
Fore
SplineSet
280 462 m 2
 284 462 l 2
 381 462 441 403 441 311 c 0
 441 217 397 123 336 62 c 0
 287 13 228 -13 161 -13 c 0
 67 -13 -3 37 -3 135 c 0
 -3 235 37 326 97 385 c 0
 148 435 212 462 280 462 c 2
322 372 m 0
 322 410 304 433 275 433 c 0
 254 433 234 423 215 402 c 0
 155 335 116 182 116 80 c 0
 116 36 135 16 165 16 c 0
 191 16 215 31 236 65 c 0
 285 145 322 285 322 372 c 0
405 516 m 1
 359 516 l 1
 227 604 l 2
 205 619 193 636 193 652 c 0
 193 676 214 697 238 697 c 0
 257 697 276 688 294 664 c 2
 405 516 l 1
EndSplineSet
EndChar

StartChar: oacute
Encoding: 243 243 178
Width: 500
Flags: MW
HStem: -13 29<150 178 150 194.5>
LayerCount: 2
Fore
SplineSet
280 462 m 2
 284 462 l 2
 381 462 441 403 441 311 c 0
 441 217 397 123 336 62 c 0
 287 13 228 -13 161 -13 c 0
 67 -13 -3 37 -3 135 c 0
 -3 235 37 326 97 385 c 0
 148 435 212 462 280 462 c 2
322 372 m 0
 322 410 304 433 275 433 c 0
 254 433 234 423 215 402 c 0
 155 335 116 182 116 80 c 0
 116 36 135 16 165 16 c 0
 191 16 215 31 236 65 c 0
 285 145 322 285 322 372 c 0
179 516 m 1
 301 647 l 2
 337 685 353 697 371 697 c 0
 397 697 419 676 419 650 c 0
 419 631 410 620 380 603 c 2
 228 516 l 1
 179 516 l 1
EndSplineSet
EndChar

StartChar: ocircumflex
Encoding: 244 244 179
Width: 500
Flags: MW
HStem: -13 29<150 178 150 194.5>
LayerCount: 2
Fore
SplineSet
280 462 m 2
 284 462 l 2
 381 462 441 403 441 311 c 0
 441 217 397 123 336 62 c 0
 287 13 228 -13 161 -13 c 0
 67 -13 -3 37 -3 135 c 0
 -3 235 37 326 97 385 c 0
 148 435 212 462 280 462 c 2
322 372 m 0
 322 410 304 433 275 433 c 0
 254 433 234 423 215 402 c 0
 155 335 116 182 116 80 c 0
 116 36 135 16 165 16 c 0
 191 16 215 31 236 65 c 0
 285 145 322 285 322 372 c 0
462 516 m 1
 411 516 l 1
 323 611 l 1
 192 516 l 1
 135 516 l 1
 295 690 l 1
 376 690 l 1
 462 516 l 1
EndSplineSet
EndChar

StartChar: otilde
Encoding: 245 245 180
Width: 500
Flags: MW
HStem: -13 29<150 178 150 194.5> 536 77<387 398> 580 75<213.5 219.5>
LayerCount: 2
Fore
SplineSet
444 655 m 1x20
 485 655 l 1xa0
 463 571 428 536 368 536 c 0x40
 349 536 338 538 311 549 c 2
 252 572 l 2
 239 577 225 580 214 580 c 0
 192 580 179 569 166 537 c 1
 126 537 l 1
 139 609 185 655 242 655 c 0x20
 267 655 298 647 339 629 c 0
 366 618 381 613 393 613 c 0x40
 416 613 429 623 444 655 c 1x20
280 462 m 2
 284 462 l 2
 381 462 441 403 441 311 c 0
 441 217 397 123 336 62 c 0
 287 13 228 -13 161 -13 c 0
 67 -13 -3 37 -3 135 c 0
 -3 235 37 326 97 385 c 0
 148 435 212 462 280 462 c 2
322 372 m 0
 322 410 304 433 275 433 c 0
 254 433 234 423 215 402 c 0
 155 335 116 182 116 80 c 0
 116 36 135 16 165 16 c 0
 191 16 215 31 236 65 c 0
 285 145 322 285 322 372 c 0
EndSplineSet
EndChar

StartChar: odieresis
Encoding: 246 246 181
Width: 500
Flags: MW
HStem: -13 29<150 178 150 194.5> 525 130<175 210 387 422>
VStem: 128 130<572 607> 340 130<572 607>
LayerCount: 2
Fore
SplineSet
280 462 m 2
 284 462 l 2
 381 462 441 403 441 311 c 0
 441 217 397 123 336 62 c 0
 287 13 228 -13 161 -13 c 0
 67 -13 -3 37 -3 135 c 0
 -3 235 37 326 97 385 c 0
 148 435 212 462 280 462 c 2
322 372 m 0
 322 410 304 433 275 433 c 0
 254 433 234 423 215 402 c 0
 155 335 116 182 116 80 c 0
 116 36 135 16 165 16 c 0
 191 16 215 31 236 65 c 0
 285 145 322 285 322 372 c 0
470 589 m 0
 470 554 440 525 404 525 c 0
 370 525 340 555 340 589 c 0
 340 625 369 655 404 655 c 0
 440 655 470 625 470 589 c 0
258 589 m 0
 258 554 228 525 192 525 c 0
 158 525 128 555 128 589 c 0
 128 625 157 655 192 655 c 0
 228 655 258 625 258 589 c 0
EndSplineSet
EndChar

StartChar: divide
Encoding: 247 247 182
Width: 570
Flags: MW
HStem: -29 148<264.5 305> 209 88<33 537 33 537> 387 148<264.5 305>
VStem: 211 148<24 65 24 66 440 481>
CounterMasks: 1 e0
LayerCount: 2
Fore
SplineSet
359 461 m 0
 359 419 326 387 284 387 c 0
 242 387 211 419 211 461 c 0
 211 503 243 535 286 535 c 0
 326 535 359 501 359 461 c 0
537 209 m 1
 33 209 l 1
 33 297 l 1
 537 297 l 1
 537 209 l 1
359 45 m 0
 359 3 326 -29 284 -29 c 0
 242 -29 211 3 211 45 c 0
 211 87 243 119 286 119 c 0
 326 119 359 85 359 45 c 0
EndSplineSet
EndChar

StartChar: oslash
Encoding: 248 248 183
Width: 500
Flags: MW
HStem: -13 29<157 184.5 157 231> 433 29<259 281.5>
LayerCount: 2
Fore
SplineSet
424 560 m 1
 359 444 l 1
 416 416 441 375 441 311 c 0
 441 142 305 -13 157 -13 c 0
 139 -13 126 -11 106 -5 c 1
 42 -119 l 1
 2 -119 l 1
 74 7 l 1
 21 37 -3 77 -3 134 c 0
 -3 304 136 462 286 462 c 0
 300 462 310 461 328 456 c 1
 387 560 l 1
 424 560 l 1
116 78 m 1
 307 419 l 1
 297 429 288 433 275 433 c 0
 243 433 214 410 189 365 c 0
 153 300 116 160 116 86 c 2
 116 78 l 1
321 377 m 1
 128 34 l 1
 138 21 149 16 165 16 c 0
 204 16 235 49 266 125 c 0
 295 194 322 312 322 372 c 0
 322 374 322 375 321 377 c 1
EndSplineSet
EndChar

StartChar: ugrave
Encoding: 249 249 184
Width: 556
Flags: MW
HStem: -9 72<68 167>
LayerCount: 2
Fore
SplineSet
471 133 m 1
 493 120 l 1
 441 31 394 -9 334 -9 c 0
 290 -9 266 10 266 51 c 0
 266 80 274 106 292 161 c 1
 291 161 l 1
 197 23 158 -9 93 -9 c 0
 43 -9 15 17 15 70 c 0
 15 95 23 126 37 176 c 2
 74 304 l 2
 82 333 91 363 91 379 c 0
 91 394 79 404 33 407 c 1
 33 434 l 1
 84 435 182 449 243 462 c 1
 150 160 l 2
 136 115 134 103 134 88 c 0
 134 71 144 63 158 63 c 0
 176 63 198 79 228 118 c 0
 286 194 316 249 370 449 c 1
 488 449 l 1
 410 183 l 2
 397 137 385 92 385 80 c 0
 385 70 388 59 399 59 c 0
 416 59 436 79 471 133 c 1
422 516 m 1
 376 516 l 1
 244 604 l 2
 222 619 210 636 210 652 c 0
 210 676 231 697 255 697 c 0
 274 697 293 688 311 664 c 2
 422 516 l 1
EndSplineSet
EndChar

StartChar: uacute
Encoding: 250 250 185
Width: 556
Flags: MW
HStem: -9 72<68 167>
LayerCount: 2
Fore
SplineSet
471 133 m 1
 493 120 l 1
 441 31 394 -9 334 -9 c 0
 290 -9 266 10 266 51 c 0
 266 80 274 106 292 161 c 1
 291 161 l 1
 197 23 158 -9 93 -9 c 0
 43 -9 15 17 15 70 c 0
 15 95 23 126 37 176 c 2
 74 304 l 2
 82 333 91 363 91 379 c 0
 91 394 79 404 33 407 c 1
 33 434 l 1
 84 435 182 449 243 462 c 1
 150 160 l 2
 136 115 134 103 134 88 c 0
 134 71 144 63 158 63 c 0
 176 63 198 79 228 118 c 0
 286 194 316 249 370 449 c 1
 488 449 l 1
 410 183 l 2
 397 137 385 92 385 80 c 0
 385 70 388 59 399 59 c 0
 416 59 436 79 471 133 c 1
196 516 m 1
 318 647 l 2
 354 685 370 697 388 697 c 0
 414 697 436 676 436 650 c 0
 436 631 427 620 397 603 c 2
 245 516 l 1
 196 516 l 1
EndSplineSet
EndChar

StartChar: ucircumflex
Encoding: 251 251 186
Width: 556
Flags: MW
HStem: -9 72<68 167>
LayerCount: 2
Fore
SplineSet
471 133 m 1
 493 120 l 1
 441 31 394 -9 334 -9 c 0
 290 -9 266 10 266 51 c 0
 266 80 274 106 292 161 c 1
 291 161 l 1
 197 23 158 -9 93 -9 c 0
 43 -9 15 17 15 70 c 0
 15 95 23 126 37 176 c 2
 74 304 l 2
 82 333 91 363 91 379 c 0
 91 394 79 404 33 407 c 1
 33 434 l 1
 84 435 182 449 243 462 c 1
 150 160 l 2
 136 115 134 103 134 88 c 0
 134 71 144 63 158 63 c 0
 176 63 198 79 228 118 c 0
 286 194 316 249 370 449 c 1
 488 449 l 1
 410 183 l 2
 397 137 385 92 385 80 c 0
 385 70 388 59 399 59 c 0
 416 59 436 79 471 133 c 1
481 516 m 1
 430 516 l 1
 342 611 l 1
 211 516 l 1
 154 516 l 1
 314 690 l 1
 395 690 l 1
 481 516 l 1
EndSplineSet
EndChar

StartChar: udieresis
Encoding: 252 252 187
Width: 556
Flags: MW
HStem: -9 72<68 167> 525 130<194 229 406 441>
VStem: 147 130<572 607> 359 130<572 607>
LayerCount: 2
Fore
SplineSet
471 133 m 1
 493 120 l 1
 441 31 394 -9 334 -9 c 0
 290 -9 266 10 266 51 c 0
 266 80 274 106 292 161 c 1
 291 161 l 1
 197 23 158 -9 93 -9 c 0
 43 -9 15 17 15 70 c 0
 15 95 23 126 37 176 c 2
 74 304 l 2
 82 333 91 363 91 379 c 0
 91 394 79 404 33 407 c 1
 33 434 l 1
 84 435 182 449 243 462 c 1
 150 160 l 2
 136 115 134 103 134 88 c 0
 134 71 144 63 158 63 c 0
 176 63 198 79 228 118 c 0
 286 194 316 249 370 449 c 1
 488 449 l 1
 410 183 l 2
 397 137 385 92 385 80 c 0
 385 70 388 59 399 59 c 0
 416 59 436 79 471 133 c 1
489 589 m 0
 489 554 459 525 423 525 c 0
 389 525 359 555 359 589 c 0
 359 625 388 655 423 655 c 0
 459 655 489 625 489 589 c 0
277 589 m 0
 277 554 247 525 211 525 c 0
 177 525 147 555 147 589 c 0
 147 625 176 655 211 655 c 0
 247 655 277 625 277 589 c 0
EndSplineSet
EndChar

StartChar: yacute
Encoding: 253 253 188
Width: 444
Flags: MW
HStem: -205 80<-49.5 58.5> 442 20<311.5 346.5>
VStem: 328 64<301.5 415>
LayerCount: 2
Fore
SplineSet
239 110 m 1
 241 110 l 1
 311 244 328 286 328 317 c 0
 328 330 321 336 303 351 c 0
 281 369 272 380 272 405 c 0
 272 430 293 462 330 462 c 0
 363 462 392 432 392 398 c 0
 392 297 273 60 143 -99 c 0
 88 -166 23 -205 -32 -205 c 0
 -67 -205 -94 -179 -94 -145 c 0
 -94 -116 -70 -89 -44 -89 c 0
 3 -89 14 -125 50 -125 c 0
 67 -125 96 -103 117 -73 c 0
 134 -49 142 -25 142 -2 c 0
 142 29 126 124 92 286 c 0
 79 345 68 383 52 399 c 0
 41 410 37 411 12 411 c 1
 12 438 l 1
 77 444 114 450 162 462 c 1
 180 415 210 313 228 188 c 2
 239 110 l 1
161 516 m 1
 283 647 l 2
 319 685 335 697 353 697 c 0
 379 697 401 676 401 650 c 0
 401 631 392 620 362 603 c 2
 210 516 l 1
 161 516 l 1
EndSplineSet
EndChar

StartChar: thorn
Encoding: 254 254 189
Width: 500
Flags: MW
HStem: -13 35<158.5 169 141 237> 391 71<269 371.5>
LayerCount: 2
Fore
SplineSet
185 359 m 1
 188 356 l 1
 239 432 282 462 339 462 c 0
 404 462 446 414 446 341 c 0
 446 168 305 -13 169 -13 c 0
 148 -13 136 -9 101 9 c 1
 97 -6 97 -8 90 -32 c 0
 71 -102 64 -132 64 -146 c 0
 64 -170 79 -177 129 -178 c 1
 129 -205 l 1
 -120 -205 l 1
 -120 -178 l 1
 -72 -178 -59 -160 -42 -93 c 2
 120 537 l 2
 133 586 137 605 137 612 c 0
 137 632 122 642 92 642 c 2
 74 642 l 1
 74 669 l 1
 164 679 212 686 280 699 c 1
 185 359 l 1
321 334 m 0
 321 367 310 391 282 391 c 0
 256 391 222 367 197 328 c 0
 182 305 173 280 151 207 c 0
 124 116 113 75 113 58 c 0
 113 38 130 22 152 22 c 0
 186 22 218 50 249 104 c 0
 285 169 321 268 321 334 c 0
EndSplineSet
EndChar

StartChar: ydieresis
Encoding: 255 255 190
Width: 444
Flags: MW
HStem: -205 80<-49.5 58.5> 442 20<311.5 346.5> 525 130<165 200 377 412>
VStem: 118 130<572 607> 328 64<301.5 415> 330 130<572 607>
LayerCount: 2
Fore
SplineSet
239 110 m 1xe8
 241 110 l 1
 311 244 328 286 328 317 c 0xe8
 328 330 321 336 303 351 c 0
 281 369 272 380 272 405 c 0
 272 430 293 462 330 462 c 0xe4
 363 462 392 432 392 398 c 0
 392 297 273 60 143 -99 c 0
 88 -166 23 -205 -32 -205 c 0
 -67 -205 -94 -179 -94 -145 c 0
 -94 -116 -70 -89 -44 -89 c 0
 3 -89 14 -125 50 -125 c 0
 67 -125 96 -103 117 -73 c 0
 134 -49 142 -25 142 -2 c 0
 142 29 126 124 92 286 c 0
 79 345 68 383 52 399 c 0
 41 410 37 411 12 411 c 1
 12 438 l 1
 77 444 114 450 162 462 c 1
 180 415 210 313 228 188 c 2
 239 110 l 1xe8
460 589 m 0xf4
 460 554 430 525 394 525 c 0
 360 525 330 555 330 589 c 0
 330 625 359 655 394 655 c 0
 430 655 460 625 460 589 c 0xf4
248 589 m 0
 248 554 218 525 182 525 c 0
 148 525 118 555 118 589 c 0
 118 625 147 655 182 655 c 0
 218 655 248 625 248 589 c 0
EndSplineSet
EndChar

StartChar: uni0100
Encoding: 256 256 191
Width: 667
Flags: MW
HStem: 0 20 208 40<161 346 161 353 138 346> 723 70<246 555 229 571>
LayerCount: 2
Fore
SplineSet
290 0 m 1
 290 25 l 1
 343 29 367 44 367 74 c 0
 367 79 366 83 365 89 c 2
 353 208 l 1
 138 208 l 1
 81 112 l 2
 70 94 64 77 64 62 c 0
 64 38 80 25 128 25 c 1
 128 0 l 1
 -67 0 l 1
 -68 25 l 1
 -31 29 -13 52 18 101 c 2
 388 683 l 1
 413 683 l 1
 507 123 l 2
 521 41 530 29 593 25 c 1
 593 0 l 1
 290 0 l 1
161 248 m 1
 346 248 l 1
 309 491 l 1
 161 248 l 1
571 793 m 1
 555 723 l 1
 229 723 l 1
 246 793 l 1
 571 793 l 1
EndSplineSet
EndChar

StartChar: uni0101
Encoding: 257 257 192
Width: 500
Flags: MW
HStem: -14 20 -13 71<54.5 158.5> 420 42<245 273.5 219.5 277> 516 70<161 470 144 486>
LayerCount: 2
Fore
SplineSet
435 127 m 1x60
 456 112 l 1
 398 18 347 -14 300 -14 c 0xa0
 263 -14 237 7 237 50 c 0
 237 64 239 78 251 119 c 1
 195 24 148 -13 87 -13 c 0
 22 -13 -21 38 -21 114 c 0
 -21 194 15 278 66 345 c 0
 119 415 187 462 252 462 c 0
 295 462 317 441 326 390 c 1
 327 390 l 1
 344 449 l 1
 455 456 l 1
 380 205 l 2
 356 126 350 97 350 72 c 0
 350 63 354 57 362 57 c 0
 378 57 394 72 435 127 c 1x60
266 420 m 0
 224 420 186 362 158 305 c 0
 123 234 102 153 102 115 c 0
 102 75 119 58 145 58 c 0x70
 172 58 204 84 231 133 c 0
 270 202 303 313 303 373 c 0
 303 400 288 420 266 420 c 0
486 586 m 1
 470 516 l 1
 144 516 l 1
 161 586 l 1
 486 586 l 1
EndSplineSet
EndChar

StartChar: uni0102
Encoding: 258 258 193
Width: 667
Flags: MW
HStem: 0 20 208 40<161 346 161 353 138 346> 723 72<352 417 352 428.5>
LayerCount: 2
Fore
SplineSet
290 0 m 1
 290 25 l 1
 343 29 367 44 367 74 c 0
 367 79 366 83 365 89 c 2
 353 208 l 1
 138 208 l 1
 81 112 l 2
 70 94 64 77 64 62 c 0
 64 38 80 25 128 25 c 1
 128 0 l 1
 -67 0 l 1
 -68 25 l 1
 -31 29 -13 52 18 101 c 2
 388 683 l 1
 413 683 l 1
 507 123 l 2
 521 41 530 29 593 25 c 1
 593 0 l 1
 290 0 l 1
161 248 m 1
 346 248 l 1
 309 491 l 1
 161 248 l 1
519 885 m 1
 558 885 l 1
 537 782 477 723 380 723 c 0
 287 723 242 777 242 872 c 2
 242 885 l 1
 285 885 l 1
 290 828 320 795 384 795 c 0
 450 795 488 819 519 885 c 1
EndSplineSet
EndChar

StartChar: uni0103
Encoding: 259 259 194
Width: 500
Flags: MW
HStem: -14 20 -13 71<54.5 158.5> 420 42<245 273.5 219.5 277> 516 72<277 342 277 353.5> 658 20<167 210 210 210 444 483 483 483>
LayerCount: 2
Fore
SplineSet
435 127 m 1x60
 456 112 l 1
 398 18 347 -14 300 -14 c 0xa0
 263 -14 237 7 237 50 c 0
 237 64 239 78 251 119 c 1
 195 24 148 -13 87 -13 c 0
 22 -13 -21 38 -21 114 c 0
 -21 194 15 278 66 345 c 0
 119 415 187 462 252 462 c 0
 295 462 317 441 326 390 c 1
 327 390 l 1
 344 449 l 1
 455 456 l 1
 380 205 l 2
 356 126 350 97 350 72 c 0
 350 63 354 57 362 57 c 0
 378 57 394 72 435 127 c 1x60
266 420 m 0
 224 420 186 362 158 305 c 0
 123 234 102 153 102 115 c 0
 102 75 119 58 145 58 c 0x78
 172 58 204 84 231 133 c 0
 270 202 303 313 303 373 c 0
 303 400 288 420 266 420 c 0
444 678 m 1
 483 678 l 1
 462 575 402 516 305 516 c 0
 212 516 167 570 167 665 c 2
 167 678 l 1
 210 678 l 1
 215 621 245 588 309 588 c 0
 375 588 413 612 444 678 c 1
EndSplineSet
EndChar

StartChar: uni0104
Encoding: 260 260 195
Width: 667
Flags: MW
HStem: -173 69<537 539.5> 0 20 208 40<161 346 161 353 138 346> 663 20<388 413 413 413>
VStem: 411 84<-118.5 -36.5>
LayerCount: 2
Fore
SplineSet
453 0 m 1
 290 0 l 1
 290 25 l 1
 343 29 367 44 367 74 c 0
 367 79 366 83 365 89 c 2
 353 208 l 1
 138 208 l 1
 81 112 l 2
 70 94 64 77 64 62 c 0
 64 38 80 25 128 25 c 1
 128 0 l 1
 -67 0 l 1
 -68 25 l 1
 -31 29 -13 52 18 101 c 2
 388 683 l 1
 413 683 l 1
 507 123 l 2
 521 41 530 29 593 25 c 1
 593 0 l 1
 501 0 l 1
 497 -19 495 -31 495 -42 c 0
 495 -87 518 -104 556 -104 c 0
 572 -104 584 -101 604 -91 c 0
 612 -87 613 -86 618 -84 c 1
 640 -98 l 1
 615 -145 565 -173 514 -173 c 0
 453 -173 411 -145 411 -92 c 0
 411 -62 422 -39 453 0 c 1
161 248 m 1
 346 248 l 1
 309 491 l 1
 161 248 l 1
EndSplineSet
EndChar

StartChar: uni0105
Encoding: 261 261 196
Width: 500
Flags: MW
HStem: -173 69<404 406.5> -14 20 -13 71<54.5 158.5> 420 42<245 273.5 219.5 277>
VStem: 278 84<-118.5 -35.5>
LayerCount: 2
Fore
SplineSet
485 -84 m 1xb8
 507 -98 l 1
 482 -145 432 -173 381 -173 c 0
 320 -173 278 -145 278 -92 c 0
 278 -65 287 -45 310 -13 c 1xb8
 306 -14 303 -14 300 -14 c 0x48
 263 -14 237 7 237 50 c 0
 237 64 239 78 251 119 c 1
 195 24 148 -13 87 -13 c 0
 22 -13 -21 38 -21 114 c 0
 -21 194 15 278 66 345 c 0
 119 415 187 462 252 462 c 0
 295 462 317 441 326 390 c 1
 327 390 l 1
 344 449 l 1
 455 456 l 1
 380 205 l 2
 356 126 350 97 350 72 c 0
 350 63 354 57 362 57 c 0
 378 57 394 72 435 127 c 1
 456 112 l 1
 426 63 398 31 371 12 c 1
 365 -14 362 -29 362 -42 c 0
 362 -87 385 -104 423 -104 c 0
 439 -104 451 -101 471 -91 c 0
 479 -87 480 -86 485 -84 c 1xb8
266 420 m 0
 224 420 186 362 158 305 c 0
 123 234 102 153 102 115 c 0
 102 75 119 58 145 58 c 0
 172 58 204 84 231 133 c 0
 270 202 303 313 303 373 c 0
 303 400 288 420 266 420 c 0
EndSplineSet
EndChar

StartChar: uni0106
Encoding: 262 262 197
Width: 667
Flags: MW
HStem: -18 53<294 334.5> 650 35<439.5 460.5 393.5 508.5>
LayerCount: 2
Fore
SplineSet
677 685 m 1
 626 450 l 1
 594 456 l 1
 596 469 597 479 597 492 c 0
 597 585 551 650 466 650 c 0
 413 650 359 620 321 577 c 0
 244 490 186 357 186 209 c 0
 186 100 247 35 341 35 c 0
 428 35 479 78 545 154 c 1
 576 132 l 1
 544 88 527 69 498 47 c 0
 441 4 370 -18 299 -18 c 0
 136 -18 32 83 32 234 c 0
 32 382 94 510 191 592 c 0
 260 650 347 685 440 685 c 0
 481 685 526 678 571 664 c 0
 586 659 601 656 609 656 c 0
 624 656 633 663 647 685 c 1
 677 685 l 1
409 723 m 1
 360 723 l 1
 482 854 l 2
 518 892 534 904 552 904 c 0
 578 904 600 883 600 857 c 0
 600 838 591 827 561 810 c 2
 409 723 l 1
EndSplineSet
EndChar

StartChar: uni0107
Encoding: 263 263 198
Width: 444
Flags: MW
HStem: -13 64<102.5 217.5> 429 33<250 275>
LayerCount: 2
Fore
SplineSet
318 142 m 1
 346 124 l 1
 308 72 276 28 231 5 c 0
 208 -7 181 -13 148 -13 c 0
 57 -13 -5 40 -5 138 c 0
 -5 230 38 315 100 377 c 0
 151 429 213 462 280 462 c 0
 340 462 392 425 392 372 c 0
 392 330 367 301 330 301 c 0
 296 301 272 324 272 354 c 0
 272 384 293 390 293 412 c 0
 293 422 281 429 269 429 c 0
 231 429 204 392 176 341 c 0
 143 280 123 207 123 140 c 0
 123 82 152 51 196 51 c 0
 239 51 270 75 318 142 c 1
188 516 m 1
 139 516 l 1
 261 647 l 2
 297 685 313 697 331 697 c 0
 357 697 379 676 379 650 c 0
 379 631 370 620 340 603 c 2
 188 516 l 1
EndSplineSet
EndChar

StartChar: uni0108
Encoding: 264 264 199
Width: 667
Flags: MW
HStem: -18 53<294 334.5> 650 35<439.5 460.5 393.5 508.5>
LayerCount: 2
Fore
SplineSet
677 685 m 1
 626 450 l 1
 594 456 l 1
 596 469 597 479 597 492 c 0
 597 585 551 650 466 650 c 0
 413 650 359 620 321 577 c 0
 244 490 186 357 186 209 c 0
 186 100 247 35 341 35 c 0
 428 35 479 78 545 154 c 1
 576 132 l 1
 544 88 527 69 498 47 c 0
 441 4 370 -18 299 -18 c 0
 136 -18 32 83 32 234 c 0
 32 382 94 510 191 592 c 0
 260 650 347 685 440 685 c 0
 481 685 526 678 571 664 c 0
 586 659 601 656 609 656 c 0
 624 656 633 663 647 685 c 1
 677 685 l 1
573 723 m 1
 485 818 l 1
 354 723 l 1
 297 723 l 1
 457 897 l 1
 538 897 l 1
 624 723 l 1
 573 723 l 1
EndSplineSet
EndChar

StartChar: uni0109
Encoding: 265 265 200
Width: 444
Flags: MW
HStem: -13 64<102.5 217.5> 429 33<250 275>
LayerCount: 2
Fore
SplineSet
318 142 m 1
 346 124 l 1
 308 72 276 28 231 5 c 0
 208 -7 181 -13 148 -13 c 0
 57 -13 -5 40 -5 138 c 0
 -5 230 38 315 100 377 c 0
 151 429 213 462 280 462 c 0
 340 462 392 425 392 372 c 0
 392 330 367 301 330 301 c 0
 296 301 272 324 272 354 c 0
 272 384 293 390 293 412 c 0
 293 422 281 429 269 429 c 0
 231 429 204 392 176 341 c 0
 143 280 123 207 123 140 c 0
 123 82 152 51 196 51 c 0
 239 51 270 75 318 142 c 1
364 516 m 1
 276 611 l 1
 145 516 l 1
 88 516 l 1
 248 690 l 1
 329 690 l 1
 415 516 l 1
 364 516 l 1
EndSplineSet
EndChar

StartChar: uni010A
Encoding: 266 266 201
Width: 667
Flags: MW
HStem: -18 53<294 334.5> 650 35<439.5 460.5 393.5 508.5> 732 130<432 467>
VStem: 385 130<779 814>
LayerCount: 2
Fore
SplineSet
677 685 m 1
 626 450 l 1
 594 456 l 1
 596 469 597 479 597 492 c 0
 597 585 551 650 466 650 c 0
 413 650 359 620 321 577 c 0
 244 490 186 357 186 209 c 0
 186 100 247 35 341 35 c 0
 428 35 479 78 545 154 c 1
 576 132 l 1
 544 88 527 69 498 47 c 0
 441 4 370 -18 299 -18 c 0
 136 -18 32 83 32 234 c 0
 32 382 94 510 191 592 c 0
 260 650 347 685 440 685 c 0
 481 685 526 678 571 664 c 0
 586 659 601 656 609 656 c 0
 624 656 633 663 647 685 c 1
 677 685 l 1
449 862 m 0
 485 862 515 832 515 796 c 0
 515 761 485 732 449 732 c 0
 415 732 385 762 385 796 c 0
 385 832 414 862 449 862 c 0
EndSplineSet
EndChar

StartChar: uni010B
Encoding: 267 267 202
Width: 444
Flags: MW
HStem: -13 64<102.5 217.5> 429 33<250 275> 525 130<262 297>
VStem: 215 130<572 607>
LayerCount: 2
Fore
SplineSet
318 142 m 1
 346 124 l 1
 308 72 276 28 231 5 c 0
 208 -7 181 -13 148 -13 c 0
 57 -13 -5 40 -5 138 c 0
 -5 230 38 315 100 377 c 0
 151 429 213 462 280 462 c 0
 340 462 392 425 392 372 c 0
 392 330 367 301 330 301 c 0
 296 301 272 324 272 354 c 0
 272 384 293 390 293 412 c 0
 293 422 281 429 269 429 c 0
 231 429 204 392 176 341 c 0
 143 280 123 207 123 140 c 0
 123 82 152 51 196 51 c 0
 239 51 270 75 318 142 c 1
279 655 m 0
 315 655 345 625 345 589 c 0
 345 554 315 525 279 525 c 0
 245 525 215 555 215 589 c 0
 215 625 244 655 279 655 c 0
EndSplineSet
EndChar

StartChar: uni010C
Encoding: 268 268 203
Width: 667
Flags: MW
HStem: -18 53<294 334.5> 650 35<439.5 460.5 393.5 508.5>
LayerCount: 2
Fore
SplineSet
677 685 m 1
 626 450 l 1
 594 456 l 1
 596 469 597 479 597 492 c 0
 597 585 551 650 466 650 c 0
 413 650 359 620 321 577 c 0
 244 490 186 357 186 209 c 0
 186 100 247 35 341 35 c 0
 428 35 479 78 545 154 c 1
 576 132 l 1
 544 88 527 69 498 47 c 0
 441 4 370 -18 299 -18 c 0
 136 -18 32 83 32 234 c 0
 32 382 94 510 191 592 c 0
 260 650 347 685 440 685 c 0
 481 685 526 678 571 664 c 0
 586 659 601 656 609 656 c 0
 624 656 633 663 647 685 c 1
 677 685 l 1
616 897 m 1
 454 723 l 1
 372 723 l 1
 284 897 l 1
 335 897 l 1
 425 800 l 1
 559 897 l 1
 616 897 l 1
EndSplineSet
EndChar

StartChar: uni010D
Encoding: 269 269 204
Width: 444
Flags: MW
HStem: -13 64<102.5 217.5> 429 33<250 275>
LayerCount: 2
Fore
SplineSet
318 142 m 1
 346 124 l 1
 308 72 276 28 231 5 c 0
 208 -7 181 -13 148 -13 c 0
 57 -13 -5 40 -5 138 c 0
 -5 230 38 315 100 377 c 0
 151 429 213 462 280 462 c 0
 340 462 392 425 392 372 c 0
 392 330 367 301 330 301 c 0
 296 301 272 324 272 354 c 0
 272 384 293 390 293 412 c 0
 293 422 281 429 269 429 c 0
 231 429 204 392 176 341 c 0
 143 280 123 207 123 140 c 0
 123 82 152 51 196 51 c 0
 239 51 270 75 318 142 c 1
437 690 m 1
 275 516 l 1
 193 516 l 1
 105 690 l 1
 156 690 l 1
 246 593 l 1
 380 690 l 1
 437 690 l 1
EndSplineSet
EndChar

StartChar: uni010E
Encoding: 270 270 205
Width: 722
Flags: MW
HStem: 0 34<216 242> 638 31<356.5 384 384 428.5>
LayerCount: 2
Fore
SplineSet
37 109 m 2
 152 531 l 2
 165 577 167 592 167 602 c 0
 167 626 158 635 128 639 c 2
 94 644 l 1
 94 669 l 1
 384 669 l 2
 573 669 685 568 685 405 c 0
 685 296 641 187 566 117 c 0
 487 44 375 0 242 0 c 2
 -46 0 l 1
 -46 25 l 1
 2 31 20 47 37 109 c 2
318 600 m 2
 192 135 l 2
 181 96 177 80 177 68 c 0
 177 44 197 34 235 34 c 0
 322 34 391 68 445 139 c 0
 507 220 538 332 538 457 c 0
 538 579 484 638 373 638 c 0
 340 638 326 628 318 600 c 2
586 897 m 1
 424 723 l 1
 342 723 l 1
 254 897 l 1
 305 897 l 1
 395 800 l 1
 529 897 l 1
 586 897 l 1
EndSplineSet
EndChar

StartChar: uni010F
Encoding: 271 271 206
Width: 658
Flags: MW
HStem: -13 72<54.5 158.5> -11 20 420 42<225.5 282>
VStem: 640 86<517 643>
LayerCount: 2
Fore
SplineSet
535 394 m 1xb0
 522 419 l 1
 601 461 640 499 640 535 c 0
 640 549 634 559 610 572 c 0
 578 590 570 610 570 637 c 0
 570 685 602 710 643 710 c 0
 696 710 726 670 726 616 c 0
 726 527 654 444 535 394 c 1xb0
517 699 m 1
 400 278 l 2
 365 152 349 84 349 75 c 0
 349 69 354 60 360 60 c 0
 375 60 400 86 428 131 c 1
 450 115 l 1
 395 27 349 -11 300 -11 c 0x50
 262 -11 240 12 240 50 c 0
 240 66 242 79 251 118 c 1
 199 24 146 -13 85 -13 c 0
 24 -13 -21 29 -21 112 c 0
 -21 211 37 324 110 394 c 0
 153 436 203 462 248 462 c 0
 277 462 301 454 323 429 c 1
 341 493 l 2
 366 581 370 606 370 615 c 0
 370 633 355 643 329 643 c 2
 308 643 l 1
 308 670 l 1
 408 678 457 685 517 699 c 1
308 371 m 0xb0
 308 399 293 420 271 420 c 0
 228 421 186 366 157 308 c 0
 124 242 103 164 103 122 c 0
 103 86 119 59 144 59 c 0
 173 59 203 84 230 133 c 0
 266 197 308 327 308 371 c 0xb0
EndSplineSet
EndChar

StartChar: uni0110
Encoding: 272 272 207
Width: 722
Flags: MW
HStem: 0 34<227 255> 329 44<22 112 10 124 272 382> 638 31<371.5 399 399 443.5>
LayerCount: 2
Fore
SplineSet
124 373 m 1
 170 543 l 2
 179 576 182 592 182 602 c 0
 182 626 168 634 140 639 c 2
 109 644 l 1
 109 669 l 1
 399 669 l 2
 588 669 700 567 700 396 c 0
 700 168 511 0 255 0 c 2
 -31 0 l 1
 -31 25 l 1
 17 31 35 46 49 97 c 2
 112 329 l 1
 10 329 l 1
 22 373 l 1
 124 373 l 1
272 373 m 1
 394 373 l 1
 382 329 l 1
 260 329 l 1
 204 122 l 2
 197 95 192 80 192 68 c 0
 192 44 208 34 246 34 c 0
 343 34 414 72 469 152 c 0
 521 229 553 346 553 457 c 0
 553 579 499 638 388 638 c 0
 355 638 340 628 333 600 c 2
 272 373 l 1
EndSplineSet
EndChar

StartChar: uni0111
Encoding: 273 273 208
Width: 500
Flags: MW
HStem: -13 72<54.5 158.5> -11 20 420 42<225.5 282> 518 50<180 348 166 361 480 527>
LayerCount: 2
Fore
SplineSet
180 568 m 1xb0
 361 568 l 1
 368 597 370 609 370 615 c 0
 370 633 355 643 329 643 c 2
 308 643 l 1
 308 670 l 1
 408 678 457 685 517 699 c 1
 480 568 l 1
 541 568 l 1
 527 518 l 1
 466 518 l 1
 400 278 l 2
 365 152 349 84 349 75 c 0
 349 69 354 60 360 60 c 0
 375 60 400 86 428 131 c 1
 450 115 l 1
 395 27 349 -11 300 -11 c 0x70
 262 -11 240 12 240 50 c 0
 240 66 242 79 251 118 c 1
 199 24 146 -13 85 -13 c 0
 24 -13 -21 29 -21 112 c 0
 -21 211 37 324 110 394 c 0
 153 436 203 462 248 462 c 0
 277 462 301 454 323 429 c 1
 348 518 l 1
 166 518 l 1
 180 568 l 1xb0
271 420 m 0
 228 421 186 366 157 308 c 0
 124 242 103 164 103 122 c 0
 103 86 119 59 144 59 c 0xa0
 173 59 203 84 230 133 c 0
 266 197 308 327 308 371 c 0
 308 399 293 420 271 420 c 0
EndSplineSet
EndChar

StartChar: uni0112
Encoding: 274 274 209
Width: 667
Flags: MW
HStem: 0 32<234.5 300 234.5 526> 637 32<380.5 431.5> 723 70<276 585 259 601>
LayerCount: 2
Fore
SplineSet
586 194 m 1
 526 0 l 1
 -27 0 l 1
 -27 25 l 1
 25 33 38 44 55 105 c 2
 174 537 l 2
 183 570 186 592 186 607 c 0
 186 627 176 636 145 640 c 2
 112 644 l 1
 112 669 l 1
 653 669 l 1
 610 479 l 1
 583 484 l 1
 580 555 579 580 538 607 c 0
 508 626 462 637 401 637 c 0
 360 637 346 631 334 586 c 2
 275 370 l 1
 407 370 433 383 480 477 c 1
 508 473 l 1
 434 199 l 1
 406 203 l 1
 409 222 410 233 410 247 c 0
 410 316 379 338 266 338 c 1
 203 104 l 2
 198 84 195 73 195 66 c 0
 195 42 213 32 256 32 c 0
 344 32 413 51 470 93 c 0
 507 120 527 143 561 199 c 1
 586 194 l 1
601 793 m 1
 585 723 l 1
 259 723 l 1
 276 793 l 1
 601 793 l 1
EndSplineSet
EndChar

StartChar: uni0113
Encoding: 275 275 210
Width: 444
Flags: MW
HStem: -13 64<178 189.5> 429 33<251 287> 516 70<106 415 89 431>
VStem: 306 92<353.5 400.5 353.5 401.5>
LayerCount: 2
Fore
SplineSet
317 143 m 1
 346 126 l 1
 290 26 228 -13 151 -13 c 0
 64 -13 5 35 5 134 c 0
 5 299 148 462 293 462 c 0
 358 462 398 426 398 375 c 0
 398 332 369 287 329 253 c 0
 286 217 238 199 141 182 c 1
 137 162 135 149 135 133 c 0
 135 79 157 51 199 51 c 0
 242 51 271 74 317 143 c 1
148 214 m 1
 238 234 306 307 306 390 c 0
 306 413 299 429 275 429 c 0
 227 429 184 353 148 214 c 1
431 586 m 1
 415 516 l 1
 89 516 l 1
 106 586 l 1
 431 586 l 1
EndSplineSet
EndChar

StartChar: uni0114
Encoding: 276 276 211
Width: 667
Flags: MW
HStem: 0 32<234.5 300 234.5 526> 637 32<380.5 431.5> 723 72<402 467 402 478.5>
LayerCount: 2
Fore
SplineSet
586 194 m 1
 526 0 l 1
 -27 0 l 1
 -27 25 l 1
 25 33 38 44 55 105 c 2
 174 537 l 2
 183 570 186 592 186 607 c 0
 186 627 176 636 145 640 c 2
 112 644 l 1
 112 669 l 1
 653 669 l 1
 610 479 l 1
 583 484 l 1
 580 555 579 580 538 607 c 0
 508 626 462 637 401 637 c 0
 360 637 346 631 334 586 c 2
 275 370 l 1
 407 370 433 383 480 477 c 1
 508 473 l 1
 434 199 l 1
 406 203 l 1
 409 222 410 233 410 247 c 0
 410 316 379 338 266 338 c 1
 203 104 l 2
 198 84 195 73 195 66 c 0
 195 42 213 32 256 32 c 0
 344 32 413 51 470 93 c 0
 507 120 527 143 561 199 c 1
 586 194 l 1
569 885 m 1
 608 885 l 1
 587 782 527 723 430 723 c 0
 337 723 292 777 292 872 c 2
 292 885 l 1
 335 885 l 1
 340 828 370 795 434 795 c 0
 500 795 538 819 569 885 c 1
EndSplineSet
EndChar

StartChar: uni0115
Encoding: 277 277 212
Width: 444
Flags: MW
HStem: -13 64<178 189.5> 429 33<251 287> 516 72<272 337 272 348.5> 658 20<162 205 205 205 439 478 478 478>
VStem: 306 92<353.5 400.5 353.5 401.5>
LayerCount: 2
Fore
SplineSet
317 143 m 1
 346 126 l 1
 290 26 228 -13 151 -13 c 0
 64 -13 5 35 5 134 c 0
 5 299 148 462 293 462 c 0
 358 462 398 426 398 375 c 0
 398 332 369 287 329 253 c 0
 286 217 238 199 141 182 c 1
 137 162 135 149 135 133 c 0
 135 79 157 51 199 51 c 0
 242 51 271 74 317 143 c 1
148 214 m 1
 238 234 306 307 306 390 c 0
 306 413 299 429 275 429 c 0
 227 429 184 353 148 214 c 1
439 678 m 1
 478 678 l 1
 457 575 397 516 300 516 c 0
 207 516 162 570 162 665 c 2
 162 678 l 1
 205 678 l 1
 210 621 240 588 304 588 c 0
 370 588 408 612 439 678 c 1
EndSplineSet
EndChar

StartChar: uni0116
Encoding: 278 278 213
Width: 667
Flags: MW
HStem: 0 32<234.5 300 234.5 526> 637 32<380.5 431.5> 732 130<412 447>
VStem: 365 130<779 814>
LayerCount: 2
Fore
SplineSet
586 194 m 1
 526 0 l 1
 -27 0 l 1
 -27 25 l 1
 25 33 38 44 55 105 c 2
 174 537 l 2
 183 570 186 592 186 607 c 0
 186 627 176 636 145 640 c 2
 112 644 l 1
 112 669 l 1
 653 669 l 1
 610 479 l 1
 583 484 l 1
 580 555 579 580 538 607 c 0
 508 626 462 637 401 637 c 0
 360 637 346 631 334 586 c 2
 275 370 l 1
 407 370 433 383 480 477 c 1
 508 473 l 1
 434 199 l 1
 406 203 l 1
 409 222 410 233 410 247 c 0
 410 316 379 338 266 338 c 1
 203 104 l 2
 198 84 195 73 195 66 c 0
 195 42 213 32 256 32 c 0
 344 32 413 51 470 93 c 0
 507 120 527 143 561 199 c 1
 586 194 l 1
429 862 m 0
 465 862 495 832 495 796 c 0
 495 761 465 732 429 732 c 0
 395 732 365 762 365 796 c 0
 365 832 394 862 429 862 c 0
EndSplineSet
EndChar

StartChar: uni0117
Encoding: 279 279 214
Width: 444
Flags: MW
HStem: -13 64<178 189.5> 429 33<251 287> 525 130<272 307>
VStem: 225 130<572 607> 306 92<353.5 400.5 353.5 401.5>
LayerCount: 2
Fore
SplineSet
317 143 m 1xe8
 346 126 l 1
 290 26 228 -13 151 -13 c 0
 64 -13 5 35 5 134 c 0
 5 299 148 462 293 462 c 0
 358 462 398 426 398 375 c 0
 398 332 369 287 329 253 c 0
 286 217 238 199 141 182 c 1
 137 162 135 149 135 133 c 0
 135 79 157 51 199 51 c 0
 242 51 271 74 317 143 c 1xe8
148 214 m 1
 238 234 306 307 306 390 c 0
 306 413 299 429 275 429 c 0
 227 429 184 353 148 214 c 1
289 655 m 0xf0
 325 655 355 625 355 589 c 0
 355 554 325 525 289 525 c 0
 255 525 225 555 225 589 c 0
 225 625 254 655 289 655 c 0xf0
EndSplineSet
EndChar

StartChar: uni0118
Encoding: 280 280 215
Width: 667
Flags: MW
HStem: -182 69<388 390.5> 0 32<234.5 300 234.5 311> 637 32<380.5 431.5>
VStem: 262 84<-127.5 -44.5>
LayerCount: 2
Fore
SplineSet
311 0 m 1
 -27 0 l 1
 -27 25 l 1
 25 33 38 44 55 105 c 2
 174 537 l 2
 183 570 186 592 186 607 c 0
 186 627 176 636 145 640 c 2
 112 644 l 1
 112 669 l 1
 653 669 l 1
 610 479 l 1
 583 484 l 1
 580 555 579 580 538 607 c 0
 508 626 462 637 401 637 c 0
 360 637 346 631 334 586 c 2
 275 370 l 1
 407 370 433 383 480 477 c 1
 508 473 l 1
 434 199 l 1
 406 203 l 1
 409 222 410 233 410 247 c 0
 410 316 379 338 266 338 c 1
 203 104 l 2
 198 84 195 73 195 66 c 0
 195 42 213 32 256 32 c 0
 344 32 413 51 470 93 c 0
 507 120 527 143 561 199 c 1
 586 194 l 1
 526 0 l 1
 354 0 l 1
 349 -24 346 -38 346 -51 c 0
 346 -96 369 -113 407 -113 c 0
 423 -113 435 -110 455 -100 c 0
 463 -96 464 -95 469 -93 c 1
 491 -107 l 1
 466 -154 416 -182 365 -182 c 0
 304 -182 262 -154 262 -101 c 0
 262 -68 275 -45 311 0 c 1
EndSplineSet
EndChar

StartChar: uni0119
Encoding: 281 281 216
Width: 444
Flags: MW
HStem: -182 69<240 242.5> 429 33<251 287>
VStem: 114 84<-127.5 -45> 306 92<353.5 400.5 353.5 401.5>
LayerCount: 2
Fore
SplineSet
153 -13 m 1
 151 -13 l 2
 64 -13 5 35 5 134 c 0
 5 299 148 462 293 462 c 0
 358 462 398 426 398 375 c 0
 398 332 369 287 329 253 c 0
 286 217 238 199 141 182 c 1
 137 162 135 149 135 133 c 0
 135 79 157 51 199 51 c 0
 242 51 271 74 317 143 c 1
 346 126 l 1
 304 51 258 10 205 -6 c 1
 200 -26 198 -39 198 -51 c 0
 198 -96 221 -113 259 -113 c 0
 275 -113 287 -110 307 -100 c 0
 315 -96 316 -95 321 -93 c 1
 343 -107 l 1
 318 -154 268 -182 217 -182 c 0
 156 -182 114 -154 114 -101 c 0
 114 -72 124 -50 153 -13 c 1
148 214 m 1
 238 234 306 307 306 390 c 0
 306 413 299 429 275 429 c 0
 227 429 184 353 148 214 c 1
EndSplineSet
EndChar

StartChar: uni011A
Encoding: 282 282 217
Width: 667
Flags: MW
HStem: 0 32<234.5 300 234.5 526> 637 32<380.5 431.5>
LayerCount: 2
Fore
SplineSet
586 194 m 1
 526 0 l 1
 -27 0 l 1
 -27 25 l 1
 25 33 38 44 55 105 c 2
 174 537 l 2
 183 570 186 592 186 607 c 0
 186 627 176 636 145 640 c 2
 112 644 l 1
 112 669 l 1
 653 669 l 1
 610 479 l 1
 583 484 l 1
 580 555 579 580 538 607 c 0
 508 626 462 637 401 637 c 0
 360 637 346 631 334 586 c 2
 275 370 l 1
 407 370 433 383 480 477 c 1
 508 473 l 1
 434 199 l 1
 406 203 l 1
 409 222 410 233 410 247 c 0
 410 316 379 338 266 338 c 1
 203 104 l 2
 198 84 195 73 195 66 c 0
 195 42 213 32 256 32 c 0
 344 32 413 51 470 93 c 0
 507 120 527 143 561 199 c 1
 586 194 l 1
616 897 m 1
 454 723 l 1
 372 723 l 1
 284 897 l 1
 335 897 l 1
 425 800 l 1
 559 897 l 1
 616 897 l 1
EndSplineSet
EndChar

StartChar: uni011B
Encoding: 283 283 218
Width: 444
Flags: MW
HStem: -13 64<178 189.5> 429 33<251 287>
VStem: 306 92<353.5 400.5 353.5 401.5>
LayerCount: 2
Fore
SplineSet
317 143 m 1
 346 126 l 1
 290 26 228 -13 151 -13 c 0
 64 -13 5 35 5 134 c 0
 5 299 148 462 293 462 c 0
 358 462 398 426 398 375 c 0
 398 332 369 287 329 253 c 0
 286 217 238 199 141 182 c 1
 137 162 135 149 135 133 c 0
 135 79 157 51 199 51 c 0
 242 51 271 74 317 143 c 1
148 214 m 1
 238 234 306 307 306 390 c 0
 306 413 299 429 275 429 c 0
 227 429 184 353 148 214 c 1
486 690 m 1
 324 516 l 1
 242 516 l 1
 154 690 l 1
 205 690 l 1
 295 593 l 1
 429 690 l 1
 486 690 l 1
EndSplineSet
EndChar

StartChar: uni011C
Encoding: 284 284 219
Width: 722
Flags: MW
HStem: -18 38<288 356> 649 36<427.5 471 397 488>
LayerCount: 2
Fore
SplineSet
705 330 m 1
 705 304 l 1
 655 300 645 290 623 208 c 2
 579 41 l 1
 551 28 l 2
 494 1 395 -18 317 -18 c 0
 141 -18 21 86 21 256 c 0
 21 386 84 510 184 593 c 0
 258 654 346 685 448 685 c 0
 494 685 529 679 572 664 c 0
 591 657 599 655 608 655 c 0
 628 655 639 663 650 685 c 1
 681 685 l 1
 630 464 l 1
 601 468 l 1
 599 529 593 559 577 587 c 0
 554 627 514 649 462 649 c 0
 393 649 333 607 289 551 c 0
 222 464 177 340 177 216 c 0
 177 86 235 20 341 20 c 0
 380 20 422 31 435 50 c 1
 466 154 l 2
 488 229 493 243 493 268 c 0
 493 277 487 288 481 292 c 0
 470 298 461 300 418 304 c 1
 418 330 l 1
 705 330 l 1
563 723 m 1
 475 818 l 1
 344 723 l 1
 287 723 l 1
 447 897 l 1
 528 897 l 1
 614 723 l 1
 563 723 l 1
EndSplineSet
EndChar

StartChar: uni011D
Encoding: 285 285 220
Width: 500
Flags: MW
HStem: -203 34<114.5 184 114.5 212.5> 153 31<192.5 208.5 179.5 229.5> 373 56<411 477 411 411> 431 31<244 271.5>
VStem: -52 87<-114 -81.5 -114 -57.5>
LayerCount: 2
Fore
SplineSet
477 429 m 1
 477 373 l 1
 411 373 l 1
 417 361 417 347 417 331 c 0
 417 278 392 232 346 199 c 0
 300 166 258 153 201 153 c 0
 184 153 162 157 150 161 c 1
 137 161 122 147 122 125 c 0
 122 109 144 92 176 84 c 2
 226 72 l 2
 336 46 375 10 375 -51 c 0
 375 -132 287 -203 138 -203 c 0
 23 -203 -52 -170 -52 -102 c 0
 -52 -13 28 5 81 7 c 1
 37 22 19 41 19 73 c 0
 19 110 40 140 115 170 c 1
 61 193 35 228 35 280 c 0
 35 384 130 462 253 462 c 0
 299 462 336 455 367 429 c 1
 477 429 l 1
115 -6 m 1
 106 -7 77 -23 64 -36 c 0
 44 -55 35 -72 35 -91 c 0
 35 -137 81 -169 148 -169 c 0
 220 -169 266 -135 266 -100 c 0
 266 -76 252 -56 224 -42 c 0
 202 -32 127 -7 115 -6 c 1
255 431 m 0
 233 431 213 417 198 399 c 0
 165 358 151 289 151 243 c 0
 151 205 166 184 193 184 c 0
 224 184 250 207 271 253 c 0
 288 290 300 338 300 372 c 0
 300 407 288 431 255 431 c 0
403 516 m 1
 315 611 l 1
 184 516 l 1
 127 516 l 1
 287 690 l 1
 368 690 l 1
 454 516 l 1
 403 516 l 1
EndSplineSet
EndChar

StartChar: uni011E
Encoding: 286 286 221
Width: 722
Flags: MW
HStem: -18 38<288 356> 649 36<427.5 471 397 488> 723 72<412 477 412 488.5>
LayerCount: 2
Fore
SplineSet
705 330 m 1
 705 304 l 1
 655 300 645 290 623 208 c 2
 579 41 l 1
 551 28 l 2
 494 1 395 -18 317 -18 c 0
 141 -18 21 86 21 256 c 0
 21 386 84 510 184 593 c 0
 258 654 346 685 448 685 c 0
 494 685 529 679 572 664 c 0
 591 657 599 655 608 655 c 0
 628 655 639 663 650 685 c 1
 681 685 l 1
 630 464 l 1
 601 468 l 1
 599 529 593 559 577 587 c 0
 554 627 514 649 462 649 c 0
 393 649 333 607 289 551 c 0
 222 464 177 340 177 216 c 0
 177 86 235 20 341 20 c 0
 380 20 422 31 435 50 c 1
 466 154 l 2
 488 229 493 243 493 268 c 0
 493 277 487 288 481 292 c 0
 470 298 461 300 418 304 c 1
 418 330 l 1
 705 330 l 1
579 885 m 1
 618 885 l 1
 597 782 537 723 440 723 c 0
 347 723 302 777 302 872 c 2
 302 885 l 1
 345 885 l 1
 350 828 380 795 444 795 c 0
 510 795 548 819 579 885 c 1
EndSplineSet
EndChar

StartChar: uni011F
Encoding: 287 287 222
Width: 500
Flags: MW
HStem: -203 34<114.5 184 114.5 212.5> 153 31<192.5 208.5 179.5 229.5> 373 56<411 477 411 411> 431 31<244 271.5> 516 72<262 327 262 338.5> 658 20<152 195 195 195 429 468 468 468>
VStem: -52 87<-114 -81.5 -114 -57.5>
LayerCount: 2
Fore
SplineSet
477 429 m 1
 477 373 l 1
 411 373 l 1
 417 361 417 347 417 331 c 0
 417 278 392 232 346 199 c 0
 300 166 258 153 201 153 c 0
 184 153 162 157 150 161 c 1
 137 161 122 147 122 125 c 0
 122 109 144 92 176 84 c 2
 226 72 l 2
 336 46 375 10 375 -51 c 0
 375 -132 287 -203 138 -203 c 0
 23 -203 -52 -170 -52 -102 c 0
 -52 -13 28 5 81 7 c 1
 37 22 19 41 19 73 c 0
 19 110 40 140 115 170 c 1
 61 193 35 228 35 280 c 0
 35 384 130 462 253 462 c 0
 299 462 336 455 367 429 c 1
 477 429 l 1
115 -6 m 1
 106 -7 77 -23 64 -36 c 0
 44 -55 35 -72 35 -91 c 0
 35 -137 81 -169 148 -169 c 0
 220 -169 266 -135 266 -100 c 0
 266 -76 252 -56 224 -42 c 0
 202 -32 127 -7 115 -6 c 1
255 431 m 0
 233 431 213 417 198 399 c 0
 165 358 151 289 151 243 c 0
 151 205 166 184 193 184 c 0
 224 184 250 207 271 253 c 0
 288 290 300 338 300 372 c 0
 300 407 288 431 255 431 c 0
429 678 m 1
 468 678 l 1
 447 575 387 516 290 516 c 0
 197 516 152 570 152 665 c 2
 152 678 l 1
 195 678 l 1
 200 621 230 588 294 588 c 0
 360 588 398 612 429 678 c 1
EndSplineSet
EndChar

StartChar: uni0120
Encoding: 288 288 223
Width: 722
Flags: MW
HStem: -18 38<288 356> 649 36<427.5 471 397 488> 732 130<442 477>
VStem: 395 130<779 814>
LayerCount: 2
Fore
SplineSet
705 330 m 1
 705 304 l 1
 655 300 645 290 623 208 c 2
 579 41 l 1
 551 28 l 2
 494 1 395 -18 317 -18 c 0
 141 -18 21 86 21 256 c 0
 21 386 84 510 184 593 c 0
 258 654 346 685 448 685 c 0
 494 685 529 679 572 664 c 0
 591 657 599 655 608 655 c 0
 628 655 639 663 650 685 c 1
 681 685 l 1
 630 464 l 1
 601 468 l 1
 599 529 593 559 577 587 c 0
 554 627 514 649 462 649 c 0
 393 649 333 607 289 551 c 0
 222 464 177 340 177 216 c 0
 177 86 235 20 341 20 c 0
 380 20 422 31 435 50 c 1
 466 154 l 2
 488 229 493 243 493 268 c 0
 493 277 487 288 481 292 c 0
 470 298 461 300 418 304 c 1
 418 330 l 1
 705 330 l 1
459 862 m 0
 495 862 525 832 525 796 c 0
 525 761 495 732 459 732 c 0
 425 732 395 762 395 796 c 0
 395 832 424 862 459 862 c 0
EndSplineSet
EndChar

StartChar: uni0121
Encoding: 289 289 224
Width: 500
Flags: MW
HStem: -203 34<114.5 184 114.5 212.5> 153 31<192.5 208.5 179.5 229.5> 373 56<411 477 411 411> 431 31<244 271.5> 525 130<262 297>
VStem: -52 87<-114 -81.5 -114 -57.5> 215 130<572 607>
LayerCount: 2
Fore
SplineSet
477 429 m 1
 477 373 l 1
 411 373 l 1
 417 361 417 347 417 331 c 0
 417 278 392 232 346 199 c 0
 300 166 258 153 201 153 c 0
 184 153 162 157 150 161 c 1
 137 161 122 147 122 125 c 0
 122 109 144 92 176 84 c 2
 226 72 l 2
 336 46 375 10 375 -51 c 0
 375 -132 287 -203 138 -203 c 0
 23 -203 -52 -170 -52 -102 c 0
 -52 -13 28 5 81 7 c 1
 37 22 19 41 19 73 c 0
 19 110 40 140 115 170 c 1
 61 193 35 228 35 280 c 0
 35 384 130 462 253 462 c 0
 299 462 336 455 367 429 c 1
 477 429 l 1
115 -6 m 1
 106 -7 77 -23 64 -36 c 0
 44 -55 35 -72 35 -91 c 0
 35 -137 81 -169 148 -169 c 0
 220 -169 266 -135 266 -100 c 0
 266 -76 252 -56 224 -42 c 0
 202 -32 127 -7 115 -6 c 1
255 431 m 0
 233 431 213 417 198 399 c 0
 165 358 151 289 151 243 c 0
 151 205 166 184 193 184 c 0
 224 184 250 207 271 253 c 0
 288 290 300 338 300 372 c 0
 300 407 288 431 255 431 c 0
279 655 m 0
 315 655 345 625 345 589 c 0
 345 554 315 525 279 525 c 0
 245 525 215 555 215 589 c 0
 215 625 244 655 279 655 c 0
EndSplineSet
EndChar

StartChar: uni0122
Encoding: 290 290 225
Width: 722
Flags: MW
HStem: -18 38<288 356> 649 36<427.5 471 397 488>
VStem: 276 86<-236 -110>
LayerCount: 2
Fore
SplineSet
705 330 m 1
 705 304 l 1
 655 300 645 290 623 208 c 2
 579 41 l 1
 551 28 l 2
 494 1 395 -18 317 -18 c 0
 141 -18 21 86 21 256 c 0
 21 386 84 510 184 593 c 0
 258 654 346 685 448 685 c 0
 494 685 529 679 572 664 c 0
 591 657 599 655 608 655 c 0
 628 655 639 663 650 685 c 1
 681 685 l 1
 630 464 l 1
 601 468 l 1
 599 529 593 559 577 587 c 0
 554 627 514 649 462 649 c 0
 393 649 333 607 289 551 c 0
 222 464 177 340 177 216 c 0
 177 86 235 20 341 20 c 0
 380 20 422 31 435 50 c 1
 466 154 l 2
 488 229 493 243 493 268 c 0
 493 277 487 288 481 292 c 0
 470 298 461 300 418 304 c 1
 418 330 l 1
 705 330 l 1
171 -359 m 1
 158 -334 l 1
 237 -292 276 -254 276 -218 c 0
 276 -204 270 -194 246 -181 c 0
 214 -163 206 -143 206 -116 c 0
 206 -73 238 -43 279 -43 c 0
 332 -43 362 -83 362 -137 c 0
 362 -226 290 -309 171 -359 c 1
EndSplineSet
EndChar

StartChar: uni0123
Encoding: 291 291 226
Width: 500
Flags: MW
HStem: -203 34<114.5 184 114.5 212.5> 153 31<192.5 208.5 179.5 229.5> 373 56<411 477 411 411> 431 31<244 271.5>
VStem: -52 87<-114 -81.5 -114 -57.5> 179 86<583 709>
LayerCount: 2
Fore
SplineSet
477 429 m 1
 477 373 l 1
 411 373 l 1
 417 361 417 347 417 331 c 0
 417 278 392 232 346 199 c 0
 300 166 258 153 201 153 c 0
 184 153 162 157 150 161 c 1
 137 161 122 147 122 125 c 0
 122 109 144 92 176 84 c 2
 226 72 l 2
 336 46 375 10 375 -51 c 0
 375 -132 287 -203 138 -203 c 0
 23 -203 -52 -170 -52 -102 c 0
 -52 -13 28 5 81 7 c 1
 37 22 19 41 19 73 c 0
 19 110 40 140 115 170 c 1
 61 193 35 228 35 280 c 0
 35 384 130 462 253 462 c 0
 299 462 336 455 367 429 c 1
 477 429 l 1
115 -6 m 1
 106 -7 77 -23 64 -36 c 0
 44 -55 35 -72 35 -91 c 0
 35 -137 81 -169 148 -169 c 0
 220 -169 266 -135 266 -100 c 0
 266 -76 252 -56 224 -42 c 0
 202 -32 127 -7 115 -6 c 1
255 431 m 0
 233 431 213 417 198 399 c 0
 165 358 151 289 151 243 c 0
 151 205 166 184 193 184 c 0
 224 184 250 207 271 253 c 0
 288 290 300 338 300 372 c 0
 300 407 288 431 255 431 c 0
370 832 m 1
 383 807 l 1
 304 765 265 727 265 691 c 0
 265 677 271 667 295 654 c 0
 327 636 335 616 335 589 c 0
 335 541 303 516 262 516 c 0
 209 516 179 556 179 610 c 0
 179 699 251 782 370 832 c 1
EndSplineSet
EndChar

StartChar: uni0124
Encoding: 292 292 227
Width: 778
Flags: MW
HStem: 0 20 329 44<278 505 266 517> 649 20<116 432 432 432 502 799 799 799>
LayerCount: 2
Fore
SplineSet
505 329 m 1
 266 329 l 1
 212 132 l 2
 202 96 200 80 200 65 c 0
 200 50 207 30 271 25 c 1
 271 0 l 1
 -24 0 l 1
 -24 25 l 1
 26 32 41 41 57 99 c 2
 178 546 l 2
 186 574 189 592 189 604 c 0
 189 626 178 636 147 640 c 2
 116 644 l 1
 116 669 l 1
 432 669 l 1
 432 644 l 1
 367 642 348 629 330 564 c 2
 278 373 l 1
 517 373 l 1
 564 546 l 2
 569 565 574 595 574 607 c 0
 574 627 564 636 533 640 c 2
 502 644 l 1
 502 669 l 1
 799 669 l 1
 799 644 l 1
 750 644 731 623 717 570 c 2
 606 162 l 2
 591 105 584 81 584 66 c 0
 584 37 602 27 657 25 c 1
 657 0 l 1
 341 0 l 1
 341 25 l 1
 408 29 426 41 443 104 c 2
 505 329 l 1
583 723 m 1
 495 818 l 1
 364 723 l 1
 307 723 l 1
 467 897 l 1
 548 897 l 1
 634 723 l 1
 583 723 l 1
EndSplineSet
EndChar

StartChar: uni0125
Encoding: 293 293 228
Width: 556
Flags: MW
HStem: -9 20 0 20 390 72<319.5 423.5>
LayerCount: 2
Fore
SplineSet
476 142 m 1x60
 498 127 l 1
 432 24 392 -9 331 -9 c 0x80
 292 -9 265 15 265 55 c 0
 265 96 276 132 326 280 c 2
 346 339 l 2
 351 354 353 363 353 369 c 0
 353 385 345 390 333 390 c 0
 306 390 270 359 227 296 c 0
 178 224 159 175 108 0 c 1
 -13 0 l 1
 139 562 l 2
 145 584 149 600 149 609 c 0
 149 632 136 642 107 642 c 2
 85 642 l 1
 85 669 l 1
 166 676 217 684 294 699 c 1
 186 283 l 1
 285 424 331 462 399 462 c 0
 448 462 475 434 475 387 c 0
 475 368 466 331 446 269 c 2
 387 87 l 2
 384 79 384 78 384 75 c 0
 384 68 393 59 401 59 c 0
 414 59 433 80 476 142 c 1x60
443 723 m 1
 355 818 l 1
 224 723 l 1
 167 723 l 1
 327 897 l 1
 408 897 l 1
 494 723 l 1
 443 723 l 1
EndSplineSet
EndChar

StartChar: uni0126
Encoding: 294 294 229
Width: 778
Flags: MW
HStem: 0 20 329 44<278 505 266 517> 496 44<62 176 62 164 323 550 709 800> 649 20<116 432 432 432 502 799 799 799>
LayerCount: 2
Fore
SplineSet
62 496 m 1
 62 540 l 1
 176 540 l 1
 186 574 189 592 189 604 c 0
 189 626 178 636 147 640 c 2
 116 644 l 1
 116 669 l 1
 432 669 l 1
 432 644 l 1
 367 642 349 629 330 564 c 2
 323 540 l 1
 562 540 l 1
 569 565 574 595 574 607 c 0
 574 627 564 636 533 640 c 2
 502 644 l 1
 502 669 l 1
 799 669 l 1
 799 644 l 1
 750 644 731 623 717 570 c 2
 709 540 l 1
 800 540 l 1
 800 496 l 1
 697 496 l 1
 606 162 l 2
 591 105 584 81 584 66 c 0
 584 37 602 27 657 25 c 1
 657 0 l 1
 341 0 l 1
 341 25 l 1
 408 29 426 41 443 104 c 2
 505 329 l 1
 266 329 l 1
 212 132 l 2
 202 96 200 80 200 65 c 0
 200 50 207 30 271 25 c 1
 271 0 l 1
 -24 0 l 1
 -24 25 l 1
 26 32 41 41 57 99 c 2
 164 496 l 1
 62 496 l 1
278 373 m 1
 517 373 l 1
 550 496 l 1
 311 496 l 1
 278 373 l 1
EndSplineSet
EndChar

StartChar: uni0127
Encoding: 295 295 230
Width: 556
Flags: MW
HStem: -9 20 0 20 390 72<319.5 423.5> 514 44<65 138 77 126 257 404>
LayerCount: 2
Fore
SplineSet
65 514 m 1x70
 77 558 l 1
 138 558 l 1
 145 583 149 600 149 609 c 0
 149 632 136 642 107 642 c 2
 85 642 l 1
 85 669 l 1
 166 676 217 684 294 699 c 1
 257 558 l 1
 416 558 l 1
 404 514 l 1
 246 514 l 1
 186 283 l 1
 285 424 331 462 399 462 c 0
 448 462 475 434 475 387 c 0
 475 368 466 331 446 269 c 2
 387 87 l 2
 384 79 384 78 384 75 c 0
 384 68 393 59 401 59 c 0
 414 59 433 80 476 142 c 1
 498 127 l 1
 432 24 392 -9 331 -9 c 0xb0
 292 -9 265 15 265 55 c 0
 265 96 276 132 326 280 c 2
 346 339 l 2
 351 354 353 363 353 369 c 0
 353 385 345 390 333 390 c 0
 306 390 270 359 227 296 c 0
 178 224 159 175 108 0 c 1
 -13 0 l 1
 126 514 l 1
 65 514 l 1x70
EndSplineSet
EndChar

StartChar: uni0128
Encoding: 296 296 231
Width: 389
Flags: MW
HStem: 0 20 649 20<108 406 406 406> 743 77<372 383> 787 75<198.5 204.5>
LayerCount: 2
Fore
SplineSet
51 107 m 2xd0
 168 536 l 2
 176 565 182 595 182 607 c 0
 182 627 167 637 140 640 c 2
 108 644 l 1
 108 669 l 1
 406 669 l 1
 406 644 l 1
 357 639 339 627 322 564 c 2
 210 152 l 2
 196 101 193 81 193 65 c 0
 193 37 207 28 264 25 c 1
 264 0 l 1
 -32 0 l 1
 -32 25 l 1
 17 31 32 36 51 107 c 2xd0
429 862 m 1
 470 862 l 1x10
 448 778 413 743 353 743 c 0x20
 334 743 323 745 296 756 c 2
 237 779 l 2
 224 784 210 787 199 787 c 0
 177 787 164 776 151 744 c 1
 111 744 l 1
 124 816 170 862 227 862 c 0x10
 252 862 283 854 324 836 c 0
 351 825 366 820 378 820 c 0x20
 401 820 414 830 429 862 c 1
EndSplineSet
EndChar

StartChar: uni0129
Encoding: 297 297 232
Width: 278
Flags: MW
HStem: -9 20 536 77<252 263> 580 75<78.5 84.5>
LayerCount: 2
Fore
SplineSet
216 142 m 1xa0
 238 128 l 1
 172 20 130 -9 70 -9 c 0
 29 -9 2 11 2 54 c 0
 2 68 7 94 17 130 c 2
 72 333 l 2
 78 357 80 370 80 378 c 0
 80 397 64 407 34 407 c 2
 20 407 l 1
 20 434 l 1
 98 440 169 450 223 462 c 1
 132 128 l 2
 127 111 123 86 123 77 c 0
 123 65 130 61 138 61 c 0
 153 61 175 84 202 122 c 2
 216 142 l 1xa0
309 655 m 1
 350 655 l 1x20
 328 571 293 536 233 536 c 0x40
 214 536 203 538 176 549 c 2
 117 572 l 2
 104 577 90 580 79 580 c 0
 57 580 44 569 31 537 c 1
 -9 537 l 1
 4 609 50 655 107 655 c 0x20
 132 655 163 647 204 629 c 0
 231 618 246 613 258 613 c 0x40
 281 613 294 623 309 655 c 1
EndSplineSet
EndChar

StartChar: uni012A
Encoding: 298 298 233
Width: 389
Flags: MW
HStem: 0 20 649 20<108 406 406 406> 723 70<126 435 109 451>
LayerCount: 2
Fore
SplineSet
51 107 m 2
 168 536 l 2
 176 565 182 595 182 607 c 0
 182 627 167 637 140 640 c 2
 108 644 l 1
 108 669 l 1
 406 669 l 1
 406 644 l 1
 357 639 339 627 322 564 c 2
 210 152 l 2
 196 101 193 81 193 65 c 0
 193 37 207 28 264 25 c 1
 264 0 l 1
 -32 0 l 1
 -32 25 l 1
 17 31 32 36 51 107 c 2
451 793 m 1
 435 723 l 1
 109 723 l 1
 126 793 l 1
 451 793 l 1
EndSplineSet
EndChar

StartChar: uni012B
Encoding: 299 299 234
Width: 278
Flags: MW
HStem: -9 20 516 70<6 315 -11 331>
LayerCount: 2
Fore
SplineSet
216 142 m 1
 238 128 l 1
 172 20 130 -9 70 -9 c 0
 29 -9 2 11 2 54 c 0
 2 68 7 94 17 130 c 2
 72 333 l 2
 78 357 80 370 80 378 c 0
 80 397 64 407 34 407 c 2
 20 407 l 1
 20 434 l 1
 98 440 169 450 223 462 c 1
 132 128 l 2
 127 111 123 86 123 77 c 0
 123 65 130 61 138 61 c 0
 153 61 175 84 202 122 c 2
 216 142 l 1
331 586 m 1
 315 516 l 1
 -11 516 l 1
 6 586 l 1
 331 586 l 1
EndSplineSet
EndChar

StartChar: uni012C
Encoding: 300 300 235
Width: 389
Flags: MW
HStem: 0 20 649 20<108 406 406 406> 723 72<252 317 252 328.5>
LayerCount: 2
Fore
SplineSet
51 107 m 2
 168 536 l 2
 176 565 182 595 182 607 c 0
 182 627 167 637 140 640 c 2
 108 644 l 1
 108 669 l 1
 406 669 l 1
 406 644 l 1
 357 639 339 627 322 564 c 2
 210 152 l 2
 196 101 193 81 193 65 c 0
 193 37 207 28 264 25 c 1
 264 0 l 1
 -32 0 l 1
 -32 25 l 1
 17 31 32 36 51 107 c 2
419 885 m 1
 458 885 l 1
 437 782 377 723 280 723 c 0
 187 723 142 777 142 872 c 2
 142 885 l 1
 185 885 l 1
 190 828 220 795 284 795 c 0
 350 795 388 819 419 885 c 1
EndSplineSet
EndChar

StartChar: uni012D
Encoding: 301 301 236
Width: 278
Flags: MW
HStem: -9 20 516 72<122 187 122 198.5> 658 20<12 55 55 55 289 328 328 328>
LayerCount: 2
Fore
SplineSet
216 142 m 1
 238 128 l 1
 172 20 130 -9 70 -9 c 0
 29 -9 2 11 2 54 c 0
 2 68 7 94 17 130 c 2
 72 333 l 2
 78 357 80 370 80 378 c 0
 80 397 64 407 34 407 c 2
 20 407 l 1
 20 434 l 1
 98 440 169 450 223 462 c 1
 132 128 l 2
 127 111 123 86 123 77 c 0
 123 65 130 61 138 61 c 0
 153 61 175 84 202 122 c 2
 216 142 l 1
289 678 m 1
 328 678 l 1
 307 575 247 516 150 516 c 0
 57 516 12 570 12 665 c 2
 12 678 l 1
 55 678 l 1
 60 621 90 588 154 588 c 0
 220 588 258 612 289 678 c 1
EndSplineSet
EndChar

StartChar: uni012E
Encoding: 302 302 237
Width: 389
Flags: MW
HStem: -173 69<174 176.5> 0 20 649 20<108 406 406 406>
VStem: 48 84<-118.5 -36.5>
LayerCount: 2
Fore
SplineSet
90 0 m 1
 -32 0 l 1
 -32 25 l 1
 17 31 32 36 51 107 c 2
 168 536 l 2
 176 565 182 595 182 607 c 0
 182 627 167 637 140 640 c 2
 108 644 l 1
 108 669 l 1
 406 669 l 1
 406 644 l 1
 357 639 339 627 322 564 c 2
 210 152 l 2
 196 101 193 81 193 65 c 0
 193 37 207 28 264 25 c 1
 264 0 l 1
 138 0 l 1
 134 -19 132 -31 132 -42 c 0
 132 -87 155 -104 193 -104 c 0
 209 -104 221 -101 241 -91 c 0
 249 -87 250 -86 255 -84 c 1
 277 -98 l 1
 252 -145 202 -173 151 -173 c 0
 90 -173 48 -145 48 -92 c 0
 48 -62 59 -39 90 0 c 1
EndSplineSet
EndChar

StartChar: uni012F
Encoding: 303 303 238
Width: 278
Flags: MW
HStem: -173 69<141 143.5> 550 134<176 212 176 213>
VStem: 15 84<-118.5 -37> 128 134<599.5 634.5 597.5 636>
LayerCount: 2
Fore
SplineSet
222 -84 m 1
 244 -98 l 1
 219 -145 169 -173 118 -173 c 0
 57 -173 15 -145 15 -92 c 0
 15 -64 25 -42 51 -7 c 1
 21 -2 2 18 2 54 c 0
 2 68 7 94 17 130 c 2
 72 333 l 2
 78 357 80 370 80 378 c 0
 80 397 64 407 34 407 c 2
 20 407 l 1
 20 434 l 1
 98 440 169 450 223 462 c 1
 132 128 l 2
 127 111 123 86 123 77 c 0
 123 65 130 61 138 61 c 0
 153 61 175 84 202 122 c 2
 216 142 l 1
 238 128 l 1
 185 42 148 6 104 -5 c 1
 101 -21 99 -32 99 -42 c 0
 99 -87 122 -104 160 -104 c 0
 176 -104 188 -101 208 -91 c 0
 216 -87 217 -86 222 -84 c 1
193 684 m 0
 231 684 262 653 262 616 c 0
 262 579 232 550 194 550 c 0
 156 550 128 580 128 619 c 0
 128 653 159 684 193 684 c 0
EndSplineSet
EndChar

StartChar: uni0130
Encoding: 304 304 239
Width: 389
Flags: MW
HStem: 0 20 649 20<108 406 406 406> 732 130<262 297>
VStem: 215 130<779 814>
LayerCount: 2
Fore
SplineSet
51 107 m 2
 168 536 l 2
 176 565 182 595 182 607 c 0
 182 627 167 637 140 640 c 2
 108 644 l 1
 108 669 l 1
 406 669 l 1
 406 644 l 1
 357 639 339 627 322 564 c 2
 210 152 l 2
 196 101 193 81 193 65 c 0
 193 37 207 28 264 25 c 1
 264 0 l 1
 -32 0 l 1
 -32 25 l 1
 17 31 32 36 51 107 c 2
279 862 m 0
 315 862 345 832 345 796 c 0
 345 761 315 732 279 732 c 0
 245 732 215 762 215 796 c 0
 215 832 244 862 279 862 c 0
EndSplineSet
EndChar

StartChar: dotlessi
Encoding: 305 305 240
Width: 278
Flags: MW
HStem: -9 20 442 20<223 223>
LayerCount: 2
Fore
SplineSet
216 142 m 1
 238 128 l 1
 172 20 130 -9 70 -9 c 0
 29 -9 2 11 2 54 c 0
 2 68 7 94 17 130 c 2
 72 333 l 2
 78 357 80 370 80 378 c 0
 80 397 64 407 34 407 c 2
 20 407 l 1
 20 434 l 1
 98 440 169 450 223 462 c 1
 132 128 l 2
 127 111 123 86 123 77 c 0
 123 65 130 61 138 61 c 0
 153 61 175 84 202 122 c 2
 216 142 l 1
EndSplineSet
EndChar

StartChar: uni0132
Encoding: 306 306 241
Width: 823
Flags: MW
HStem: -99 36<464.5 492.5 464.5 541> 0 20 649 20<108 406 406 406 615 913 913 913>
LayerCount: 2
Fore
SplineSet
51 107 m 2
 168 536 l 2
 176 565 182 595 182 607 c 0
 182 627 167 637 140 640 c 2
 108 644 l 1
 108 669 l 1
 406 669 l 1
 406 644 l 1
 357 639 339 627 322 564 c 2
 210 152 l 2
 196 101 193 81 193 65 c 0
 193 37 207 28 264 25 c 1
 264 0 l 1
 -32 0 l 1
 -32 25 l 1
 17 31 32 36 51 107 c 2
828 559 m 2
 706 102 l 2
 670 -33 591 -99 491 -99 c 0
 403 -99 343 -63 343 2 c 0
 343 42 371 74 407 74 c 0
 442 74 470 49 470 9 c 0
 470 -22 447 -27 447 -45 c 0
 447 -57 455 -63 474 -63 c 0
 511 -63 525 -33 562 107 c 2
 676 539 l 2
 686 578 689 592 689 603 c 0
 689 621 678 634 648 639 c 2
 615 644 l 1
 615 669 l 1
 913 669 l 1
 913 644 l 1
 864 638 848 633 828 559 c 2
EndSplineSet
EndChar

StartChar: uni0133
Encoding: 307 307 242
Width: 552
Flags: MW
HStem: -207 31<177 197 177 231> -9 20 550 134<176 212 176 213> 550 135<457.5 494 457.5 494>
VStem: 76 83<-166 -115.5> 128 134<599.5 634.5 597.5 636> 409 135<599.5 635.5 598.5 636.5>
LayerCount: 2
Fore
SplineSet
193 684 m 0xe4
 231 684 262 653 262 616 c 0
 262 579 232 550 194 550 c 0
 156 550 128 580 128 619 c 0
 128 653 159 684 193 684 c 0xe4
216 142 m 1
 238 128 l 1
 172 20 130 -9 70 -9 c 0
 29 -9 2 11 2 54 c 0
 2 68 7 94 17 130 c 2
 72 333 l 2
 78 357 80 370 80 378 c 0
 80 397 64 407 34 407 c 2
 20 407 l 1
 20 434 l 1
 98 440 169 450 223 462 c 1
 132 128 l 2
 127 111 123 86 123 77 c 0
 123 65 130 61 138 61 c 0
 153 61 175 84 202 122 c 2
 216 142 l 1
504 462 m 1
 388 18 l 2
 346 -142 281 -207 181 -207 c 0
 118 -207 76 -174 76 -130 c 0
 76 -101 98 -77 125 -77 c 0
 154 -77 174 -96 174 -126 c 0
 174 -147 159 -147 159 -161 c 0xea
 159 -171 171 -176 183 -176 c 0
 211 -176 232 -140 257 -40 c 2
 346 310 l 2
 354 340 358 364 358 377 c 0
 358 398 346 407 317 407 c 2
 295 407 l 1
 295 434 l 1
 407 444 444 449 504 462 c 1
475 685 m 0x1a
 513 685 544 654 544 617 c 0
 544 580 513 550 475 550 c 0
 438 550 409 580 409 619 c 0
 409 654 440 685 475 685 c 0x1a
EndSplineSet
EndChar

StartChar: uni0134
Encoding: 308 308 243
Width: 500
Flags: MW
HStem: -99 36<75.5 103.5 75.5 152> 649 20<226 524 524 524>
LayerCount: 2
Fore
SplineSet
439 559 m 2
 317 102 l 2
 281 -33 202 -99 102 -99 c 0
 14 -99 -46 -63 -46 2 c 0
 -46 42 -18 74 18 74 c 0
 53 74 81 49 81 9 c 0
 81 -22 58 -27 58 -45 c 0
 58 -57 66 -63 85 -63 c 0
 122 -63 136 -33 173 107 c 2
 287 539 l 2
 297 578 300 592 300 603 c 0
 300 621 289 634 259 639 c 2
 226 644 l 1
 226 669 l 1
 524 669 l 1
 524 644 l 1
 475 638 459 633 439 559 c 2
503 723 m 1
 415 818 l 1
 284 723 l 1
 227 723 l 1
 387 897 l 1
 468 897 l 1
 554 723 l 1
 503 723 l 1
EndSplineSet
EndChar

StartChar: uni0135
Encoding: 309 309 244
Width: 278
Flags: MW
HStem: -207 31<-88 -68 -88 -34>
VStem: -189 83<-166 -115.5>
LayerCount: 2
Fore
SplineSet
202 322 m 1
 123 18 l 2
 81 -142 16 -207 -84 -207 c 0
 -147 -207 -189 -174 -189 -130 c 0
 -189 -101 -167 -77 -140 -77 c 0
 -111 -77 -91 -96 -91 -126 c 0
 -91 -147 -106 -147 -106 -161 c 0
 -106 -171 -94 -176 -82 -176 c 0
 -54 -176 -33 -140 -8 -40 c 2
 81 310 l 2
 89 340 93 364 93 377 c 0
 93 398 81 407 52 407 c 2
 30 407 l 1
 30 434 l 1
 142 444 179 449 239 462 c 1
 202 322 l 1
263 516 m 1
 175 611 l 1
 44 516 l 1
 -13 516 l 1
 147 690 l 1
 228 690 l 1
 314 516 l 1
 263 516 l 1
EndSplineSet
EndChar

StartChar: uni0136
Encoding: 310 310 245
Width: 667
Flags: MW
HStem: 0 20 649 20<118 429 429 429 491 702 702 702>
VStem: 266 86<-236 -110>
LayerCount: 2
Fore
SplineSet
392 397 m 1
 549 64 l 2
 560 40 574 29 612 25 c 1
 612 0 l 1
 332 0 l 1
 333 25 l 1
 359 29 l 2
 386 33 397 38 397 52 c 0
 397 64 392 79 382 101 c 2
 271 337 l 1
 204 88 l 2
 203 83 202 77 202 71 c 0
 202 38 215 29 267 25 c 1
 267 0 l 1
 -21 0 l 1
 -21 25 l 1
 24 30 44 40 58 93 c 2
 181 546 l 2
 189 574 192 592 192 604 c 0
 192 626 182 636 151 640 c 2
 118 644 l 1
 118 669 l 1
 429 669 l 1
 429 644 l 1
 370 639 349 624 335 572 c 2
 273 345 l 1
 470 520 l 2
 529 572 547 598 547 617 c 0
 547 632 537 640 512 642 c 2
 491 644 l 1
 491 669 l 1
 702 669 l 1
 702 644 l 1
 659 638 651 635 608 596 c 2
 392 397 l 1
161 -359 m 1
 148 -334 l 1
 227 -292 266 -254 266 -218 c 0
 266 -204 260 -194 236 -181 c 0
 204 -163 196 -143 196 -116 c 0
 196 -73 228 -43 269 -43 c 0
 322 -43 352 -83 352 -137 c 0
 352 -226 280 -309 161 -359 c 1
EndSplineSet
EndChar

StartChar: uni0137
Encoding: 311 311 246
Width: 500
Flags: MW
HStem: -8 71<280 372.5> 0 20
VStem: 156 86<-236 -110>
LayerCount: 2
Fore
SplineSet
149 188 m 1xa0
 99 0 l 1
 -23 0 l 1x60
 134 566 l 2
 141 590 141 598 141 608 c 0
 141 636 131 642 111 642 c 2
 77 642 l 1
 77 669 l 1
 154 673 209 682 286 699 c 1
 162 238 l 1
 288 337 327 375 327 401 c 0
 327 417 316 422 277 424 c 1
 277 449 l 1
 483 449 l 1
 483 424 l 1
 437 418 416 410 348 348 c 2
 284 290 l 1
 323 95 341 63 363 63 c 0
 382 63 400 79 427 127 c 1
 449 116 l 1
 404 21 361 -8 311 -8 c 0
 249 -8 221 40 188 215 c 1
 149 188 l 1xa0
51 -359 m 1
 38 -334 l 1
 117 -292 156 -254 156 -218 c 0
 156 -204 150 -194 126 -181 c 0
 94 -163 86 -143 86 -116 c 0
 86 -73 118 -43 159 -43 c 0
 212 -43 242 -83 242 -137 c 0
 242 -226 170 -309 51 -359 c 1
EndSplineSet
EndChar

StartChar: uni0138
Encoding: 312 312 247
Width: 600
Flags: MW
HStem: 0 20 412 58
LayerCount: 2
Fore
SplineSet
614 0 m 1
 446 0 l 1
 420 3 393 36 377 76 c 0
 362 112 366 129 346 179 c 0
 333 213 309 226 290 233 c 1
 285 232 280 232 263 232 c 1
 223 87 l 2
 219 72 216 59 216 50 c 0
 216 33 226 25 258 24 c 1
 251 0 l 1
 6 0 l 1
 13 24 l 1
 48 32 68 42 80 86 c 2
 164 391 l 2
 167 400 168 408 168 415 c 0
 168 438 152 444 127 446 c 1
 134 470 l 1
 379 470 l 1
 372 446 l 1
 330 440 318 434 306 390 c 2
 277 282 l 1
 295 282 305 283 316 285 c 0
 372 297 398 305 418 317 c 0
 452 338 479 363 508 405 c 0
 544 457 553 470 618 470 c 0
 655 470 689 444 689 414 c 0
 689 387 667 372 639 372 c 0
 595 372 596 412 574 412 c 0
 557 412 548 404 536 384 c 0
 505 334 467 296 428 272 c 1
 438 268 451 259 461 238 c 0
 473 210 498 129 510 100 c 0
 528 53 552 31 621 24 c 1
 614 0 l 1
EndSplineSet
EndChar

StartChar: uni0139
Encoding: 313 313 248
Width: 611
Flags: MW
HStem: 0 32<250.5 308 250.5 530> 649 20<117 435 435 435>
LayerCount: 2
Fore
SplineSet
590 195 m 1
 530 0 l 1
 -22 0 l 1
 -22 25 l 1
 33 32 45 49 60 103 c 2
 181 546 l 2
 186 565 192 595 192 607 c 0
 192 627 182 635 151 639 c 0
 140 641 127 643 117 644 c 1
 117 669 l 1
 435 669 l 1
 435 644 l 1
 369 640 350 627 336 574 c 2
 207 101 l 2
 203 85 201 70 201 62 c 0
 201 41 228 32 273 32 c 0
 343 32 400 46 451 77 c 0
 503 108 527 136 566 200 c 1
 590 195 l 1
311 723 m 1
 262 723 l 1
 384 854 l 2
 420 892 436 904 454 904 c 0
 480 904 502 883 502 857 c 0
 502 838 493 827 463 810 c 2
 311 723 l 1
EndSplineSet
EndChar

StartChar: uni013A
Encoding: 314 314 249
Width: 278
Flags: MW
HStem: -9 20
LayerCount: 2
Fore
SplineSet
217 141 m 1
 239 127 l 1
 170 22 134 -9 70 -9 c 0
 29 -9 2 18 2 54 c 0
 2 77 16 138 36 209 c 2
 110 468 l 2
 131 541 144 589 144 613 c 0
 144 633 129 643 102 643 c 0
 97 643 91 643 80 642 c 1
 80 669 l 1
 155 676 204 683 290 699 c 1
 145 176 l 2
 130 122 123 90 123 76 c 0
 123 68 128 61 138 61 c 0
 156 61 177 82 217 141 c 1
153 723 m 1
 104 723 l 1
 226 854 l 2
 262 892 278 904 296 904 c 0
 322 904 344 883 344 857 c 0
 344 838 335 827 305 810 c 2
 153 723 l 1
EndSplineSet
EndChar

StartChar: uni013B
Encoding: 315 315 250
Width: 611
Flags: MW
HStem: 0 32<250.5 308 250.5 530> 649 20<117 435 435 435>
VStem: 246 86<-236 -110>
LayerCount: 2
Fore
SplineSet
590 195 m 1
 530 0 l 1
 -22 0 l 1
 -22 25 l 1
 33 32 45 49 60 103 c 2
 181 546 l 2
 186 565 192 595 192 607 c 0
 192 627 182 635 151 639 c 0
 140 641 127 643 117 644 c 1
 117 669 l 1
 435 669 l 1
 435 644 l 1
 369 640 350 627 336 574 c 2
 207 101 l 2
 203 85 201 70 201 62 c 0
 201 41 228 32 273 32 c 0
 343 32 400 46 451 77 c 0
 503 108 527 136 566 200 c 1
 590 195 l 1
141 -359 m 1
 128 -334 l 1
 207 -292 246 -254 246 -218 c 0
 246 -204 240 -194 216 -181 c 0
 184 -163 176 -143 176 -116 c 0
 176 -73 208 -43 249 -43 c 0
 302 -43 332 -83 332 -137 c 0
 332 -226 260 -309 141 -359 c 1
EndSplineSet
EndChar

StartChar: uni013C
Encoding: 316 316 251
Width: 278
Flags: MW
HStem: -9 20
VStem: 56 86<-236 -110>
LayerCount: 2
Fore
SplineSet
217 141 m 1
 239 127 l 1
 170 22 134 -9 70 -9 c 0
 29 -9 2 18 2 54 c 0
 2 77 16 138 36 209 c 2
 110 468 l 2
 131 541 144 589 144 613 c 0
 144 633 129 643 102 643 c 0
 97 643 91 643 80 642 c 1
 80 669 l 1
 155 676 204 683 290 699 c 1
 145 176 l 2
 130 122 123 90 123 76 c 0
 123 68 128 61 138 61 c 0
 156 61 177 82 217 141 c 1
-49 -359 m 1
 -62 -334 l 1
 17 -292 56 -254 56 -218 c 0
 56 -204 50 -194 26 -181 c 0
 -6 -163 -14 -143 -14 -116 c 0
 -14 -73 18 -43 59 -43 c 0
 112 -43 142 -83 142 -137 c 0
 142 -226 70 -309 -49 -359 c 1
EndSplineSet
EndChar

StartChar: uni013D
Encoding: 317 317 252
Width: 611
Flags: MW
HStem: 0 32<250.5 308 250.5 530> 649 20<117 435 435 435> 665 20<563.5 610.5>
VStem: 581 86<492 618>
LayerCount: 2
Fore
SplineSet
590 195 m 1xd0
 530 0 l 1
 -22 0 l 1
 -22 25 l 1
 33 32 45 49 60 103 c 2
 181 546 l 2
 186 565 192 595 192 607 c 0
 192 627 182 635 151 639 c 0
 140 641 127 643 117 644 c 1
 117 669 l 1
 435 669 l 1
 435 644 l 1
 369 640 350 627 336 574 c 2
 207 101 l 2
 203 85 201 70 201 62 c 0
 201 41 228 32 273 32 c 0
 343 32 400 46 451 77 c 0
 503 108 527 136 566 200 c 1
 590 195 l 1xd0
476 369 m 1x30
 463 394 l 1
 542 436 581 474 581 510 c 0
 581 524 575 534 551 547 c 0
 519 565 511 585 511 612 c 0
 511 660 543 685 584 685 c 0
 637 685 667 645 667 591 c 0
 667 502 595 419 476 369 c 1x30
EndSplineSet
EndChar

StartChar: uni013E
Encoding: 318 318 253
Width: 451
Flags: MW
HStem: -9 20
VStem: 413 86<517 643>
LayerCount: 2
Fore
SplineSet
308 394 m 1
 295 419 l 1
 374 461 413 499 413 535 c 0
 413 549 407 559 383 572 c 0
 351 590 343 610 343 637 c 0
 343 685 375 710 416 710 c 0
 469 710 499 670 499 616 c 0
 499 527 427 444 308 394 c 1
290 699 m 1
 145 176 l 2
 130 122 123 90 123 76 c 0
 123 68 128 61 138 61 c 0
 156 61 177 82 217 141 c 1
 239 127 l 1
 170 22 134 -9 70 -9 c 0
 29 -9 2 18 2 54 c 0
 2 77 16 138 36 209 c 2
 110 468 l 2
 131 541 144 589 144 613 c 0
 144 633 129 643 102 643 c 0
 97 643 91 643 80 642 c 1
 80 669 l 1
 155 676 204 683 290 699 c 1
EndSplineSet
EndChar

StartChar: uni013F
Encoding: 319 319 254
Width: 611
Flags: MW
HStem: 0 32<250.5 308 250.5 530> 261 148<393.5 434> 649 20<117 435 435 435>
VStem: 340 148<314 355 314 356>
LayerCount: 2
Fore
SplineSet
590 195 m 1
 530 0 l 1
 -22 0 l 1
 -22 25 l 1
 33 32 45 49 60 103 c 2
 181 546 l 2
 186 565 192 595 192 607 c 0
 192 627 182 635 151 639 c 0
 140 641 127 643 117 644 c 1
 117 669 l 1
 435 669 l 1
 435 644 l 1
 369 640 350 627 336 574 c 2
 207 101 l 2
 203 85 201 70 201 62 c 0
 201 41 228 32 273 32 c 0
 343 32 400 46 451 77 c 0
 503 108 527 136 566 200 c 1
 590 195 l 1
415 409 m 0
 455 409 488 375 488 335 c 0
 488 293 455 261 413 261 c 0
 371 261 340 293 340 335 c 0
 340 377 372 409 415 409 c 0
EndSplineSet
EndChar

StartChar: uni0140
Encoding: 320 320 255
Width: 375
Flags: MW
HStem: -9 20 254 148<287.5 328>
VStem: 234 148<307 348 307 349>
LayerCount: 2
Fore
SplineSet
217 141 m 1
 239 127 l 1
 170 22 134 -9 70 -9 c 0
 29 -9 2 18 2 54 c 0
 2 77 16 138 36 209 c 2
 110 468 l 2
 131 541 144 589 144 613 c 0
 144 633 129 643 102 643 c 0
 97 643 91 643 80 642 c 1
 80 669 l 1
 155 676 204 683 290 699 c 1
 145 176 l 2
 130 122 123 90 123 76 c 0
 123 68 128 61 138 61 c 0
 156 61 177 82 217 141 c 1
309 402 m 0
 349 402 382 368 382 328 c 0
 382 286 349 254 307 254 c 0
 265 254 234 286 234 328 c 0
 234 370 266 402 309 402 c 0
EndSplineSet
EndChar

StartChar: Lslash
Encoding: 321 321 256
Width: 611
Flags: MW
HStem: 0 32<246.5 305 246.5 530> 649 20<118 435 435 435>
LayerCount: 2
Fore
SplineSet
590 194 m 1
 530 0 l 1
 -22 0 l 1
 -22 25 l 1
 28 32 43 44 58 97 c 2
 108 279 l 1
 4 223 l 1
 26 293 l 1
 126 346 l 1
 181 546 l 2
 186 565 191 595 191 607 c 0
 191 627 181 634 150 639 c 2
 118 644 l 1
 118 669 l 1
 435 669 l 1
 435 644 l 1
 369 640 350 628 334 569 c 2
 290 411 l 1
 440 492 l 1
 419 422 l 1
 271 339 l 1
 205 94 l 2
 202 83 200 72 200 64 c 0
 200 43 224 32 269 32 c 0
 341 32 402 44 450 76 c 0
 502 110 525 137 566 199 c 1
 590 194 l 1
EndSplineSet
EndChar

StartChar: lslash
Encoding: 322 322 257
Width: 278
Flags: MW
HStem: -9 20
LayerCount: 2
Fore
SplineSet
216 141 m 1
 238 127 l 1
 173 24 136 -9 71 -9 c 0
 24 -9 2 14 2 53 c 0
 2 80 13 135 64 310 c 1
 -13 267 l 1
 6 337 l 1
 84 380 l 1
 129 542 144 598 144 615 c 0
 144 633 129 643 102 643 c 0
 95 643 90 643 80 642 c 1
 80 669 l 1
 155 676 204 683 290 699 c 1
 215 428 l 1
 301 475 l 1
 282 407 l 1
 196 360 l 1
 145 176 l 2
 131 124 123 90 123 76 c 0
 123 68 131 61 139 61 c 0
 157 61 176 82 216 141 c 1
EndSplineSet
EndChar

StartChar: uni0143
Encoding: 323 323 258
Width: 722
Flags: MW
HStem: -15 20 0 20 649 20<112 305 305 305 540 748 748 748>
LayerCount: 2
Fore
SplineSet
305 669 m 1x60
 521 202 l 1
 602 491 l 2
 613 532 621 566 621 585 c 0
 621 623 600 644 540 644 c 1
 540 669 l 1
 748 669 l 1
 748 644 l 1
 692 633 682 620 646 491 c 2
 503 -15 l 1
 475 -15 l 1xa0
 218 532 l 1
 119 178 l 2
 107 136 100 103 100 84 c 0
 100 45 120 30 179 25 c 1
 179 0 l 1
 -27 0 l 1
 -27 25 l 1
 28 36 33 42 74 180 c 2
 194 587 l 1
 175 631 167 639 112 644 c 1
 112 669 l 1
 305 669 l 1x60
399 723 m 1
 350 723 l 1
 472 854 l 2
 508 892 524 904 542 904 c 0
 568 904 590 883 590 857 c 0
 590 838 581 827 551 810 c 2
 399 723 l 1
EndSplineSet
EndChar

StartChar: uni0144
Encoding: 324 324 259
Width: 556
Flags: MW
HStem: -9 20 0 20 442 20<382.5 426.5>
LayerCount: 2
Fore
SplineSet
472 135 m 1x60
 494 122 l 1
 439 25 394 -9 334 -9 c 0x80
 291 -9 266 10 266 51 c 0
 266 77 276 128 292 176 c 2
 347 341 l 2
 350 351 354 366 354 369 c 0
 354 386 342 390 329 390 c 0
 311 390 280 363 260 336 c 0
 198 255 161 174 115 0 c 1
 -6 0 l 1
 51 204 l 2
 84 324 96 371 96 383 c 0
 96 402 83 406 41 407 c 1
 41 434 l 1
 97 436 176 447 240 461 c 1
 178 263 l 1
 179 263 l 1
 246 362 264 386 301 421 c 0
 328 447 364 462 401 462 c 0
 452 462 474 434 474 385 c 0
 474 361 462 316 446 269 c 2
 411 165 l 2
 392 109 387 86 387 76 c 0
 387 66 393 59 401 59 c 0
 418 59 432 73 472 135 c 1x60
210 516 m 1
 161 516 l 1
 283 647 l 2
 319 685 335 697 353 697 c 0
 379 697 401 676 401 650 c 0
 401 631 392 620 362 603 c 2
 210 516 l 1
EndSplineSet
EndChar

StartChar: uni0145
Encoding: 325 325 260
Width: 722
Flags: MW
HStem: 0 20 649 20<112 305 305 305 540 748 748 748>
VStem: 246 86<-236 -110>
LayerCount: 2
Fore
SplineSet
305 669 m 1
 521 202 l 1
 602 491 l 2
 613 532 621 566 621 585 c 0
 621 623 600 644 540 644 c 1
 540 669 l 1
 748 669 l 1
 748 644 l 1
 692 633 682 620 646 491 c 2
 503 -15 l 1
 475 -15 l 1
 218 532 l 1
 119 178 l 2
 107 136 100 103 100 84 c 0
 100 45 120 30 179 25 c 1
 179 0 l 1
 -27 0 l 1
 -27 25 l 1
 28 36 33 42 74 180 c 2
 194 587 l 1
 175 631 167 639 112 644 c 1
 112 669 l 1
 305 669 l 1
141 -359 m 1
 128 -334 l 1
 207 -292 246 -254 246 -218 c 0
 246 -204 240 -194 216 -181 c 0
 184 -163 176 -143 176 -116 c 0
 176 -73 208 -43 249 -43 c 0
 302 -43 332 -83 332 -137 c 0
 332 -226 260 -309 141 -359 c 1
EndSplineSet
EndChar

StartChar: uni0146
Encoding: 326 326 261
Width: 556
Flags: MW
HStem: -9 20 0 20 442 20<382.5 426.5>
VStem: 186 86<-236 -110>
LayerCount: 2
Fore
SplineSet
472 135 m 1x70
 494 122 l 1
 439 25 394 -9 334 -9 c 0x90
 291 -9 266 10 266 51 c 0
 266 77 276 128 292 176 c 2
 347 341 l 2
 350 351 354 366 354 369 c 0
 354 386 342 390 329 390 c 0
 311 390 280 363 260 336 c 0
 198 255 161 174 115 0 c 1
 -6 0 l 1
 51 204 l 2
 84 324 96 371 96 383 c 0
 96 402 83 406 41 407 c 1
 41 434 l 1
 97 436 176 447 240 461 c 1
 178 263 l 1
 179 263 l 1
 246 362 264 386 301 421 c 0
 328 447 364 462 401 462 c 0
 452 462 474 434 474 385 c 0
 474 361 462 316 446 269 c 2
 411 165 l 2
 392 109 387 86 387 76 c 0
 387 66 393 59 401 59 c 0
 418 59 432 73 472 135 c 1x70
81 -359 m 1
 68 -334 l 1
 147 -292 186 -254 186 -218 c 0
 186 -204 180 -194 156 -181 c 0
 124 -163 116 -143 116 -116 c 0
 116 -73 148 -43 189 -43 c 0
 242 -43 272 -83 272 -137 c 0
 272 -226 200 -309 81 -359 c 1
EndSplineSet
EndChar

StartChar: uni0147
Encoding: 327 327 262
Width: 722
Flags: MW
HStem: -15 20 0 20 649 20<112 305 305 305 540 748 748 748>
LayerCount: 2
Fore
SplineSet
305 669 m 1x60
 521 202 l 1
 602 491 l 2
 613 532 621 566 621 585 c 0
 621 623 600 644 540 644 c 1
 540 669 l 1
 748 669 l 1
 748 644 l 1
 692 633 682 620 646 491 c 2
 503 -15 l 1
 475 -15 l 1xa0
 218 532 l 1
 119 178 l 2
 107 136 100 103 100 84 c 0
 100 45 120 30 179 25 c 1
 179 0 l 1
 -27 0 l 1
 -27 25 l 1
 28 36 33 42 74 180 c 2
 194 587 l 1
 175 631 167 639 112 644 c 1
 112 669 l 1
 305 669 l 1x60
636 897 m 1
 474 723 l 1
 392 723 l 1
 304 897 l 1
 355 897 l 1
 445 800 l 1
 579 897 l 1
 636 897 l 1
EndSplineSet
EndChar

StartChar: uni0148
Encoding: 328 328 263
Width: 556
Flags: MW
HStem: -9 20 0 20 442 20<382.5 426.5>
LayerCount: 2
Fore
SplineSet
472 135 m 1x60
 494 122 l 1
 439 25 394 -9 334 -9 c 0x80
 291 -9 266 10 266 51 c 0
 266 77 276 128 292 176 c 2
 347 341 l 2
 350 351 354 366 354 369 c 0
 354 386 342 390 329 390 c 0
 311 390 280 363 260 336 c 0
 198 255 161 174 115 0 c 1
 -6 0 l 1
 51 204 l 2
 84 324 96 371 96 383 c 0
 96 402 83 406 41 407 c 1
 41 434 l 1
 97 436 176 447 240 461 c 1
 178 263 l 1
 179 263 l 1
 246 362 264 386 301 421 c 0
 328 447 364 462 401 462 c 0
 452 462 474 434 474 385 c 0
 474 361 462 316 446 269 c 2
 411 165 l 2
 392 109 387 86 387 76 c 0
 387 66 393 59 401 59 c 0
 418 59 432 73 472 135 c 1x60
506 690 m 1
 344 516 l 1
 262 516 l 1
 174 690 l 1
 225 690 l 1
 315 593 l 1
 449 690 l 1
 506 690 l 1
EndSplineSet
EndChar

StartChar: uni0149
Encoding: 329 329 264
Width: 700
Flags: MW
HStem: -9 20 0 20 442 20<545.5 589.5>
VStem: 160 86<517 643>
LayerCount: 2
Fore
SplineSet
635 135 m 1x70
 657 122 l 1
 602 25 557 -9 497 -9 c 0x90
 454 -9 429 10 429 51 c 0
 429 77 439 128 455 176 c 2
 510 341 l 2
 513 351 517 366 517 369 c 0
 517 386 505 390 492 390 c 0
 474 390 443 363 423 336 c 0
 361 255 324 174 278 0 c 1
 157 0 l 1
 214 204 l 2
 247 324 259 371 259 383 c 0
 259 402 246 406 204 407 c 1
 204 434 l 1
 260 436 339 447 403 461 c 1
 341 263 l 1
 342 263 l 1
 409 362 427 386 464 421 c 0
 491 447 527 462 564 462 c 0
 615 462 637 434 637 385 c 0
 637 361 625 316 609 269 c 2
 574 165 l 2
 555 109 550 86 550 76 c 0
 550 66 556 59 564 59 c 0
 581 59 595 73 635 135 c 1x70
55 394 m 1
 42 419 l 1
 121 461 160 499 160 535 c 0
 160 549 154 559 130 572 c 0
 98 590 90 610 90 637 c 0
 90 685 122 710 163 710 c 0
 216 710 246 670 246 616 c 0
 246 527 174 444 55 394 c 1
EndSplineSet
EndChar

StartChar: uni014A
Encoding: 330 330 265
Width: 722
Flags: MW
HStem: -203 36<256.5 266 256.5 401.5> 0 20 638 31<356.5 384 384 428.5>
LayerCount: 2
Fore
SplineSet
94 669 m 1
 384 669 l 2
 573 669 685 568 685 405 c 0
 685 194 520 -203 283 -203 c 0
 195 -203 135 -167 135 -102 c 0
 135 -62 163 -30 199 -30 c 0
 234 -30 262 -55 262 -95 c 0
 262 -126 239 -131 239 -149 c 0
 239 -161 247 -167 266 -167 c 0
 359 -168 538 187 538 457 c 0
 538 579 484 638 373 638 c 0
 340 638 326 628 318 600 c 2
 150 0 l 1
 -46 0 l 1
 -46 25 l 1
 2 31 20 47 37 109 c 2
 152 531 l 2
 165 577 167 592 167 602 c 0
 167 626 158 635 128 639 c 2
 94 644 l 1
 94 669 l 1
EndSplineSet
EndChar

StartChar: uni014B
Encoding: 331 331 266
Width: 543
Flags: MW
HStem: -207 31<173 193 173 227> 0 20 442 20<382.5 426.5>
VStem: 72 83<-166 -115.5>
LayerCount: 2
Fore
SplineSet
249 -38 m 2
 344 316 l 2
 346 323 354 354 354 369 c 0
 354 386 342 390 329 390 c 0
 311 390 280 363 260 336 c 0
 198 255 161 174 115 0 c 1
 -6 0 l 1
 51 204 l 2
 84 324 96 371 96 383 c 0
 96 402 83 407 41 407 c 1
 41 434 l 1
 97 436 178 447 240 461 c 1
 178 263 l 1
 179 263 l 1
 246 362 264 386 301 421 c 0
 328 447 364 462 401 462 c 0
 452 462 474 434 474 385 c 0
 474 361 462 315 386 24 c 0
 344 -136 277 -207 177 -207 c 0
 114 -207 72 -174 72 -130 c 0
 72 -101 94 -77 121 -77 c 0
 150 -77 170 -96 170 -126 c 0
 170 -147 155 -147 155 -161 c 0
 155 -171 167 -176 179 -176 c 0
 207 -176 222 -138 249 -38 c 2
EndSplineSet
EndChar

StartChar: uni014C
Encoding: 332 332 267
Width: 722
Flags: MW
HStem: -18 34<241.5 305 241.5 309.5> 651 34<414.5 476> 723 70<326 635 309 651>
LayerCount: 2
Fore
SplineSet
449 685 m 0
 586 685 691 590 691 444 c 0
 691 316 618 173 511 78 c 0
 441 16 356 -18 263 -18 c 0
 122 -18 27 66 27 221 c 0
 27 356 102 503 213 593 c 0
 285 651 365 685 449 685 c 0
446 651 m 0
 383 651 334 615 284 531 c 0
 224 430 171 262 171 143 c 0
 171 68 210 16 273 16 c 0
 337 16 381 57 430 130 c 0
 497 229 547 415 547 528 c 0
 547 611 506 651 446 651 c 0
651 793 m 1
 635 723 l 1
 309 723 l 1
 326 793 l 1
 651 793 l 1
EndSplineSet
EndChar

StartChar: uni014D
Encoding: 333 333 268
Width: 500
Flags: MW
HStem: -13 29<150 178 150 194.5> 516 70<136 445 119 461>
LayerCount: 2
Fore
SplineSet
280 462 m 2
 284 462 l 2
 381 462 441 403 441 311 c 0
 441 217 397 123 336 62 c 0
 287 13 228 -13 161 -13 c 0
 67 -13 -3 37 -3 135 c 0
 -3 235 37 326 97 385 c 0
 148 435 212 462 280 462 c 2
275 433 m 0
 254 433 234 423 215 402 c 0
 155 335 116 182 116 80 c 0
 116 36 135 16 165 16 c 0
 191 16 215 31 236 65 c 0
 285 145 322 285 322 372 c 0
 322 410 304 433 275 433 c 0
461 586 m 1
 445 516 l 1
 119 516 l 1
 136 586 l 1
 461 586 l 1
EndSplineSet
EndChar

StartChar: uni014E
Encoding: 334 334 269
Width: 722
Flags: MW
HStem: -18 34<241.5 305 241.5 309.5> 651 34<414.5 476> 723 72<462 527 462 538.5>
LayerCount: 2
Fore
SplineSet
449 685 m 0
 586 685 691 590 691 444 c 0
 691 316 618 173 511 78 c 0
 441 16 356 -18 263 -18 c 0
 122 -18 27 66 27 221 c 0
 27 356 102 503 213 593 c 0
 285 651 365 685 449 685 c 0
446 651 m 0
 383 651 334 615 284 531 c 0
 224 430 171 262 171 143 c 0
 171 68 210 16 273 16 c 0
 337 16 381 57 430 130 c 0
 497 229 547 415 547 528 c 0
 547 611 506 651 446 651 c 0
629 885 m 1
 668 885 l 1
 647 782 587 723 490 723 c 0
 397 723 352 777 352 872 c 2
 352 885 l 1
 395 885 l 1
 400 828 430 795 494 795 c 0
 560 795 598 819 629 885 c 1
EndSplineSet
EndChar

StartChar: uni014F
Encoding: 335 335 270
Width: 500
Flags: MW
HStem: -13 29<150 178 150 194.5> 516 72<282 347 282 358.5> 658 20<172 215 215 215 449 488 488 488>
LayerCount: 2
Fore
SplineSet
280 462 m 2
 284 462 l 2
 381 462 441 403 441 311 c 0
 441 217 397 123 336 62 c 0
 287 13 228 -13 161 -13 c 0
 67 -13 -3 37 -3 135 c 0
 -3 235 37 326 97 385 c 0
 148 435 212 462 280 462 c 2
275 433 m 0
 254 433 234 423 215 402 c 0
 155 335 116 182 116 80 c 0
 116 36 135 16 165 16 c 0
 191 16 215 31 236 65 c 0
 285 145 322 285 322 372 c 0
 322 410 304 433 275 433 c 0
449 678 m 1
 488 678 l 1
 467 575 407 516 310 516 c 0
 217 516 172 570 172 665 c 2
 172 678 l 1
 215 678 l 1
 220 621 250 588 314 588 c 0
 380 588 418 612 449 678 c 1
EndSplineSet
EndChar

StartChar: uni0150
Encoding: 336 336 271
Width: 722
Flags: MW
HStem: -18 34<241.5 305 241.5 309.5> 651 34<414.5 476>
LayerCount: 2
Fore
SplineSet
449 685 m 0
 586 685 691 590 691 444 c 0
 691 316 618 173 511 78 c 0
 441 16 356 -18 263 -18 c 0
 122 -18 27 66 27 221 c 0
 27 356 102 503 213 593 c 0
 285 651 365 685 449 685 c 0
446 651 m 0
 383 651 334 615 284 531 c 0
 224 430 171 262 171 143 c 0
 171 68 210 16 273 16 c 0
 337 16 381 57 430 130 c 0
 497 229 547 415 547 528 c 0
 547 611 506 651 446 651 c 0
323 723 m 1
 271 723 l 1
 393 856 l 2
 428 895 445 904 463 904 c 0
 489 904 511 885 511 859 c 0
 511 840 502 825 472 808 c 2
 323 723 l 1
510 723 m 1
 460 723 l 1
 582 856 l 2
 617 895 634 904 652 904 c 0
 678 904 700 883 700 857 c 0
 700 838 691 825 661 808 c 2
 510 723 l 1
EndSplineSet
EndChar

StartChar: uni0151
Encoding: 337 337 272
Width: 500
Flags: MW
HStem: -13 29<150 178 150 194.5>
LayerCount: 2
Fore
SplineSet
280 462 m 2
 284 462 l 2
 381 462 441 403 441 311 c 0
 441 217 397 123 336 62 c 0
 287 13 228 -13 161 -13 c 0
 67 -13 -3 37 -3 135 c 0
 -3 235 37 326 97 385 c 0
 148 435 212 462 280 462 c 2
275 433 m 0
 254 433 234 423 215 402 c 0
 155 335 116 182 116 80 c 0
 116 36 135 16 165 16 c 0
 191 16 215 31 236 65 c 0
 285 145 322 285 322 372 c 0
 322 410 304 433 275 433 c 0
142 516 m 1
 90 516 l 1
 212 649 l 2
 247 688 264 697 282 697 c 0
 308 697 330 678 330 652 c 0
 330 633 321 618 291 601 c 2
 142 516 l 1
329 516 m 1
 279 516 l 1
 401 649 l 2
 436 688 453 697 471 697 c 0
 497 697 519 676 519 650 c 0
 519 631 510 618 480 601 c 2
 329 516 l 1
EndSplineSet
EndChar

StartChar: OE
Encoding: 338 338 273
Width: 944
Flags: MW
HStem: -8 20 0 32<568 652.5 568 818> 637 32<694.5 737.5> 645 32<411.5 462.5>
LayerCount: 2
Fore
SplineSet
946 669 m 1x20
 900 478 l 1
 875 484 l 1
 876 498 877 512 877 521 c 0
 877 560 864 589 837 608 c 0
 813 625 763 637 712 637 c 0
 677 637 670 631 659 590 c 2
 598 370 l 1
 623 370 l 2
 712 370 755 396 787 473 c 1
 814 470 l 1
 742 198 l 1
 715 203 l 1
 716 222 l 2
 717 239 719 254 719 263 c 0
 719 282 712 300 698 311 c 0
 683 324 664 328 589 336 c 1
 525 91 l 2
 523 82 521 72 521 66 c 0
 521 42 542 32 594 32 c 0
 711 32 782 78 851 199 c 1
 878 194 l 1
 818 0 l 1
 494 0 l 2x60
 427 0 356 -8 294 -8 c 2
 276 -8 l 2
 193 -8 136 10 92 49 c 0
 47 89 23 150 23 224 c 0
 23 368 102 519 224 607 c 0
 295 658 359 677 464 677 c 0x90
 480 677 490 677 520 674 c 0
 562 671 593 669 611 669 c 2
 946 669 l 1x20
392 123 m 2x10
 500 514 l 2
 507 541 512 567 512 583 c 0
 512 623 486 645 439 645 c 0
 378 645 326 611 278 539 c 0
 216 448 164 273 164 158 c 0
 164 78 212 25 285 25 c 0
 343 25 372 52 392 123 c 2x10
EndSplineSet
EndChar

StartChar: oe
Encoding: 339 339 274
Width: 722
Flags: MW
HStem: -13 29<160 195 160 195.5> -13 63<451 452> 432 30<542 560.5> 433 29<266 300>
VStem: 586 88<380 399.5 349 404.5>
LayerCount: 2
Fore
SplineSet
591 139 m 1x68
 619 124 l 1
 594 73 574 49 547 27 c 1
 513 1 473 -13 431 -13 c 0x68
 385 -13 353 3 314 44 c 1
 271 5 225 -13 166 -13 c 0
 71 -13 6 51 6 144 c 0
 6 226 50 323 110 383 c 0
 164 436 231 462 300 462 c 0x98
 353 462 384 445 416 400 c 1
 475 447 510 462 562 462 c 0
 631 462 674 427 674 372 c 0
 674 326 644 282 587 245 c 0
 542 216 517 204 414 184 c 1
 408 155 406 144 406 128 c 0
 406 77 429 50 473 50 c 0
 519 50 546 70 591 139 c 1x68
421 218 m 1
 499 241 536 265 564 315 c 0
 577 339 586 368 586 392 c 0
 586 417 572 432 549 432 c 0
 535 432 522 426 513 416 c 0
 482 380 466 357 421 218 c 1
282 433 m 0x98
 250 433 222 410 196 359 c 0
 163 295 124 170 124 97 c 0
 124 45 143 16 177 16 c 0
 213 16 243 46 274 113 c 0
 303 177 337 308 337 359 c 0
 337 408 318 433 282 433 c 0x98
EndSplineSet
EndChar

StartChar: uni0154
Encoding: 340 340 275
Width: 667
Flags: MW
HStem: 0 20 637 32<374.5 396 396 416.5>
LayerCount: 2
Fore
SplineSet
431 343 m 1
 516 89 l 2
 532 40 547 30 603 25 c 1
 603 0 l 1
 401 0 l 1
 294 331 l 1
 264 331 l 1
 212 149 l 2
 198 101 194 81 194 67 c 0
 194 37 208 29 266 25 c 1
 266 0 l 1
 -28 0 l 1
 -28 25 l 1
 21 31 38 50 54 109 c 2
 174 546 l 2
 179 565 184 595 184 607 c 0
 184 627 175 638 142 641 c 2
 110 644 l 1
 110 669 l 1
 396 669 l 2
 543 669 623 622 623 526 c 0
 623 457 587 412 527 375 c 0
 503 360 477 352 431 343 c 1
330 583 m 2
 273 363 l 1
 335 364 374 371 400 388 c 0
 444 415 472 476 472 542 c 0
 472 603 443 637 390 637 c 0
 359 637 342 629 330 583 c 2
329 723 m 1
 280 723 l 1
 402 854 l 2
 438 892 454 904 472 904 c 0
 498 904 520 883 520 857 c 0
 520 838 511 827 481 810 c 2
 329 723 l 1
EndSplineSet
EndChar

StartChar: uni0155
Encoding: 341 341 276
Width: 389
Flags: MW
HStem: 0 20 442 20<225 225 305 349>
LayerCount: 2
Fore
SplineSet
25 407 m 1
 25 434 l 1
 146 444 165 447 225 462 c 1
 160 253 l 1
 161 253 l 1
 240 412 278 462 332 462 c 0
 366 462 389 436 389 396 c 0
 389 354 364 323 331 323 c 0
 292 323 290 361 270 361 c 0
 256 361 232 334 205 285 c 0
 179 238 164 204 131 99 c 2
 100 0 l 1
 -21 0 l 1
 50 240 81 357 81 382 c 0
 81 401 69 407 25 407 c 1
188 516 m 1
 139 516 l 1
 261 647 l 2
 297 685 313 697 331 697 c 0
 357 697 379 676 379 650 c 0
 379 631 370 620 340 603 c 2
 188 516 l 1
EndSplineSet
EndChar

StartChar: uni0156
Encoding: 342 342 277
Width: 667
Flags: MW
HStem: 0 20 637 32<374.5 396 396 416.5>
VStem: 245 86<-236 -110>
LayerCount: 2
Fore
SplineSet
431 343 m 1
 516 89 l 2
 532 40 547 30 603 25 c 1
 603 0 l 1
 401 0 l 1
 294 331 l 1
 264 331 l 1
 212 149 l 2
 198 101 194 81 194 67 c 0
 194 37 208 29 266 25 c 1
 266 0 l 1
 -28 0 l 1
 -28 25 l 1
 21 31 38 50 54 109 c 2
 174 546 l 2
 179 565 184 595 184 607 c 0
 184 627 175 638 142 641 c 2
 110 644 l 1
 110 669 l 1
 396 669 l 2
 543 669 623 622 623 526 c 0
 623 457 587 412 527 375 c 0
 503 360 477 352 431 343 c 1
330 583 m 2
 273 363 l 1
 335 364 374 371 400 388 c 0
 444 415 472 476 472 542 c 0
 472 603 443 637 390 637 c 0
 359 637 342 629 330 583 c 2
140 -359 m 1
 127 -334 l 1
 206 -292 245 -254 245 -218 c 0
 245 -204 239 -194 215 -181 c 0
 183 -163 175 -143 175 -116 c 0
 175 -73 207 -43 248 -43 c 0
 301 -43 331 -83 331 -137 c 0
 331 -226 259 -309 140 -359 c 1
EndSplineSet
EndChar

StartChar: uni0157
Encoding: 343 343 278
Width: 389
Flags: MW
HStem: 0 20 442 20<225 225 305 349>
VStem: 16 86<-236 -110>
LayerCount: 2
Fore
SplineSet
25 407 m 1
 25 434 l 1
 146 444 165 447 225 462 c 1
 160 253 l 1
 161 253 l 1
 240 412 278 462 332 462 c 0
 366 462 389 436 389 396 c 0
 389 354 364 323 331 323 c 0
 292 323 290 361 270 361 c 0
 256 361 232 334 205 285 c 0
 179 238 164 204 131 99 c 2
 100 0 l 1
 -21 0 l 1
 50 240 81 357 81 382 c 0
 81 401 69 407 25 407 c 1
-89 -359 m 1
 -102 -334 l 1
 -23 -292 16 -254 16 -218 c 0
 16 -204 10 -194 -14 -181 c 0
 -46 -163 -54 -143 -54 -116 c 0
 -54 -73 -22 -43 19 -43 c 0
 72 -43 102 -83 102 -137 c 0
 102 -226 30 -309 -89 -359 c 1
EndSplineSet
EndChar

StartChar: uni0158
Encoding: 344 344 279
Width: 667
Flags: MW
HStem: 0 20 637 32<374.5 396 396 416.5>
LayerCount: 2
Fore
SplineSet
431 343 m 1
 516 89 l 2
 532 40 547 30 603 25 c 1
 603 0 l 1
 401 0 l 1
 294 331 l 1
 264 331 l 1
 212 149 l 2
 198 101 194 81 194 67 c 0
 194 37 208 29 266 25 c 1
 266 0 l 1
 -28 0 l 1
 -28 25 l 1
 21 31 38 50 54 109 c 2
 174 546 l 2
 179 565 184 595 184 607 c 0
 184 627 175 638 142 641 c 2
 110 644 l 1
 110 669 l 1
 396 669 l 2
 543 669 623 622 623 526 c 0
 623 457 587 412 527 375 c 0
 503 360 477 352 431 343 c 1
330 583 m 2
 273 363 l 1
 335 364 374 371 400 388 c 0
 444 415 472 476 472 542 c 0
 472 603 443 637 390 637 c 0
 359 637 342 629 330 583 c 2
566 897 m 1
 404 723 l 1
 322 723 l 1
 234 897 l 1
 285 897 l 1
 375 800 l 1
 509 897 l 1
 566 897 l 1
EndSplineSet
EndChar

StartChar: uni0159
Encoding: 345 345 280
Width: 389
Flags: MW
HStem: 0 20 442 20<225 225 305 349>
LayerCount: 2
Fore
SplineSet
25 407 m 1
 25 434 l 1
 146 444 165 447 225 462 c 1
 160 253 l 1
 161 253 l 1
 240 412 278 462 332 462 c 0
 366 462 389 436 389 396 c 0
 389 354 364 323 331 323 c 0
 292 323 290 361 270 361 c 0
 256 361 232 334 205 285 c 0
 179 238 164 204 131 99 c 2
 100 0 l 1
 -21 0 l 1
 50 240 81 357 81 382 c 0
 81 401 69 407 25 407 c 1
411 690 m 1
 249 516 l 1
 167 516 l 1
 79 690 l 1
 130 690 l 1
 220 593 l 1
 354 690 l 1
 411 690 l 1
EndSplineSet
EndChar

StartChar: uni015A
Encoding: 346 346 281
Width: 556
Flags: MW
HStem: -18 34<218 240 199 261> 650 35<294.5 347>
LayerCount: 2
Fore
SplineSet
2 -18 m 1
 38 207 l 1
 67 205 l 1
 75 139 83 102 115 66 c 0
 142 35 177 16 221 16 c 0
 259 16 288 27 310 50 c 0
 333 73 347 97 347 142 c 0
 347 201 313 238 232 296 c 0
 151 354 102 410 102 494 c 0
 102 608 192 685 306 685 c 0
 394 685 414 655 452 655 c 0
 473 655 487 663 496 681 c 1
 526 681 l 1
 486 479 l 1
 459 483 l 1
 454 525 450 559 437 584 c 0
 414 630 373 650 321 650 c 0
 268 650 223 610 223 545 c 0
 223 485 259 459 330 408 c 0
 436 331 468 281 468 191 c 0
 468 107 427 41 358 7 c 0
 325 -9 284 -18 238 -18 c 0
 198 -18 165 -11 116 6 c 0
 93 14 80 17 70 17 c 0
 51 17 44 11 32 -18 c 1
 2 -18 l 1
249 723 m 1
 200 723 l 1
 322 854 l 2
 358 892 374 904 392 904 c 0
 418 904 440 883 440 857 c 0
 440 838 431 827 401 810 c 2
 249 723 l 1
EndSplineSet
EndChar

